<svg xmlns="http://www.w3.org/2000/svg" width="117" height="27" fill="none"><path fill="#E14459" d="M16.085 4.098H4.943A4.22 4.22 0 0 0 .725 8.316v11.142a4.22 4.22 0 0 0 4.218 4.218h11.142a4.22 4.22 0 0 0 4.218-4.218V8.316a4.217 4.217 0 0 0-4.218-4.218"/><path fill="#C73148" d="M5.5 5.376a.555.555 0 1 0 0 1.11.555.555 0 1 0-.002-1.11zm9.961 0a.555.555 0 1 0 .002 1.11.555.555 0 1 0-.002-1.11"/><path fill="#fff" d="M5.476 5.857c-.194.01-.184.292-.184.292 1.04 2.027 2.956 3.02 5.165 3.02 2.205-.003 4.14-1.008 5.18-3.03 0 0 .04-.381-.365-.249-1.065 1.766-2.855 2.81-4.814 2.814-1.962 0-3.745-1.034-4.813-2.802a.4.4 0 0 0-.17-.043zm7.04 7.874-.59 1.762-.577-1.762h-.563l.908 2.562h.437l.593-1.683.592 1.683h.442l.906-2.562h-.548l-.578 1.762-.59-1.762zm-3.142 0-1.148 2.562h.54l.222-.495.016-.039h1.193l.233.534h.555l-1.138-2.547-.01-.015h-.463m8.315 0v2.56h.522v-2.56zm-14.962 0v2.563h.528v-1.041H4.45v1.04h.53v-2.564h-.528v1.034H3.257v-1.034h-.53zm4.701 0v1.467c0 .417-.21.64-.593.64-.382 0-.596-.23-.596-.658v-1.447h-.53v1.465c0 .72.408 1.134 1.118 1.134s1.128-.42 1.128-1.155V13.73h-.529zm7.665 0v2.56h1.969v-.467h-1.447v-.634h.962v-.467h-.962V14.2h1.396v-.467h-1.918zm-5.494.646.377.857.027.06h-.8l.025-.06.373-.857zM30.769 5.343c.136 0 .259-.02.36-.068a.701.701 0 0 0 .402-.415.858.858 0 0 0-.04-.66.8.8 0 0 0-.245-.266 1.2 1.2 0 0 0-.375-.143 2.5 2.5 0 0 0-.47-.048c-.204 0-.395.034-.552.089-.163.06-.3.136-.401.238a.84.84 0 0 0-.239.34 1 1 0 0 0-.075.416h-.612q.002-.315.075-.559.07-.244.204-.429.13-.181.313-.313a2 2 0 0 1 .395-.204q.206-.084.443-.116.234-.032.47-.034.396 0 .721.082c.218.061.395.143.552.252q.236.174.368.422c.081.17.129.36.129.586 0 .251-.054.463-.15.64-.095.177-.265.306-.51.395v.013c.129.041.245.089.347.157s.197.15.272.252a1.2 1.2 0 0 1 .184.36q.06.205.061.47 0 .369-.163.654c-.11.19-.252.348-.436.47a1.9 1.9 0 0 1-.633.286 2.7 2.7 0 0 1-.756.095q-.42-.002-.776-.074a2 2 0 0 1-.64-.26 1.4 1.4 0 0 1-.436-.476 1.55 1.55 0 0 1-.19-.722h.64c.006.136.04.273.101.388a.7.7 0 0 0 .239.3q.164.135.408.198c.164.054.368.074.6.074.204 0 .401-.013.571-.054q.257-.05.443-.17a.84.84 0 0 0 .28-.3 1 1 0 0 0 .095-.443 1 1 0 0 0-.062-.354.8.8 0 0 0-.19-.272.8.8 0 0 0-.314-.184q-.194-.06-.449-.061h-.844v-.552zm2.41.348q.01-.327.123-.552a.94.94 0 0 1 .306-.36q.193-.144.457-.205a2.6 2.6 0 0 1 .579-.061c.17 0 .34.013.504.054q.245.05.428.17a.9.9 0 0 1 .307.307c.082.122.116.279.116.456v2.07c0 .054.013.109.047.15.028.04.082.061.15.061q.042-.002.096-.014a.5.5 0 0 0 .102-.013v.422a1 1 0 0 1-.15.034.7.7 0 0 1-.177.02c-.11 0-.198-.013-.273-.027a.5.5 0 0 1-.197-.088.5.5 0 0 1-.123-.164 1 1 0 0 1-.054-.238 3 3 0 0 1-.239.225 1 1 0 0 1-.285.184 1.6 1.6 0 0 1-.348.129c-.13.027-.272.04-.436.04a1.1 1.1 0 0 1-.395-.067 1.1 1.1 0 0 1-.354-.191 1 1 0 0 1-.245-.327.9.9 0 0 1-.095-.442c0-.184.027-.34.095-.477a1 1 0 0 1 .239-.334c.102-.095.218-.156.347-.21.13-.049.259-.076.388-.096l1.001-.123a.32.32 0 0 0 .225-.109c.054-.068.081-.163.081-.306 0-.218-.068-.368-.21-.463-.144-.096-.341-.143-.607-.143-.272 0-.47.061-.606.17-.13.116-.21.286-.224.518zm2.207.68a1 1 0 0 1-.177.089q-.114.031-.239.055-.133.03-.279.04l-.293.041c-.109.02-.21.034-.306.068-.088.028-.17.068-.238.11a.55.55 0 0 0-.164.17.5.5 0 0 0-.054.231c0 .102.013.19.047.272a.5.5 0 0 0 .137.191.5.5 0 0 0 .197.123.84.84 0 0 0 .47.013c.082-.013.157-.027.238-.061.089-.027.164-.068.245-.109.075-.048.15-.102.212-.163a.693.693 0 0 0 .204-.497zm3.865-1.218h-1.6v3.03h-.613V4.62h2.213zm1.18-.041h.014a1.03 1.03 0 0 1 .375-.43 1.298 1.298 0 0 1 .674-.17q.285-.001.551.11c.177.074.327.183.463.326q.207.225.32.552c.082.225.123.477.123.77 0 .367-.034.674-.109.932a1.6 1.6 0 0 1-.32.627q-.205.243-.49.354a1.8 1.8 0 0 1-.647.109q-.174.002-.327-.048a.8.8 0 0 1-.272-.122.891.891 0 0 1-.34-.34h-.014v1.804h-.613V4.62h.612zm-.013 1.307c0 .198.02.368.054.531.041.164.096.307.177.43a.84.84 0 0 0 .3.279.8.8 0 0 0 .415.102c.17 0 .314-.034.443-.102a.9.9 0 0 0 .3-.28c.081-.122.136-.265.177-.429a2.749 2.749 0 0 0 0-1.083 1.3 1.3 0 0 0-.177-.435.86.86 0 0 0-.3-.286.9.9 0 0 0-.443-.102q-.243 0-.415.102a.8.8 0 0 0-.3.286 1.3 1.3 0 0 0-.177.436c-.034.17-.054.347-.054.551m4.533 1.103h.013l.947-2.9h.674l-1.362 3.704a8 8 0 0 1-.19.483 2 2 0 0 1-.17.354 1.4 1.4 0 0 1-.164.232.653.653 0 0 1-.415.211 1.8 1.8 0 0 1-.49.007.6.6 0 0 1-.137-.027v-.552q.062.02.157.04a1 1 0 0 0 .204.021.43.43 0 0 0 .272-.081.5.5 0 0 0 .164-.232l.197-.504-1.32-3.657h.673zm3.459-1.396c.082 0 .163-.013.252-.034a.8.8 0 0 0 .245-.095.6.6 0 0 0 .184-.163.44.44 0 0 0 .068-.252.6.6 0 0 0-.04-.205.7.7 0 0 0-.137-.17.6.6 0 0 0-.225-.122 1 1 0 0 0-.306-.041c-.061 0-.136.013-.218.027a.6.6 0 0 0-.245.095.6.6 0 0 0-.218.205.7.7 0 0 0-.123.34h-.572q.023-.237.096-.422c.047-.116.109-.225.184-.313q.111-.135.245-.218.142-.093.286-.143c.102-.041.197-.062.3-.082q.152-.02.285-.02.236 0 .47.06.237.063.422.185a1 1 0 0 1 .293.313c.075.13.116.272.116.443 0 .115-.02.204-.048.286a.753.753 0 0 1-.293.381c-.06.04-.122.075-.177.109v.013c.062.014.13.034.205.069a.8.8 0 0 1 .21.143q.093.102.164.245c.041.102.062.218.062.36 0 .205-.048.375-.13.518-.082.15-.197.266-.334.368q-.205.144-.463.218a2 2 0 0 1-.524.068q-.337.002-.613-.089a1.4 1.4 0 0 1-.477-.245 1.1 1.1 0 0 1-.313-.381 1.2 1.2 0 0 1-.143-.49h.613c.02.129.055.238.116.326.061.082.13.157.218.205a1.195 1.195 0 0 0 .593.143q.418.001.633-.17a.55.55 0 0 0 .21-.457.7.7 0 0 0-.033-.218.43.43 0 0 0-.13-.163.7.7 0 0 0-.238-.11 2 2 0 0 0-.368-.026h-.095a1 1 0 0 0-.116.006h-.109l-.095.014v-.51zm2.853 1.226h.014l1.75-2.73h.701v3.56h-.62v-2.73h-.013l-1.743 2.73h-.702v-3.56h.613zm3.146-2.73h3.065v.53h-1.226v3.03h-.613v-3.03h-1.226zm6.782 2.424a1.387 1.387 0 0 1-.483.851q-.196.184-.463.286a1.6 1.6 0 0 1-.606.109q-.356-.002-.66-.116a1.34 1.34 0 0 1-.525-.36 1.6 1.6 0 0 1-.347-.593 2.5 2.5 0 0 1-.13-.845c0-.218.02-.415.075-.592q.07-.266.191-.47c.082-.136.177-.259.28-.36.108-.103.217-.185.34-.253a2 2 0 0 1 .36-.143 1.4 1.4 0 0 1 .361-.047c.246 0 .463.034.668.108.204.075.374.184.524.334.143.15.252.34.34.559q.114.347.116.796v.307h-2.6q.001.255.074.47c.04.143.109.258.197.36a.8.8 0 0 0 .314.232q.181.082.415.082c.157 0 .293-.02.402-.068a.74.74 0 0 0 .272-.17 1 1 0 0 0 .177-.225 3 3 0 0 0 .116-.252zm-.572-.92a2 2 0 0 0-.074-.463 1.2 1.2 0 0 0-.205-.34 1 1 0 0 0-.306-.211 1.1 1.1 0 0 0-.402-.068.944.944 0 0 0-.695.306 1.2 1.2 0 0 0-.21.34 1.3 1.3 0 0 0-.096.436zm4.876-1.505c.436 0 .756.082.974.246s.32.395.32.701a.68.68 0 0 1-.116.415 1.2 1.2 0 0 1-.313.3c.184.068.334.177.442.306.116.137.17.307.17.518a1.2 1.2 0 0 1-.081.45q-.09.196-.252.34a1.4 1.4 0 0 1-.429.211 2.4 2.4 0 0 1-.62.075h-1.614V4.62zm.02 1.505q.309 0 .484-.122.184-.124.184-.382a.484.484 0 0 0-.184-.402.6.6 0 0 0-.19-.088 1 1 0 0 0-.212-.02H64.59v1.014zm0 1.567q.245 0 .41-.041a.56.56 0 0 0 .258-.11.4.4 0 0 0 .136-.176.6.6 0 0 0 .04-.232.6.6 0 0 0-.04-.231.4.4 0 0 0-.136-.177.65.65 0 0 0-.259-.11 1.7 1.7 0 0 0-.409-.04h-.926v1.117zM35.675 18.86l-2.164-5.845-2.154 5.845h4.318m-7.541 4.337 4.485-11.751h1.797l4.485 11.75h-1.657l-1.072-3.016h-5.291l-1.072 3.017zm13.813-1.32v4.673h-1.448V14.383h1.448v1.33q.458-.786 1.153-1.16.704-.388 1.667-.387 1.606 0 2.61 1.28 1.01 1.27 1.01 3.355c0 1.39-.336 2.499-1.01 3.356q-1.004 1.27-2.61 1.27-.96.001-1.667-.376-.694-.391-1.153-1.172zm4.93-3.078q0-1.596-.664-2.509-.644-.913-1.797-.913t-1.817.913q-.656.911-.656 2.51 0 1.597.656 2.508.664.904 1.817.905 1.152-.001 1.797-.905.664-.911.664-2.509m5.31 3.078v4.673H50.73V14.383h1.458v1.33q.457-.786 1.142-1.16.704-.388 1.676-.387 1.598 0 2.6 1.28 1.013 1.27 1.012 3.355c0 1.39-.336 2.499-1.011 3.356q-1.003 1.27-2.601 1.27-.972.001-1.676-.376-.687-.391-1.142-1.172zm4.923-3.078q0-1.596-.665-2.509-.645-.913-1.796-.913-1.154 0-1.818.913-.645.911-.645 2.51 0 1.597.645 2.508.664.904 1.818.905 1.152-.001 1.796-.905.665-.911.665-2.509m11.929 2.72v-3.154h-2.591v-1.31h4.168v5.051a7 7 0 0 1-2.035.99c-.735.22-1.52.326-2.36.326q-2.76 0-4.317-1.608-1.548-1.607-1.548-4.486.002-2.878 1.548-4.485c1.038-1.078 2.48-1.619 4.316-1.619q1.151.002 2.173.288a6.8 6.8 0 0 1 1.916.834v1.696a6.4 6.4 0 0 0-1.874-1.132 5.8 5.8 0 0 0-2.083-.376q-2.151 0-3.245 1.2-1.071 1.21-1.071 3.59-.002 2.38 1.072 3.581 1.093 1.2 3.244 1.2c.562 0 1.065-.049 1.508-.139q.655-.141 1.179-.449zm9.814-2.761h-1.437c-1.172 0-1.983.133-2.432.407q-.674.398-.675 1.37-.001.777.508 1.23.504.449 1.381.448 1.21-.001 1.935-.853t.724-2.274v-.326h-.004zm1.448-.596v5.033h-1.448v-1.341q-.496.804-1.23 1.193c-.498.252-1.101.375-1.818.375q-1.35 0-2.154-.756c-.53-.51-.791-1.193-.791-2.045q0-1.477.99-2.244 1.001-.755 2.977-.756h2.026v-.138q-.001-1.003-.656-1.548-.654-.544-1.844-.543c-.504 0-.99.06-1.47.178a5.8 5.8 0 0 0-1.38.543V14.77a9.6 9.6 0 0 1 1.548-.457 7 7 0 0 1 1.448-.159q1.916 0 2.858.99c.629.669.94 1.67.94 3.013zm2.985 5.033V10.95h1.448v12.245zm4.477 0V10.95h1.448v12.245zm11.975-4.774v.715H93.08c.06.99.355 1.752.894 2.28.541.519 1.293.774 2.254.774q.833 0 1.61-.199a7 7 0 0 0 1.558-.614v1.37a9 9 0 0 1-1.599.508 8.3 8.3 0 0 1-1.656.168c-1.404 0-2.516-.41-3.347-1.231q-1.23-1.22-1.23-3.315c0-1.398.39-2.593 1.172-3.433.779-.852 1.834-1.28 3.154-1.28 1.187 0 2.12.382 2.808 1.153q1.037 1.138 1.038 3.104zm-6.618-.416h5.17q-.019-1.187-.674-1.905-.644-.706-1.718-.706-1.209 0-1.945.685c-.484.458-.758 1.1-.833 1.924zm14.041-3.762.01 1.487a2 2 0 0 0-.537-.209 2.6 2.6 0 0 0-.624-.07q-1.23.001-1.895.802-.656.794-.656 2.291v4.647h-1.448v-8.812h1.448v1.37q.457-.805 1.193-1.193.735-.397 1.778-.397.15 0 .336.03c.117.006.253.023.397.05zm9.071.138-3.869 9.626q-.616 1.578-1.199 2.062-.587.479-1.559.477h-1.161v-1.21h.852q.595-.002.934-.288.327-.276.725-1.341l.269-.656-3.574-8.674h1.537l2.758 6.885 2.747-6.885h1.538z"/></svg>