<svg width="117" height="27" viewBox="0 0 117 27" fill="none" xmlns="http://www.w3.org/2000/svg">
<path d="M16.0852 4.09839H4.94285C2.61358 4.09839 0.725342 5.98663 0.725342 8.31589V19.4583C0.725342 21.7875 2.61358 23.6758 4.94285 23.6758H16.0852C18.4145 23.6758 20.3027 21.7875 20.3027 19.4583V8.31589C20.3027 5.98663 18.4145 4.09839 16.0852 4.09839Z" fill="#E14459"/>
<path d="M5.49924 5.37634C5.19125 5.37634 4.94287 5.62473 4.94287 5.93107C4.94287 6.2374 5.19291 6.48578 5.49924 6.48578C5.80724 6.48578 6.05562 6.2374 6.05562 5.93107C6.05562 5.62307 5.80558 5.37634 5.49759 5.37634H5.49924ZM15.461 5.37634C15.153 5.37634 14.9046 5.62473 14.9046 5.93107C14.9046 6.2374 15.1546 6.48578 15.4626 6.48578C15.7706 6.48578 16.019 6.2374 16.019 5.93107C16.019 5.62307 15.769 5.37634 15.461 5.37634Z" fill="#C73148"/>
<path d="M5.4758 5.8573C5.28206 5.86724 5.292 6.14874 5.292 6.14874C6.33189 8.17552 8.24773 9.16905 10.4567 9.16905C12.6623 9.16573 14.5963 8.16062 15.6362 6.1388C15.6362 6.1388 15.6776 5.75795 15.2719 5.89042C14.2072 7.65558 12.4172 8.70043 10.4583 8.70375C8.49611 8.70375 6.71274 7.67048 5.6447 5.90201C5.57515 5.86889 5.52051 5.8573 5.4758 5.85896V5.8573ZM12.5166 13.731L11.9254 15.4928L11.3492 13.731H10.7862L11.6936 16.2926H12.1307L12.7236 14.6102L13.3164 16.2926H13.7585L14.6642 13.731H14.1161L13.5382 15.4928L12.9471 13.731H12.5166ZM9.37372 13.731L8.2262 16.2926H8.76602L8.98791 15.7975L9.00446 15.7594H10.1967L10.4302 16.2926H10.9849L9.8473 13.7459L9.83737 13.731H9.37538H9.37372ZM17.6895 13.731V16.291H18.2111V13.731H17.6895ZM2.72705 13.731V16.2943H3.25527V15.2527H4.44916V16.2926H4.97904V13.7293H4.45081V14.7626H3.25693V13.7293H2.72705V13.731ZM7.42807 13.731V15.1981C7.42807 15.6154 7.21778 15.8372 6.83527 15.8372C6.45276 15.8372 6.23916 15.6087 6.23916 15.1799V13.7326H5.70928V15.1981C5.70928 15.9184 6.11662 16.3324 6.82699 16.3324C7.53736 16.3324 7.95464 15.9118 7.95464 15.1766V13.731H7.42642H7.42807ZM15.0931 13.731V16.291H17.0619V15.824H15.6147V15.1898H16.5768V14.7228H15.6147V14.1996H17.0106V13.7326H15.0931V13.731ZM9.59892 14.3768L9.97646 15.2345L10.003 15.2941H9.20317L9.22801 15.2345L9.60058 14.3768H9.59892Z" fill="white"/>
<path d="M30.7688 5.34329C30.905 5.34329 31.0276 5.32286 31.1297 5.27519C31.2319 5.23434 31.3136 5.17986 31.3817 5.10496C31.4498 5.03686 31.4974 4.94834 31.5315 4.85981C31.5587 4.77129 31.5792 4.68277 31.5792 4.58743C31.5792 4.43762 31.5451 4.30824 31.4906 4.19929C31.4294 4.09034 31.3476 4.00862 31.2455 3.93372C31.1365 3.87243 31.014 3.81796 30.871 3.79072C30.728 3.76348 30.5714 3.74305 30.4011 3.74305C30.1968 3.74305 30.0062 3.7771 29.8495 3.83158C29.6861 3.89286 29.5499 3.96777 29.4478 4.06991C29.3388 4.16524 29.2571 4.281 29.2094 4.41039C29.155 4.53977 29.1277 4.68277 29.1345 4.82577H28.5217C28.5217 4.61467 28.5489 4.43081 28.5966 4.26738C28.6443 4.10396 28.7124 3.96096 28.8009 3.83839C28.8894 3.71581 28.9915 3.61367 29.1141 3.52515C29.2367 3.44343 29.3661 3.37534 29.5091 3.32086C29.6453 3.26638 29.7951 3.22553 29.9517 3.2051C30.1083 3.18467 30.2649 3.17105 30.4215 3.17105C30.6871 3.17105 30.9254 3.19829 31.1434 3.25277C31.3613 3.31405 31.5383 3.39577 31.6949 3.50472C31.8515 3.62048 31.9741 3.76348 32.0626 3.92691C32.1444 4.09715 32.192 4.28781 32.192 4.51253C32.192 4.76448 32.1375 4.97558 32.0422 5.15262C31.9469 5.32967 31.7766 5.45905 31.5315 5.54758V5.56119C31.6609 5.60205 31.7766 5.64972 31.8788 5.71781C31.9809 5.78591 32.0763 5.86762 32.1512 5.96977C32.2329 6.07191 32.2874 6.19448 32.335 6.33067C32.3759 6.46686 32.3963 6.62348 32.3963 6.80053C32.3963 7.04567 32.3418 7.26358 32.2329 7.45424C32.1239 7.64491 31.9809 7.80153 31.7971 7.9241C31.6132 8.05348 31.4021 8.14881 31.1638 8.2101C30.9254 8.27819 30.6735 8.30543 30.4079 8.30543C30.1287 8.30543 29.87 8.27819 29.6316 8.23053C29.3865 8.17605 29.1754 8.08753 28.9915 7.97177C28.8145 7.84919 28.6647 7.69258 28.5557 7.4951C28.44 7.29762 28.3787 7.05929 28.3651 6.77329H29.0052C29.012 6.90948 29.046 7.04567 29.1073 7.16143C29.155 7.27719 29.2367 7.37934 29.3456 7.46105C29.4546 7.54958 29.5908 7.61767 29.7542 7.65853C29.9176 7.713 30.1219 7.73343 30.3534 7.73343C30.5577 7.73343 30.7552 7.71981 30.9254 7.67896C31.0957 7.64491 31.2455 7.59043 31.3681 7.50872C31.4838 7.43381 31.5792 7.33167 31.6473 7.2091C31.7085 7.08653 31.7426 6.93672 31.7426 6.76648C31.7426 6.6371 31.7222 6.52134 31.6813 6.41239C31.6404 6.31024 31.5724 6.21491 31.4906 6.14C31.4089 6.05829 31.3 5.997 31.1774 5.95615C31.048 5.91529 30.8982 5.89486 30.728 5.89486H29.8836V5.34329H30.7688ZM33.1795 5.69058C33.1863 5.47267 33.2272 5.28881 33.3021 5.139C33.377 4.98919 33.4791 4.86662 33.6085 4.7781C33.7379 4.68277 33.8877 4.61467 34.0647 4.57381C34.2418 4.53296 34.4325 4.51253 34.6436 4.51253C34.8138 4.51253 34.984 4.52615 35.1475 4.567C35.3109 4.60105 35.4539 4.65553 35.5765 4.73724C35.7058 4.81215 35.808 4.9211 35.8829 5.04367C35.9646 5.16624 35.9987 5.32286 35.9987 5.49991V7.57C35.9987 7.62448 36.0123 7.67896 36.0463 7.71981C36.0736 7.76067 36.128 7.7811 36.1961 7.7811C36.2234 7.7811 36.2574 7.77429 36.2915 7.76748C36.3255 7.76748 36.3596 7.76067 36.3936 7.75386V8.17605C36.3459 8.18967 36.2915 8.20329 36.2438 8.2101C36.1961 8.22372 36.1348 8.23053 36.0667 8.23053C35.9578 8.23053 35.8693 8.21691 35.7944 8.20329C35.7127 8.18286 35.6514 8.15562 35.5969 8.11477C35.5492 8.07391 35.5084 8.01943 35.4743 7.95134C35.4471 7.89005 35.4335 7.80834 35.4198 7.713C35.3449 7.79472 35.2632 7.86962 35.1815 7.93772C35.0998 8.01262 35.0045 8.07391 34.8955 8.12158C34.7934 8.17605 34.6776 8.21691 34.5482 8.25096C34.4188 8.27819 34.2758 8.29181 34.1124 8.29181C33.9762 8.29181 33.8468 8.27139 33.7175 8.22372C33.5881 8.18286 33.4655 8.11477 33.3634 8.03305C33.2612 7.94453 33.1795 7.83558 33.1182 7.70619C33.0501 7.58362 33.0229 7.43381 33.0229 7.26358C33.0229 7.07972 33.0501 6.9231 33.1182 6.78691C33.1795 6.65072 33.2612 6.54177 33.3566 6.45324C33.4587 6.35791 33.5745 6.29662 33.7038 6.24215C33.8332 6.19448 33.9626 6.16724 34.092 6.14681L35.093 6.02424C35.1883 6.01743 35.2632 5.97658 35.3177 5.91529C35.3722 5.84719 35.3994 5.75186 35.3994 5.60886C35.3994 5.39096 35.3313 5.24115 35.1883 5.14581C35.0453 5.05048 34.8478 5.00281 34.5823 5.00281C34.3099 5.00281 34.1124 5.0641 33.9762 5.17305C33.8468 5.28881 33.7651 5.45905 33.7515 5.69058H33.1795ZM35.3858 6.37153C35.3381 6.40558 35.2768 6.43281 35.2087 6.46005C35.1338 6.48048 35.0521 6.50091 34.9704 6.51453C34.8819 6.53496 34.7866 6.54858 34.6912 6.55539L34.3984 6.59624C34.2895 6.61667 34.1873 6.63029 34.092 6.66434C34.0035 6.69158 33.9217 6.73243 33.8537 6.77329C33.7787 6.82096 33.7311 6.88224 33.6902 6.94353C33.6562 7.01162 33.6357 7.08653 33.6357 7.17505C33.6357 7.27719 33.6494 7.36572 33.6834 7.44743C33.7175 7.52234 33.7583 7.59043 33.8196 7.6381C33.8741 7.69258 33.9422 7.73343 34.0171 7.76067C34.0988 7.78791 34.1873 7.80153 34.2827 7.80153C34.3439 7.80153 34.412 7.79472 34.4869 7.77429C34.5687 7.76067 34.6436 7.74705 34.7253 7.713C34.8138 7.68577 34.8887 7.64491 34.9704 7.60405C35.0453 7.55639 35.1202 7.50191 35.1815 7.44062C35.2428 7.37253 35.2905 7.30443 35.3313 7.21591C35.3654 7.13419 35.3858 7.04567 35.3858 6.94353V6.37153ZM39.2513 5.15262H37.6511V8.18286H37.0382V4.62148H39.2513V5.15262ZM40.4315 5.11177H40.4452C40.486 5.03005 40.5337 4.94834 40.595 4.88024C40.6563 4.80534 40.7312 4.74405 40.8197 4.68277C40.9014 4.6351 40.9967 4.58743 41.1125 4.56019C41.2214 4.52615 41.3508 4.51253 41.4938 4.51253C41.6845 4.51253 41.8684 4.54658 42.0454 4.62148C42.2224 4.69639 42.3723 4.80534 42.5084 4.94834C42.6446 5.09815 42.7536 5.282 42.8285 5.49991C42.9102 5.72462 42.9511 5.97658 42.9511 6.26939C42.9511 6.6371 42.917 6.94353 42.8421 7.20229C42.7672 7.46105 42.6651 7.66534 42.5221 7.82877C42.3859 7.99219 42.2224 8.10796 42.0318 8.18286C41.8343 8.25777 41.6232 8.29181 41.3849 8.29181C41.2691 8.29181 41.1602 8.27819 41.058 8.24415C40.9559 8.21691 40.8605 8.17605 40.7856 8.12158C40.6971 8.07391 40.629 8.01943 40.5745 7.95815C40.5201 7.89686 40.4724 7.83558 40.4452 7.7811H40.4315V9.58562H39.8187V4.62148H40.4315V5.11177ZM40.4179 6.41919C40.4179 6.61667 40.4384 6.78691 40.4724 6.95034C40.5133 7.11377 40.5677 7.25677 40.6494 7.37934C40.7244 7.4951 40.8265 7.59043 40.9491 7.65853C41.0648 7.72662 41.201 7.76067 41.3644 7.76067C41.5347 7.76067 41.6777 7.72662 41.8071 7.65853C41.9296 7.59043 42.025 7.4951 42.1067 7.37934C42.1884 7.25677 42.2429 7.11377 42.2837 6.95034C42.3178 6.78691 42.3382 6.61667 42.3382 6.41919C42.3382 6.21491 42.3178 6.03786 42.2837 5.86762C42.2429 5.69739 42.1884 5.55439 42.1067 5.43181C42.025 5.30924 41.9296 5.21391 41.8071 5.14581C41.6777 5.07772 41.5347 5.04367 41.3644 5.04367C41.201 5.04367 41.0648 5.07772 40.9491 5.14581C40.8265 5.21391 40.7244 5.30924 40.6494 5.43181C40.5677 5.55439 40.5133 5.69739 40.4724 5.86762C40.4384 6.03786 40.4179 6.21491 40.4179 6.41919ZM44.9508 7.52234H44.9644L45.9109 4.62148H46.5851L45.2232 8.32586C45.1551 8.50972 45.0938 8.67315 45.0325 8.80934C44.978 8.94553 44.9235 9.0681 44.8623 9.16343C44.8078 9.25877 44.7533 9.33367 44.6988 9.39496C44.6444 9.45624 44.5763 9.50391 44.515 9.53796C44.4401 9.572 44.372 9.59924 44.2834 9.60605C44.2017 9.61967 44.1064 9.62648 43.9974 9.62648C43.9089 9.62648 43.8408 9.61967 43.7932 9.61286C43.7387 9.60605 43.691 9.59924 43.657 9.58562V9.03405C43.6978 9.04767 43.7523 9.06129 43.8136 9.07491C43.8749 9.08853 43.9498 9.09534 44.0179 9.09534C44.1268 9.09534 44.2222 9.0681 44.2903 9.01362C44.3652 8.95915 44.4128 8.88424 44.4537 8.7821L44.6512 8.27819L43.3301 4.62148H44.0043L44.9508 7.52234ZM48.41 6.12639C48.4917 6.12639 48.5734 6.11277 48.662 6.09234C48.7505 6.07191 48.8322 6.04467 48.9071 5.997C48.982 5.95615 49.0365 5.90167 49.091 5.83358C49.1386 5.76548 49.1591 5.67696 49.1591 5.58162C49.1591 5.51353 49.1454 5.44543 49.1182 5.37734C49.0842 5.31605 49.0365 5.25477 48.982 5.2071C48.9207 5.15262 48.8526 5.11858 48.7573 5.08453C48.6688 5.05729 48.5666 5.04367 48.4509 5.04367C48.3896 5.04367 48.3147 5.05729 48.233 5.07091C48.1444 5.08453 48.0627 5.11858 47.9878 5.16624C47.8993 5.21391 47.8312 5.282 47.7699 5.37053C47.7086 5.45905 47.661 5.57481 47.6474 5.711H47.0754C47.089 5.55439 47.123 5.41139 47.1707 5.28881C47.2184 5.17305 47.2796 5.0641 47.3545 4.97558C47.4294 4.88705 47.5112 4.81215 47.5997 4.75767C47.695 4.69639 47.7904 4.64872 47.8857 4.61467C47.9878 4.57381 48.0832 4.55338 48.1853 4.53296C48.2874 4.51934 48.3828 4.51253 48.4713 4.51253C48.6279 4.51253 48.7845 4.53296 48.9412 4.57381C49.0978 4.61467 49.2408 4.67596 49.3634 4.75767C49.4859 4.83939 49.5813 4.94834 49.6562 5.07091C49.7311 5.20029 49.7719 5.34329 49.7719 5.51353C49.7719 5.62929 49.7515 5.71781 49.7243 5.79953C49.697 5.88805 49.6562 5.95615 49.6017 6.02424C49.554 6.08553 49.4995 6.13319 49.4314 6.18086C49.3702 6.22172 49.3089 6.25577 49.2544 6.28981V6.30343C49.3157 6.31705 49.3838 6.33748 49.4587 6.37153C49.5336 6.40558 49.6017 6.45324 49.6698 6.51453C49.7311 6.58262 49.7855 6.66434 49.8332 6.75967C49.8741 6.86181 49.8945 6.97758 49.8945 7.12058C49.8945 7.32486 49.8468 7.4951 49.7651 7.6381C49.6834 7.78791 49.5676 7.90367 49.4314 8.00581C49.2953 8.10115 49.1386 8.17605 48.9684 8.22372C48.7914 8.27139 48.6211 8.29181 48.4441 8.29181C48.2194 8.29181 48.0151 8.26458 47.8312 8.20329C47.6474 8.14881 47.4907 8.0671 47.3545 7.95815C47.2252 7.856 47.1162 7.72662 47.0413 7.57681C46.9596 7.427 46.9119 7.26358 46.8983 7.08653H47.5112C47.5316 7.21591 47.5656 7.32486 47.6269 7.41339C47.6882 7.4951 47.7563 7.57 47.8448 7.61767C47.9265 7.66534 48.0219 7.70619 48.124 7.72662C48.2262 7.75386 48.3283 7.76067 48.4373 7.76067C48.7164 7.76067 48.9275 7.70619 49.0705 7.59043C49.2135 7.47467 49.2816 7.32486 49.2816 7.13419C49.2816 7.05248 49.268 6.97758 49.2476 6.91629C49.2204 6.855 49.1727 6.79372 49.1182 6.75286C49.0569 6.70519 48.9752 6.67115 48.8799 6.64391C48.7777 6.62348 48.6552 6.61667 48.5122 6.61667H48.4168C48.376 6.61667 48.3419 6.61667 48.3011 6.62348H48.1921L48.0968 6.6371V6.12639H48.41ZM51.2632 7.3521H51.2768L53.0269 4.62148H53.7283V8.18286H53.1086V5.45224H53.095L51.3517 8.18286H50.6504V4.62148H51.2632V7.3521ZM54.4093 4.62148H57.4735V5.15262H56.2478V8.18286H55.635V5.15262H54.4093V4.62148ZM61.1915 7.04567C61.1711 7.20229 61.1166 7.3521 61.0349 7.50191C60.9532 7.65172 60.8443 7.7811 60.7081 7.89686C60.5787 8.01943 60.4221 8.11477 60.245 8.18286C60.0612 8.25777 59.8569 8.29181 59.639 8.29181C59.4006 8.29181 59.1827 8.25096 58.9785 8.17605C58.7742 8.09434 58.5971 7.97858 58.4541 7.81515C58.3043 7.65853 58.1885 7.46105 58.1068 7.22272C58.0183 6.98439 57.9775 6.69839 57.9775 6.37834C57.9775 6.16043 57.9979 5.96296 58.0524 5.78591C58.1 5.60886 58.1613 5.45224 58.243 5.31605C58.3247 5.17986 58.4201 5.05729 58.5222 4.95515C58.6312 4.853 58.7401 4.77129 58.8627 4.70319C58.9785 4.64191 59.101 4.59424 59.2236 4.56019C59.3462 4.52615 59.4687 4.51253 59.5845 4.51253C59.8296 4.51253 60.0475 4.54658 60.2518 4.62148C60.4561 4.69639 60.6264 4.80534 60.7762 4.95515C60.9192 5.10496 61.0281 5.29562 61.1166 5.51353C61.1915 5.74505 61.2324 6.01062 61.2324 6.31024V6.61667H58.6312C58.6312 6.78691 58.6584 6.94353 58.7061 7.08653C58.7469 7.22953 58.815 7.34529 58.9035 7.44743C58.9853 7.54958 59.0942 7.62448 59.2168 7.67896C59.3394 7.73343 59.4755 7.76067 59.6322 7.76067C59.7888 7.76067 59.925 7.74024 60.0339 7.69258C60.1429 7.65172 60.2314 7.59724 60.3063 7.52234C60.3812 7.45424 60.4357 7.37934 60.4834 7.29762C60.531 7.2091 60.5651 7.12739 60.5991 7.04567H61.1915ZM60.6195 6.12639C60.6127 5.95615 60.5855 5.79953 60.5446 5.66334C60.4902 5.52715 60.4221 5.41819 60.3404 5.32286C60.2586 5.23434 60.1497 5.16624 60.0339 5.11177C59.9114 5.0641 59.782 5.04367 59.6322 5.04367C59.496 5.04367 59.3666 5.07091 59.2508 5.12539C59.1283 5.17986 59.0261 5.25477 58.9376 5.3501C58.8491 5.44543 58.781 5.56119 58.7265 5.69058C58.672 5.82677 58.638 5.96977 58.6312 6.12639H60.6195ZM65.4951 4.62148C65.9309 4.62148 66.2509 4.70319 66.4688 4.86662C66.6867 5.03005 66.7889 5.26158 66.7889 5.568C66.7889 5.73143 66.7548 5.87443 66.6731 5.98339C66.5914 6.09915 66.4893 6.19448 66.3599 6.283C66.5437 6.3511 66.6935 6.46005 66.8025 6.58943C66.9183 6.72562 66.9727 6.89586 66.9727 7.10696C66.9727 7.27039 66.9455 7.42019 66.891 7.55639C66.8297 7.68577 66.748 7.80153 66.6391 7.89686C66.5233 7.98539 66.3803 8.05348 66.2101 8.10796C66.033 8.15562 65.8219 8.18286 65.5904 8.18286H63.9765V4.62148H65.4951ZM65.5155 6.12639C65.7198 6.12639 65.8832 6.08553 65.999 6.00381C66.1215 5.9221 66.1828 5.79272 66.1828 5.62248C66.1828 5.52715 66.1624 5.44543 66.1283 5.37734C66.0943 5.31605 66.0534 5.26158 65.999 5.22072C65.9377 5.17986 65.8832 5.15262 65.8083 5.13219C65.7402 5.11858 65.6653 5.11177 65.5972 5.11177H64.5894V6.12639H65.5155ZM65.5155 7.69258C65.6789 7.69258 65.8151 7.67896 65.9241 7.65172C66.033 7.63129 66.1147 7.59724 66.1828 7.54277C66.2441 7.4951 66.2918 7.44062 66.319 7.36572C66.3463 7.29762 66.3599 7.22272 66.3599 7.13419C66.3599 7.04567 66.3463 6.97077 66.319 6.90267C66.2918 6.82777 66.2441 6.77329 66.1828 6.72562C66.1147 6.67796 66.033 6.6371 65.9241 6.61667C65.8151 6.58943 65.6789 6.57581 65.5155 6.57581H64.5894V7.69258H65.5155Z" fill="white"/>
<path d="M35.6753 18.8598L33.5109 13.0145L31.3571 18.8598H35.6732H35.6753ZM28.1335 23.1969L32.6189 11.4456H34.4155L38.9009 23.1969H37.2442L36.1725 20.1802H30.8807L29.809 23.1969H28.1335ZM41.9468 21.8765V26.5499H40.4991V14.3829H41.9468V15.7136C42.2518 15.1893 42.6362 14.8028 43.1 14.5521C43.5701 14.293 44.1237 14.1656 44.7671 14.1656C45.8389 14.1656 46.7079 14.5918 47.3764 15.4462C48.0512 16.2923 48.3876 17.4121 48.3876 18.8014C48.3876 20.1906 48.0512 21.2999 47.3764 22.1565C46.7079 23.0026 45.8389 23.4267 44.7671 23.4267C44.1258 23.4267 43.5722 23.3034 43.1 23.0506C42.6362 22.7916 42.2539 22.3988 41.9468 21.8786V21.8765ZM46.8771 18.7993C46.8771 17.7338 46.6557 16.8982 46.2128 16.2902C45.7824 15.6823 45.185 15.3773 44.4162 15.3773C43.6474 15.3773 43.0415 15.6823 42.5986 16.2902C42.162 16.8982 41.9426 17.7338 41.9426 18.7993C41.9426 19.8647 42.162 20.7004 42.5986 21.3083C43.0415 21.91 43.6474 22.2129 44.4162 22.2129C45.185 22.2129 45.7824 21.91 46.2128 21.3083C46.6557 20.7004 46.8771 19.8647 46.8771 18.7993ZM52.1877 21.8765V26.5499H50.7295V14.3829H52.1877V15.7136C52.4927 15.1893 52.8729 14.8028 53.3304 14.5521C53.8005 14.293 54.3583 14.1656 55.0059 14.1656C56.0714 14.1656 56.9384 14.5918 57.6069 15.4462C58.2817 16.2923 58.618 17.4121 58.618 18.8014C58.618 20.1906 58.2817 21.2999 57.6069 22.1565C56.9384 23.0026 56.0714 23.4267 55.0059 23.4267C54.3583 23.4267 53.8005 23.3034 53.3304 23.0506C52.8729 22.7916 52.4906 22.3988 52.1877 21.8786V21.8765ZM57.1097 18.7993C57.1097 17.7338 56.8882 16.8982 56.4453 16.2902C56.015 15.6823 55.4175 15.3773 54.6487 15.3773C53.8799 15.3773 53.274 15.6823 52.8311 16.2902C52.4008 16.8982 52.1856 17.7338 52.1856 18.7993C52.1856 19.8647 52.4008 20.7004 52.8311 21.3083C53.274 21.91 53.8799 22.2129 54.6487 22.2129C55.4175 22.2129 56.015 21.91 56.4453 21.3083C56.8882 20.7004 57.1097 19.8647 57.1097 18.7993ZM69.0386 21.5193V18.3647H66.448V17.0549H70.6158V22.1063C70.0016 22.543 69.3227 22.8731 68.581 23.0966C67.8457 23.3159 67.0602 23.4225 66.2203 23.4225C64.3798 23.4225 62.9425 22.8856 61.9042 21.8139C60.8722 20.7421 60.3562 19.2484 60.3562 17.3285C60.3562 15.4086 60.8743 13.9149 61.9042 12.8432C62.9425 11.7652 64.384 11.2241 66.2203 11.2241C66.987 11.2241 67.712 11.3223 68.393 11.5124C69.0887 11.6963 69.7259 11.9762 70.3087 12.346V14.0423C69.7217 13.5389 69.097 13.1628 68.4348 12.91C67.7725 12.6573 67.0769 12.534 66.3519 12.534C64.9167 12.534 63.8366 12.933 63.1075 13.7331C62.3931 14.5396 62.0358 15.7387 62.0358 17.3243C62.0358 18.91 62.391 20.105 63.1075 20.9051C63.8366 21.7052 64.9188 22.1043 66.3519 22.1043C66.9139 22.1043 67.4174 22.0562 67.8603 21.9664C68.2969 21.8724 68.6897 21.7219 69.0386 21.5172V21.5193ZM78.8533 18.7575H77.4159C76.2439 18.7575 75.4334 18.8912 74.9842 19.1649C74.535 19.4302 74.3094 19.8877 74.3094 20.5353C74.3094 21.0534 74.4765 21.4629 74.8171 21.7658C75.1534 22.0646 75.613 22.2129 76.198 22.2129C77.0044 22.2129 77.6499 21.9267 78.1325 21.3605C78.6172 20.7923 78.8574 20.0339 78.8574 19.0855V18.7596H78.8533V18.7575ZM80.301 18.1621V23.1948H78.8533V21.8536C78.5232 22.3905 78.1116 22.7874 77.6228 23.0465C77.1255 23.2992 76.5218 23.4225 75.8052 23.4225C74.9048 23.4225 74.1861 23.1697 73.6513 22.6662C73.1207 22.1565 72.8596 21.4733 72.8596 20.621C72.8596 19.637 73.1896 18.887 73.8498 18.3773C74.5183 17.8738 75.5086 17.621 76.8268 17.621H78.8533V17.4831C78.8533 16.8146 78.6339 16.2965 78.1973 15.9351C77.7606 15.5716 77.1464 15.3919 76.3526 15.3919C75.8491 15.3919 75.3623 15.4525 74.8839 15.5695C74.4076 15.6865 73.9459 15.8724 73.503 16.1127V14.7714C74.0336 14.5667 74.5476 14.4163 75.051 14.3139C75.5483 14.2074 76.0288 14.1552 76.4988 14.1552C77.7753 14.1552 78.73 14.4852 79.3567 15.1454C79.9855 15.8139 80.2968 16.8146 80.2968 18.1579L80.301 18.1621ZM83.2864 23.1948V10.9504H84.7341V23.1948H83.2864ZM87.7633 23.1948V10.9504H89.2111V23.1948H87.7633ZM99.7382 18.4211V19.1356H93.0802C93.1408 20.1259 93.4353 20.8884 93.9743 21.4169C94.5154 21.935 95.2675 22.1899 96.2285 22.1899C96.7821 22.1899 97.3211 22.1231 97.8371 21.9914C98.3677 21.8536 98.8858 21.6488 99.3956 21.3772V22.7477C98.8775 22.9671 98.3468 23.1342 97.7974 23.2554C97.2563 23.3661 96.7027 23.4225 96.1407 23.4225C94.7368 23.4225 93.6254 23.013 92.794 22.192C91.975 21.3793 91.5635 20.2742 91.5635 18.8766C91.5635 17.4789 91.9541 16.284 92.7355 15.4441C93.5147 14.5918 94.5697 14.1635 95.89 14.1635C97.0767 14.1635 98.0105 14.5458 98.6978 15.3167C99.3893 16.0751 99.7361 17.1113 99.7361 18.4211H99.7382ZM93.1199 18.0054H98.2904C98.2779 17.2136 98.0523 16.5785 97.6157 16.1001C97.1853 15.6301 96.615 15.394 95.8984 15.394C95.092 15.394 94.4444 15.6217 93.9534 16.0792C93.4687 16.5367 93.1951 17.1781 93.1199 18.0033V18.0054ZM107.161 14.2429L107.171 15.7303C107.006 15.6363 106.829 15.5695 106.634 15.5214C106.44 15.4734 106.235 15.4504 106.01 15.4504C105.191 15.4504 104.558 15.7199 104.115 16.2526C103.678 16.7833 103.459 17.5458 103.459 18.5444V23.1906H102.011V14.3787H103.459V15.7492C103.764 15.2123 104.161 14.8153 104.652 14.5563C105.143 14.2909 105.734 14.1593 106.43 14.1593C106.53 14.1593 106.641 14.1698 106.766 14.1886C106.883 14.1948 107.019 14.2116 107.163 14.2387L107.161 14.2429ZM116.232 14.3808L112.363 24.0074C111.953 25.0583 111.552 25.7477 111.164 26.0694C110.773 26.389 110.253 26.5457 109.605 26.5457H108.444V25.3361H109.296C109.693 25.3361 110.004 25.2379 110.23 25.0478C110.449 24.864 110.689 24.4169 110.955 23.7066L111.224 23.0506L107.65 14.3766H109.187L111.945 21.2623L114.692 14.3766H116.23L116.232 14.3808Z" fill="white"/>
</svg>
