<svg xmlns="http://www.w3.org/2000/svg" width="102" height="27" fill="none"><path fill="#fff" d="M15.171 13.913c.01-.819.227-1.622.63-2.334a4.84 4.84 0 0 1 1.67-1.739 4.927 4.927 0 0 0-3.896-2.116c-1.64-.173-3.228.986-4.064.986-.851 0-2.137-.969-3.522-.94-.896.029-1.77.29-2.535.76a5.2 5.2 0 0 0-1.832 1.915c-1.888 3.285-.48 8.112 1.329 10.767.905 1.3 1.962 2.752 3.346 2.7 1.354-.056 1.86-.867 3.494-.867 1.62 0 2.094.867 3.506.834 1.453-.023 2.368-1.305 3.241-2.618.65-.926 1.15-1.95 1.483-3.033a4.67 4.67 0 0 1-2.072-1.727 4.7 4.7 0 0 1-.778-2.588M12.504 5.98a4.8 4.8 0 0 0 1.088-3.424 4.83 4.83 0 0 0-3.131 1.628A4.55 4.55 0 0 0 9.344 7.48a3.99 3.99 0 0 0 3.16-1.501M35.822 20.62H31.2l-1.11 3.293h-1.957l4.377-12.18h2.033l4.377 12.18h-1.99zm-4.143-1.518h3.663l-1.806-5.343h-.05zM48.373 19.472c0 2.76-1.47 4.533-3.688 4.533-.562.03-1.121-.1-1.613-.375a3 3 0 0 1-1.168-1.179h-.042v4.399h-1.814V15.03h1.756v1.478h.033a3.124 3.124 0 0 1 2.814-1.57c2.244 0 3.722 1.781 3.722 4.533m-1.864 0c0-1.798-.925-2.98-2.336-2.98-1.386 0-2.319 1.207-2.319 2.98 0 1.79.933 2.988 2.319 2.988 1.41 0 2.335-1.174 2.335-2.988M58.102 19.472c0 2.76-1.47 4.533-3.689 4.533-.562.03-1.12-.1-1.613-.375a3 3 0 0 1-1.168-1.179h-.042v4.399h-1.814V15.03h1.756v1.478h.033c.284-.493.696-.9 1.192-1.176a3.1 3.1 0 0 1 1.623-.395c2.243 0 3.721 1.782 3.721 4.534m-1.865 0c0-1.798-.925-2.98-2.336-2.98-1.386 0-2.318 1.207-2.318 2.98 0 1.79.932 2.988 2.318 2.988 1.411 0 2.336-1.174 2.336-2.988M64.53 20.52c.135 1.208 1.303 2 2.899 2 1.529 0 2.629-.792 2.629-1.881 0-.946-.664-1.512-2.235-1.9l-1.57-.38c-2.227-.54-3.26-1.587-3.26-3.284 0-2.101 1.823-3.545 4.41-3.545 2.563 0 4.319 1.444 4.378 3.545h-1.832c-.11-1.215-1.11-1.95-2.57-1.95-1.462 0-2.462.743-2.462 1.824 0 .86.638 1.368 2.2 1.755l1.337.33c2.487.591 3.52 1.595 3.52 3.377 0 2.278-1.806 3.706-4.68 3.706-2.688 0-4.503-1.394-4.62-3.597zM75.89 12.933v2.102h1.68v1.444h-1.68v4.895c0 .76.337 1.115 1.076 1.115q.3-.004.596-.042v1.435q-.5.093-1.007.084c-1.79 0-2.488-.675-2.488-2.397v-5.09h-1.285v-1.444h1.285v-2.102zM78.545 19.475c0-2.794 1.638-4.55 4.192-4.55 2.562 0 4.192 1.756 4.192 4.55 0 2.802-1.621 4.55-4.192 4.55-2.57 0-4.192-1.748-4.192-4.55m6.536 0c0-1.916-.874-3.048-2.344-3.048s-2.344 1.14-2.344 3.048c0 1.925.873 3.047 2.344 3.047s2.344-1.122 2.344-3.047M88.425 15.031h1.73v1.512h.042c.117-.472.393-.89.78-1.182a2.1 2.1 0 0 1 1.346-.423q.316 0 .622.068v1.706a2.5 2.5 0 0 0-.815-.11 1.82 1.82 0 0 0-1.413.584 1.84 1.84 0 0 0-.478 1.459v5.267h-1.814zM101.309 21.307c-.244 1.612-1.806 2.718-3.805 2.718-2.572 0-4.168-1.73-4.168-4.507 0-2.786 1.605-4.593 4.091-4.593 2.446 0 3.983 1.688 3.983 4.38v.625h-6.242v.11a2.32 2.32 0 0 0 .624 1.797 2.3 2.3 0 0 0 1.754.719c.428.04.858-.06 1.226-.285s.654-.563.815-.964zm-6.133-2.65h4.42A2.15 2.15 0 0 0 99 17.052a2.13 2.13 0 0 0-1.574-.65 2.23 2.23 0 0 0-1.593.655 2.25 2.25 0 0 0-.658 1.598M29.886 4.034h.881q.21 0 .363-.063a.8.8 0 0 0 .252-.173.799.799 0 0 0 .196-.519.8.8 0 0 0-.09-.389.7.7 0 0 0-.245-.26 1.1 1.1 0 0 0-.373-.149 2.2 2.2 0 0 0-.465-.047q-.316 0-.559.09-.24.087-.402.236a.94.94 0 0 0-.31.755h-.614q0-.312.073-.559.075-.246.21-.428.132-.183.312-.31.18-.126.389-.206.212-.079.445-.113a3 3 0 0 1 .476-.036q.392 0 .715.086.325.083.558.253.233.165.363.419.13.249.13.582 0 .378-.15.641-.146.26-.51.393v.016q.19.054.347.156.16.1.272.253.117.15.18.356.066.206.066.472 0 .373-.163.655a1.45 1.45 0 0 1-.435.472q-.273.19-.635.283-.36.096-.752.096-.419 0-.781-.08a1.9 1.9 0 0 1-.638-.256 1.36 1.36 0 0 1-.44-.472 1.65 1.65 0 0 1-.189-.724h.642q.017.21.096.385.084.177.243.306.163.125.409.2.25.07.599.07.315 0 .571-.054a1.3 1.3 0 0 0 .44-.17.8.8 0 0 0 .279-.299.93.93 0 0 0 .1-.445 1 1 0 0 0-.064-.353.7.7 0 0 0-.186-.276.9.9 0 0 0-.316-.18 1.4 1.4 0 0 0-.449-.066h-.841zm3.293.346q.01-.326.123-.549a1 1 0 0 1 .306-.366q.193-.14.456-.2a2.5 2.5 0 0 1 1.08-.01q.247.054.436.174.189.116.303.306a.84.84 0 0 1 .116.455v2.071q0 .087.046.15.047.06.15.06a.7.7 0 0 0 .2-.027v.423l-.153.036a1.253 1.253 0 0 1-.452-.01.5.5 0 0 1-.193-.086.4.4 0 0 1-.12-.16.8.8 0 0 1-.057-.243 3 3 0 0 1-.239.23q-.126.103-.283.183-.156.075-.349.12a2 2 0 0 1-.435.046q-.207 0-.403-.066a1.1 1.1 0 0 1-.349-.197 1 1 0 0 1-.246-.319 1 1 0 0 1-.093-.445q0-.276.093-.476a1 1 0 0 1 .243-.336q.15-.135.342-.21.193-.072.393-.096l1-.123a.33.33 0 0 0 .223-.11q.084-.096.083-.305 0-.323-.212-.462-.21-.144-.605-.143-.406 0-.606.173-.2.169-.226.512zm2.208.681a.7.7 0 0 1-.183.09q-.106.033-.236.056-.129.024-.276.044-.146.016-.292.036-.166.024-.306.067a1 1 0 0 0-.243.113.5.5 0 0 0-.16.17.45.45 0 0 0-.056.229q0 .153.046.27a.6.6 0 0 0 .133.195.6.6 0 0 0 .207.12q.12.04.262.04a1.2 1.2 0 0 0 .446-.087q.123-.042.24-.11a1 1 0 0 0 .212-.165.8.8 0 0 0 .15-.22.65.65 0 0 0 .056-.276zm1.658-1.749h2.21v.532h-1.599v3.03h-.611zm2.78 0h.613v.489h.013q.06-.123.15-.233a1 1 0 0 1 .219-.19q.13-.083.296-.129a1.5 1.5 0 0 1 .386-.046q.285 0 .548.11.262.108.466.328a1.6 1.6 0 0 1 .322.552q.12.33.12.768 0 .55-.113.935a1.7 1.7 0 0 1-.316.625q-.203.244-.492.352-.29.11-.645.11-.176 0-.33-.047a1.3 1.3 0 0 1-.275-.12 1 1 0 0 1-.206-.165.8.8 0 0 1-.13-.18h-.013v1.805h-.612zm.6 1.8q0 .288.056.534.056.243.173.423.12.18.296.282.18.1.422.1a.9.9 0 0 0 .435-.1.9.9 0 0 0 .306-.282q.12-.18.177-.423.056-.246.056-.535 0-.303-.056-.555a1.3 1.3 0 0 0-.177-.436.83.83 0 0 0-.306-.282.9.9 0 0 0-.435-.103.83.83 0 0 0-.422.103.86.86 0 0 0-.296.282 1.4 1.4 0 0 0-.173.436 2.6 2.6 0 0 0-.057.555m2.92-1.8h.672l.947 2.9h.014l.947-2.9h.672l-1.36 3.704q-.103.279-.19.486a3 3 0 0 1-.169.349 1.2 1.2 0 0 1-.17.236.6.6 0 0 1-.186.14.7.7 0 0 1-.226.07 1.8 1.8 0 0 1-.495.006 1 1 0 0 1-.13-.027v-.552q.06.02.156.04a1 1 0 0 0 .203.02.42.42 0 0 0 .273-.083.5.5 0 0 0 .163-.23l.2-.501zm4.767 1.503h.309q.123 0 .256-.03a.9.9 0 0 0 .242-.093.6.6 0 0 0 .18-.17.461.461 0 0 0 .027-.452.45.45 0 0 0-.133-.173.6.6 0 0 0-.22-.12 1 1 0 0 0-.529-.016.8.8 0 0 0-.249.1.7.7 0 0 0-.216.203.73.73 0 0 0-.12.339h-.572q.024-.24.097-.42.074-.181.183-.315.11-.133.246-.223a1.4 1.4 0 0 1 .585-.22q.15-.022.286-.022.24 0 .472.063.233.06.416.186a.96.96 0 0 1 .299.312.85.85 0 0 1 .113.443.761.761 0 0 1-.17.505.8.8 0 0 1-.166.16 1.4 1.4 0 0 1-.183.106v.017a.84.84 0 0 1 .416.216.7.7 0 0 1 .16.243.9.9 0 0 1 .066.359q0 .3-.13.518a1.14 1.14 0 0 1-.332.366 1.5 1.5 0 0 1-.466.213 2.052 2.052 0 0 1-1.137-.013 1.5 1.5 0 0 1-.472-.246 1.2 1.2 0 0 1-.32-.383 1.3 1.3 0 0 1-.139-.492h.615q.023.196.113.326t.216.206a.9.9 0 0 0 .28.11q.157.033.316.033.422 0 .631-.17a.55.55 0 0 0 .213-.455.6.6 0 0 0-.04-.22.36.36 0 0 0-.126-.162.6.6 0 0 0-.24-.104 1.5 1.5 0 0 0-.465-.033 2 2 0 0 0-.216.014l-.096.006zm2.551-1.503h.612v2.73h.013l1.75-2.73h.7v3.561h-.614v-2.73h-.014l-1.745 2.73h-.702zm4.993.532h-1.227v-.532h3.065v.532h-1.227v3.03h-.611zm5.557 1.892a1.4 1.4 0 0 1-.16.456q-.122.222-.322.399-.2.176-.472.282-.27.11-.598.11-.36 0-.665-.116a1.44 1.44 0 0 1-.526-.356 1.7 1.7 0 0 1-.346-.599 2.6 2.6 0 0 1-.126-.844q0-.326.07-.589.073-.265.193-.472.123-.21.282-.359a1.6 1.6 0 0 1 .702-.396q.186-.05.359-.05.366 0 .668.11t.519.336q.22.223.34.562a2.3 2.3 0 0 1 .122.791v.306H58.65q.003.26.073.472.07.21.2.36.129.15.312.232.186.08.419.08.236 0 .399-.066.163-.067.273-.17a.9.9 0 0 0 .176-.23q.07-.126.116-.249zm-.575-.918a1.5 1.5 0 0 0-.08-.462.9.9 0 0 0-.2-.339.8.8 0 0 0-.305-.21 1 1 0 0 0-.4-.072.935.935 0 0 0-.695.31q-.132.141-.212.341a1.4 1.4 0 0 0-.096.432zm3.365-1.506h1.516q.652 0 .974.243.326.243.326.705 0 .246-.12.415a1.2 1.2 0 0 1-.316.3q.284.106.45.306.165.199.166.515 0 .25-.084.449a.87.87 0 0 1-.252.339 1.2 1.2 0 0 1-.432.216 2.3 2.3 0 0 1-.616.073h-1.612zm.612 3.073h.93q.243 0 .403-.037a.7.7 0 0 0 .26-.113.4.4 0 0 0 .136-.176.6.6 0 0 0 .04-.233.6.6 0 0 0-.04-.233.4.4 0 0 0-.137-.176.7.7 0 0 0-.26-.11 1.7 1.7 0 0 0-.401-.04h-.931zm0-1.567h.924q.309 0 .489-.123t.18-.382a.5.5 0 0 0-.05-.243.4.4 0 0 0-.134-.16.5.5 0 0 0-.19-.082.9.9 0 0 0-.212-.027h-1.007z"/></svg>