<svg width="102" height="27" viewBox="0 0 102 27" fill="none" xmlns="http://www.w3.org/2000/svg">
<path d="M15.171 13.913C15.1815 13.0943 15.3979 12.2915 15.8001 11.5795C16.2024 10.8674 16.7773 10.2691 17.4715 9.84031C17.0305 9.20748 16.4487 8.6867 15.7724 8.31931C15.096 7.95192 14.3437 7.74805 13.5752 7.72389C11.9359 7.551 10.3466 8.7095 9.51126 8.7095C8.65972 8.7095 7.37353 7.74105 5.98852 7.76969C5.09266 7.79877 4.21957 8.06052 3.45432 8.52943C2.68907 8.99835 2.05776 9.65844 1.62191 10.4454C-0.266128 13.7298 1.14218 18.5567 2.95076 21.2116C3.85563 22.5116 4.91316 23.9637 6.29692 23.9122C7.65102 23.8558 8.15674 23.0446 9.79125 23.0446C11.4106 23.0446 11.8851 23.9122 13.2969 23.8795C14.7499 23.8558 15.6654 22.5737 16.5385 21.2614C17.1886 20.3351 17.6889 19.3113 18.0208 18.228C17.1767 17.8693 16.4563 17.2688 15.9495 16.5015C15.4427 15.7341 15.172 14.8339 15.171 13.913Z" fill="white"/>
<path d="M12.5039 5.97953C13.2961 5.02395 13.6864 3.79572 13.5919 2.55566C12.3815 2.68339 11.2635 3.26462 10.4606 4.18354C10.068 4.63245 9.76729 5.1547 9.57571 5.72044C9.38413 6.28618 9.3054 6.88431 9.34403 7.48064C9.94943 7.48691 10.5484 7.35506 11.0957 7.09505C11.643 6.83503 12.1245 6.45361 12.5039 5.97953Z" fill="white"/>
<path d="M35.8216 20.6209H31.2007L30.091 23.9132H28.1338L32.5106 11.7327H34.5441L38.921 23.9132H36.9304L35.8216 20.6209ZM31.6793 19.1017H35.3421L33.5365 13.7586H33.4859L31.6793 19.1017Z" fill="white"/>
<path d="M48.3733 19.4722C48.3733 22.2319 46.9032 24.0049 44.6847 24.0049C44.1228 24.0345 43.5639 23.9044 43.0721 23.6296C42.5802 23.3548 42.1754 22.9465 41.9038 22.4512H41.8618V26.8498H40.0476V15.0314H41.8037V16.5085H41.8371C42.1211 16.0157 42.5328 15.6094 43.0284 15.3329C43.524 15.0565 44.0848 14.9202 44.6514 14.9385C46.8946 14.9385 48.3733 16.7202 48.3733 19.4722ZM46.5085 19.4722C46.5085 17.6743 45.5838 16.4922 44.1728 16.4922C42.7866 16.4922 41.8542 17.6992 41.8542 19.4722C41.8542 21.2615 42.7866 22.4599 44.1728 22.4599C45.5838 22.4599 46.5085 21.2865 46.5085 19.4722Z" fill="white"/>
<path d="M58.1015 19.4722C58.1015 22.2319 56.6315 24.0049 54.413 24.0049C53.851 24.0345 53.2922 23.9044 52.8003 23.6296C52.3085 23.3548 51.9036 22.9464 51.6321 22.4512H51.5901V26.8498H49.7759V15.0314H51.5319V16.5085H51.5653C51.8494 16.0156 52.2611 15.6094 52.7566 15.3329C53.2522 15.0565 53.8131 14.9202 54.3796 14.9385C56.6229 14.9385 58.1015 16.7202 58.1015 19.4722ZM56.2368 19.4722C56.2368 17.6743 55.312 16.4922 53.9011 16.4922C52.5149 16.4922 51.5825 17.6992 51.5825 19.4722C51.5825 21.2615 52.5149 22.4599 53.9011 22.4599C55.312 22.4599 56.2368 21.2864 56.2368 19.4722H56.2368Z" fill="white"/>
<path d="M64.5305 20.5198C64.6649 21.7277 65.8328 22.5208 67.4287 22.5208C68.9579 22.5208 70.058 21.7277 70.058 20.6386C70.058 19.6931 69.3945 19.1271 67.8234 18.7391L66.2523 18.3588C64.0262 17.8186 62.9927 16.7725 62.9927 15.0752C62.9927 12.9736 64.8156 11.53 67.4039 11.53C69.9655 11.53 71.7216 12.9736 71.7808 15.0752H69.9493C69.8397 13.8596 68.8396 13.1259 67.3781 13.1259C65.9167 13.1259 64.9166 13.8682 64.9166 14.9487C64.9166 15.8099 65.5553 16.3166 67.1179 16.7045L68.4535 17.034C70.9408 17.625 71.9743 18.6289 71.9743 20.4106C71.9743 22.6894 70.1676 24.1166 67.2942 24.1166C64.6058 24.1166 62.7906 22.7229 62.6733 20.5198L64.5305 20.5198Z" fill="white"/>
<path d="M75.8902 12.9333V15.035H77.5709V16.4785H75.8902V21.3742C75.8902 22.1348 76.2267 22.4892 76.9655 22.4892C77.1651 22.4857 77.3643 22.4717 77.5623 22.4471V23.882C77.2302 23.9443 76.8925 23.9726 76.5546 23.9663C74.7652 23.9663 74.0673 23.2909 74.0673 21.5687V16.4785H72.7822V15.035H74.0673V12.9333H75.8902Z" fill="white"/>
<path d="M78.5447 19.4754C78.5447 16.6812 80.1825 14.9254 82.7366 14.9254C85.2992 14.9254 86.9294 16.6812 86.9294 19.4754C86.9294 22.2772 85.3078 24.0253 82.7366 24.0253C80.1663 24.0253 78.5447 22.2772 78.5447 19.4754ZM85.0809 19.4754C85.0809 17.5586 84.2066 16.4274 82.7366 16.4274C81.2665 16.4274 80.3932 17.5673 80.3932 19.4754C80.3932 21.3998 81.2665 22.5224 82.7366 22.5224C84.2066 22.5224 85.0808 21.3998 85.0808 19.4754H85.0809Z" fill="white"/>
<path d="M88.4251 15.0314H90.1554V16.5429H90.1974C90.3144 16.0708 90.5897 15.6536 90.9769 15.3614C91.364 15.0692 91.8395 14.9199 92.3234 14.9384C92.5324 14.9377 92.7409 14.9605 92.9449 15.0064V16.7115C92.681 16.6304 92.4057 16.5932 92.1298 16.6013C91.8662 16.5906 91.6035 16.6373 91.3596 16.7382C91.1157 16.8391 90.8964 16.9919 90.7168 17.186C90.5372 17.3801 90.4015 17.6109 90.3191 17.8627C90.2367 18.1145 90.2094 18.3812 90.2393 18.6445V23.9119H88.425L88.4251 15.0314Z" fill="white"/>
<path d="M101.309 21.3069C101.065 22.919 99.5027 24.0253 97.5035 24.0253C94.9323 24.0253 93.3364 22.2944 93.3364 19.5175C93.3364 16.732 94.9409 14.9254 97.4273 14.9254C99.8726 14.9254 101.41 16.6132 101.41 19.3058V19.9304H95.1678V20.0405C95.139 20.3674 95.1797 20.6966 95.2873 21.0064C95.3949 21.3162 95.5668 21.5995 95.7917 21.8374C96.0166 22.0753 96.2892 22.2624 96.5916 22.3863C96.894 22.5102 97.2192 22.568 97.5455 22.5559C97.9742 22.5963 98.4045 22.4965 98.7722 22.2715C99.14 22.0464 99.4256 21.7081 99.5866 21.3068L101.309 21.3069ZM95.1764 18.6564H99.5952C99.6115 18.3625 99.5671 18.0684 99.4649 17.7926C99.3628 17.5168 99.2049 17.2651 99.0014 17.0535C98.7978 16.8419 98.5529 16.6748 98.282 16.5628C98.0111 16.4507 97.7201 16.3962 97.4273 16.4025C97.1318 16.4007 96.839 16.4577 96.5656 16.5703C96.2922 16.6828 96.0437 16.8487 95.8344 17.0582C95.6252 17.2678 95.4593 17.5169 95.3463 17.7912C95.2334 18.0655 95.1756 18.3595 95.1764 18.6564V18.6564Z" fill="white"/>
<path d="M29.886 4.03377H30.7672C30.9068 4.03377 31.0276 4.01271 31.1296 3.9706C31.2315 3.92627 31.3158 3.86863 31.3823 3.7977C31.4488 3.72455 31.4975 3.64364 31.5286 3.55498C31.5618 3.4641 31.5785 3.37211 31.5785 3.27901C31.5785 3.12606 31.5485 2.99638 31.4887 2.88999C31.4288 2.78359 31.3468 2.69714 31.2426 2.63064C31.1384 2.56192 31.0143 2.51205 30.8702 2.48102C30.7284 2.44998 30.5732 2.43447 30.4047 2.43447C30.1942 2.43447 30.008 2.46439 29.8461 2.52424C29.6865 2.58187 29.5524 2.66056 29.4438 2.76031C29.3374 2.85784 29.2576 2.972 29.2044 3.10278C29.1534 3.23357 29.1302 3.371 29.1346 3.51508H28.5195C28.5195 3.30671 28.5439 3.12052 28.5926 2.95648C28.6436 2.79245 28.7134 2.64948 28.8021 2.52756C28.8908 2.40565 28.995 2.30258 29.1147 2.21834C29.2344 2.13411 29.364 2.06539 29.5037 2.0122C29.6455 1.959 29.7941 1.92131 29.9492 1.89915C30.1066 1.87476 30.2651 1.86257 30.4247 1.86257C30.6863 1.86257 30.9245 1.89139 31.1396 1.94902C31.3568 2.00444 31.543 2.08867 31.6981 2.20172C31.8533 2.31255 31.9741 2.4522 32.0606 2.62066C32.147 2.78691 32.1902 2.98087 32.1902 3.20253C32.1902 3.45523 32.1404 3.66914 32.0406 3.84425C31.9431 4.01715 31.7735 4.14793 31.5319 4.2366V4.25322C31.6582 4.28869 31.7735 4.34078 31.8777 4.40949C31.9841 4.47599 32.075 4.56023 32.1503 4.66219C32.2279 4.76194 32.2878 4.88053 32.3299 5.01796C32.3742 5.15539 32.3964 5.31278 32.3964 5.49011C32.3964 5.73837 32.3421 5.95671 32.2335 6.14512C32.1249 6.33354 31.9797 6.49092 31.7979 6.61727C31.6161 6.74362 31.4044 6.83782 31.1628 6.89989C30.9234 6.96417 30.673 6.99631 30.4114 6.99631C30.1321 6.99631 29.8716 6.96971 29.63 6.91652C29.3884 6.86553 29.1756 6.78019 28.9916 6.66049C28.8099 6.54079 28.6636 6.38341 28.5527 6.18835C28.4419 5.99107 28.3787 5.74945 28.3632 5.46351H29.0049C29.016 5.60316 29.0482 5.73172 29.1014 5.8492C29.1568 5.96668 29.2377 6.06865 29.3441 6.1551C29.4527 6.23933 29.589 6.30583 29.753 6.3546C29.9193 6.40115 30.1188 6.42442 30.3515 6.42442C30.5621 6.42442 30.7528 6.40669 30.9234 6.37122C31.0963 6.33576 31.2426 6.27923 31.3623 6.20165C31.4842 6.12407 31.5773 6.02432 31.6416 5.9024C31.7081 5.77827 31.7414 5.62975 31.7414 5.45686C31.7414 5.32829 31.7203 5.21081 31.6782 5.10441C31.6383 4.99801 31.5762 4.90602 31.492 4.82844C31.4078 4.75086 31.3025 4.69101 31.1761 4.64889C31.0498 4.60456 30.9002 4.58239 30.7273 4.58239H29.886V4.03377ZM33.1794 4.37957C33.186 4.16234 33.227 3.97947 33.3024 3.83095C33.3777 3.68022 33.4797 3.5583 33.6083 3.4652C33.7368 3.37211 33.8887 3.30561 34.0638 3.26571C34.2411 3.22359 34.434 3.20253 34.6423 3.20253C34.8152 3.20253 34.9826 3.22027 35.1444 3.25573C35.3084 3.2912 35.4536 3.34883 35.58 3.42863C35.7063 3.50621 35.8072 3.60818 35.8825 3.73453C35.9601 3.85866 35.9989 4.0105 35.9989 4.19005V6.2615C35.9989 6.31913 36.0144 6.36901 36.0455 6.41112C36.0765 6.45102 36.1264 6.47097 36.1951 6.47097C36.2261 6.47097 36.2583 6.46875 36.2915 6.46432C36.3248 6.45767 36.3591 6.45102 36.3946 6.44437V6.86664C36.3436 6.87994 36.2926 6.89213 36.2416 6.90322C36.1929 6.9143 36.1341 6.91984 36.0654 6.91984C35.959 6.91984 35.867 6.91097 35.7894 6.89324C35.7141 6.87551 35.6498 6.84669 35.5966 6.80679C35.5456 6.76468 35.5057 6.71148 35.4769 6.64719C35.4481 6.58069 35.4292 6.49979 35.4204 6.40447C35.345 6.48649 35.2652 6.56296 35.181 6.63389C35.0967 6.70261 35.0025 6.76357 34.8984 6.81677C34.7942 6.86775 34.6778 6.90765 34.5492 6.93647C34.4207 6.9675 34.2755 6.98301 34.1137 6.98301C33.9762 6.98301 33.8421 6.96085 33.7113 6.91652C33.5828 6.87218 33.4664 6.80679 33.3622 6.72034C33.2603 6.63389 33.1782 6.52749 33.1162 6.40115C33.0541 6.27258 33.0231 6.12407 33.0231 5.9556C33.0231 5.77162 33.0541 5.61313 33.1162 5.48013C33.1782 5.34492 33.2592 5.23298 33.3589 5.14431C33.4587 5.05343 33.5728 4.9836 33.7014 4.93484C33.8299 4.88607 33.9607 4.85393 34.0937 4.83841L35.0945 4.71539C35.1898 4.70431 35.2641 4.66773 35.3173 4.60567C35.3727 4.54138 35.4004 4.43942 35.4004 4.29977C35.4004 4.08476 35.3295 3.9307 35.1876 3.8376C35.048 3.74228 34.8463 3.69463 34.5825 3.69463C34.3121 3.69463 34.1103 3.75226 33.9773 3.86752C33.8443 3.98057 33.769 4.15125 33.7512 4.37957H33.1794ZM35.3871 5.06119C35.3384 5.09665 35.2774 5.12658 35.2043 5.15096C35.1333 5.17313 35.0546 5.19197 34.9682 5.20748C34.8817 5.223 34.7897 5.23741 34.6922 5.25071C34.5947 5.26179 34.4971 5.27398 34.3996 5.28728C34.2888 5.3028 34.1868 5.32497 34.0937 5.35378C34.0006 5.3826 33.9197 5.42028 33.851 5.46683C33.7823 5.51338 33.7291 5.56991 33.6914 5.6364C33.6537 5.70069 33.6349 5.77716 33.6349 5.86583C33.6349 5.96779 33.6504 6.05757 33.6814 6.13515C33.7147 6.21273 33.759 6.27812 33.8144 6.33132C33.8721 6.38452 33.9408 6.42442 34.0206 6.45102C34.1004 6.47762 34.1879 6.49092 34.2832 6.49092C34.3431 6.49092 34.4118 6.48427 34.4894 6.47097C34.567 6.45545 34.6468 6.43329 34.7288 6.40447C34.8108 6.37565 34.8906 6.33908 34.9682 6.29475C35.048 6.2482 35.1189 6.19278 35.181 6.1285C35.243 6.06422 35.2929 5.99107 35.3306 5.90905C35.3683 5.82704 35.3871 5.73505 35.3871 5.63308V5.06119ZM37.0446 3.31226H39.2557V3.84425H37.6563V6.87329H37.0446V3.31226ZM39.8258 3.31226H40.4376V3.80103H40.4509C40.4908 3.71901 40.5407 3.64143 40.6005 3.56828C40.6626 3.49513 40.7358 3.43195 40.82 3.37876C40.9064 3.32334 41.0051 3.28011 41.1159 3.24908C41.229 3.21805 41.3575 3.20253 41.5016 3.20253C41.6922 3.20253 41.8751 3.23911 42.0502 3.31226C42.2253 3.38541 42.3805 3.49513 42.5157 3.64143C42.6509 3.78773 42.7584 3.97171 42.8382 4.19337C42.918 4.41282 42.9579 4.66884 42.9579 4.96144C42.9579 5.32718 42.9203 5.63862 42.8449 5.89575C42.7717 6.15067 42.6664 6.35903 42.529 6.52084C42.3938 6.68266 42.2298 6.80014 42.0369 6.87329C41.8441 6.94644 41.6291 6.98301 41.3919 6.98301C41.2744 6.98301 41.1647 6.9675 41.0627 6.93647C40.9607 6.90543 40.8688 6.86553 40.7867 6.81677C40.7069 6.76578 40.6382 6.71037 40.5806 6.65052C40.523 6.58845 40.4797 6.5286 40.4509 6.47097H40.4376V8.27643H39.8258V3.31226ZM40.4243 5.11106C40.4243 5.30391 40.4432 5.48235 40.4808 5.64638C40.5185 5.80819 40.5762 5.94895 40.6537 6.06865C40.7335 6.18835 40.8322 6.28256 40.9497 6.35127C41.0694 6.41777 41.2101 6.45102 41.3719 6.45102C41.5404 6.45102 41.6856 6.41777 41.8075 6.35127C41.9316 6.28256 42.0336 6.18835 42.1134 6.06865C42.1932 5.94895 42.2519 5.80819 42.2896 5.64638C42.3273 5.48235 42.3461 5.30391 42.3461 5.11106C42.3461 4.90935 42.3273 4.72426 42.2896 4.55579C42.2519 4.38733 42.1932 4.24214 42.1134 4.12022C42.0336 3.99831 41.9316 3.9041 41.8075 3.8376C41.6856 3.76888 41.5404 3.73453 41.3719 3.73453C41.2101 3.73453 41.0694 3.76888 40.9497 3.8376C40.8322 3.9041 40.7335 3.99831 40.6537 4.12022C40.5762 4.24214 40.5185 4.38733 40.4808 4.55579C40.4432 4.72426 40.4243 4.90935 40.4243 5.11106ZM43.3452 3.31226H44.0169L44.9645 6.21162H44.9778L45.9254 3.31226H46.597L45.2371 7.01626C45.1684 7.20246 45.1052 7.36428 45.0476 7.50171C44.99 7.63914 44.9335 7.75551 44.878 7.85083C44.8226 7.94836 44.7661 8.02705 44.7085 8.0869C44.653 8.14675 44.591 8.1933 44.5223 8.22655C44.4558 8.26202 44.3804 8.28529 44.2962 8.29638C44.2141 8.30967 44.1188 8.31632 44.0102 8.31632C43.9216 8.31632 43.8517 8.31189 43.8007 8.30302C43.752 8.29638 43.7088 8.28751 43.6711 8.27643V7.72448C43.711 7.73778 43.7631 7.75108 43.8273 7.76438C43.8916 7.77768 43.9592 7.78433 44.0302 7.78433C44.1432 7.78433 44.2341 7.75662 44.3028 7.70121C44.3737 7.64801 44.4281 7.57153 44.4657 7.47178L44.6652 6.96971L43.3452 3.31226ZM48.1115 4.81514H48.4207C48.5027 4.81514 48.5881 4.80516 48.6767 4.78521C48.7654 4.76526 48.8463 4.73423 48.9195 4.69212C48.9926 4.64778 49.0525 4.59126 49.099 4.52254C49.1478 4.45383 49.1722 4.3707 49.1722 4.27317C49.1722 4.20224 49.1566 4.13463 49.1256 4.07035C49.0968 4.00385 49.0525 3.94622 48.9926 3.89745C48.935 3.84647 48.8618 3.80657 48.7732 3.77775C48.6845 3.74893 48.5814 3.73453 48.4639 3.73453C48.4019 3.73453 48.3287 3.74339 48.2445 3.76113C48.1603 3.77886 48.0771 3.81211 47.9951 3.86087C47.9153 3.90742 47.8433 3.97503 47.779 4.0637C47.7169 4.15015 47.677 4.2632 47.6593 4.40284H47.0874C47.1029 4.24325 47.1351 4.1036 47.1838 3.9839C47.2326 3.86198 47.2936 3.75669 47.3667 3.66803C47.4399 3.57936 47.5219 3.5051 47.6127 3.44525C47.7058 3.38541 47.8012 3.33775 47.8987 3.30228C47.9984 3.26681 48.0982 3.24132 48.1979 3.22581C48.2977 3.21029 48.393 3.20253 48.4839 3.20253C48.6435 3.20253 48.8009 3.22359 48.956 3.26571C49.1112 3.30561 49.2497 3.36767 49.3717 3.4519C49.4958 3.53392 49.5955 3.6381 49.6709 3.76445C49.7463 3.8908 49.784 4.03821 49.784 4.20667C49.784 4.31529 49.7684 4.41171 49.7374 4.49594C49.7064 4.57796 49.6654 4.65 49.6144 4.71207C49.5656 4.77413 49.5102 4.82733 49.4481 4.87166C49.3861 4.91378 49.3251 4.94925 49.2653 4.97806V4.99469C49.3273 5.00577 49.396 5.02905 49.4714 5.06451C49.5468 5.09776 49.6166 5.14653 49.6809 5.21081C49.7452 5.27288 49.7984 5.35378 49.8405 5.45353C49.8848 5.55106 49.907 5.67076 49.907 5.81263C49.907 6.01213 49.8637 6.18502 49.7773 6.33132C49.6931 6.47762 49.5822 6.59954 49.4448 6.69707C49.3074 6.79238 49.1522 6.86332 48.9793 6.90987C48.8064 6.95863 48.6324 6.98301 48.4573 6.98301C48.2312 6.98301 48.0262 6.9542 47.8422 6.89657C47.6604 6.83893 47.503 6.75692 47.37 6.65052C47.237 6.54412 47.1306 6.41666 47.0508 6.26815C46.9732 6.11963 46.9267 5.9556 46.9112 5.77605H47.5263C47.5418 5.90684 47.5795 6.01545 47.6393 6.1019C47.6992 6.18835 47.7712 6.25706 47.8555 6.30805C47.9397 6.35903 48.0328 6.3956 48.1348 6.41777C48.239 6.43994 48.3442 6.45102 48.4506 6.45102C48.7322 6.45102 48.9427 6.3945 49.0824 6.28145C49.2242 6.1684 49.2952 6.01656 49.2952 5.82593C49.2952 5.74391 49.2819 5.67076 49.2553 5.60648C49.2309 5.5422 49.1888 5.48789 49.1289 5.44356C49.0691 5.39701 48.9893 5.36265 48.8895 5.34048C48.792 5.3161 48.6701 5.30391 48.5238 5.30391C48.495 5.30391 48.4617 5.30502 48.424 5.30723C48.3886 5.30723 48.352 5.30834 48.3143 5.31056C48.2789 5.31278 48.2434 5.3161 48.2079 5.32053C48.1725 5.32275 48.1403 5.32497 48.1115 5.32718V4.81514ZM50.6633 3.31226H51.2751V6.04205H51.2884L53.0374 3.31226H53.7389V6.87329H53.1238V4.1435H53.1105L51.3649 6.87329H50.6633V3.31226ZM55.6557 3.84425H54.4288V3.31226H57.4944V3.84425H56.2675V6.87329H55.6557V3.84425ZM61.2133 5.73615C61.1889 5.89132 61.1357 6.04316 61.0537 6.19167C60.9717 6.34019 60.8642 6.47319 60.7312 6.59067C60.5982 6.70815 60.4408 6.80236 60.259 6.87329C60.0795 6.94644 59.88 6.98301 59.6606 6.98301C59.4212 6.98301 59.1995 6.94422 58.9956 6.86664C58.7938 6.78684 58.6187 6.66825 58.4702 6.51087C58.3239 6.35127 58.2087 6.15177 58.1244 5.91238C58.0402 5.67298 57.9981 5.39147 57.9981 5.06784C57.9981 4.85061 58.0213 4.65443 58.0679 4.47932C58.1167 4.30199 58.1809 4.1446 58.2607 4.00717C58.3428 3.86752 58.437 3.74783 58.5434 3.64808C58.6498 3.54611 58.7617 3.46299 58.8792 3.39871C58.9989 3.33221 59.1208 3.28344 59.2449 3.25241C59.3691 3.21916 59.4888 3.20253 59.604 3.20253C59.8479 3.20253 60.0706 3.23911 60.2723 3.31226C60.4741 3.38541 60.647 3.49735 60.791 3.64808C60.9373 3.79659 61.0504 3.9839 61.1302 4.21C61.2122 4.43388 61.2532 4.69766 61.2532 5.00134V5.30723H58.6498C58.652 5.48013 58.6764 5.63751 58.7229 5.77938C58.7695 5.91903 58.836 6.03873 58.9224 6.13847C59.0089 6.23822 59.113 6.31581 59.235 6.37122C59.3591 6.42442 59.4987 6.45102 59.6539 6.45102C59.8113 6.45102 59.9443 6.42885 60.0529 6.38452C60.1615 6.34019 60.2524 6.28366 60.3255 6.21495C60.3987 6.14623 60.4574 6.06976 60.5018 5.98553C60.5483 5.90129 60.5871 5.81817 60.6181 5.73615H61.2133ZM60.6381 4.81846C60.6337 4.64557 60.6071 4.49151 60.5583 4.35629C60.5117 4.22108 60.4452 4.10803 60.3588 4.01715C60.2746 3.92405 60.1726 3.85422 60.0529 3.80768C59.9332 3.75891 59.8002 3.73453 59.6539 3.73453C59.5143 3.73453 59.3857 3.76223 59.2682 3.81765C59.1507 3.87085 59.0476 3.94622 58.959 4.04375C58.8703 4.13906 58.7994 4.25322 58.7462 4.38622C58.693 4.517 58.6608 4.66108 58.6498 4.81846H60.6381ZM64.0028 3.31226H65.519C65.9535 3.31226 66.2782 3.39316 66.4932 3.55498C66.7104 3.71679 66.8191 3.95176 66.8191 4.25987C66.8191 4.4239 66.7792 4.56244 66.6994 4.67549C66.6196 4.78854 66.5143 4.88829 66.3835 4.97474C66.5719 5.04567 66.7215 5.14764 66.8324 5.28063C66.9432 5.41363 66.9986 5.58542 66.9986 5.796C66.9986 5.96225 66.9709 6.11187 66.9155 6.24487C66.8601 6.37787 66.7758 6.49092 66.6628 6.58402C66.5497 6.67712 66.4057 6.74916 66.2305 6.80014C66.0576 6.84891 65.8526 6.87329 65.6154 6.87329H64.0028V3.31226ZM64.6146 6.38452H65.5456C65.7074 6.38452 65.8415 6.37233 65.9479 6.34795C66.0565 6.32135 66.143 6.28366 66.2073 6.2349C66.2716 6.18613 66.317 6.12739 66.3436 6.05868C66.3702 5.98996 66.3835 5.91238 66.3835 5.82593C66.3835 5.73948 66.3702 5.6619 66.3436 5.59318C66.317 5.52225 66.2716 5.46351 66.2073 5.41696C66.143 5.36819 66.0565 5.33162 65.9479 5.30723C65.8415 5.28063 65.7074 5.26733 65.5456 5.26733H64.6146V6.38452ZM64.6146 4.81846H65.539C65.7451 4.81846 65.908 4.77746 66.0277 4.69544C66.1474 4.61342 66.2073 4.48597 66.2073 4.31307C66.2073 4.21554 66.1906 4.13463 66.1574 4.07035C66.1241 4.00385 66.0798 3.95065 66.0244 3.91075C65.969 3.87085 65.9058 3.84314 65.8349 3.82763C65.7662 3.80989 65.6952 3.80103 65.6221 3.80103H64.6146V4.81846Z" fill="white"/>
</svg>
