<svg xmlns="http://www.w3.org/2000/svg" width="144" height="35" fill="none"><path fill="#26AD4F" d="M4.351 25.044c-1.26 0-1.973-.296-2.183-.846-.084-.212-.168-.635-.168-1.523V3.765c0-1.269.294-1.734.462-1.903s.672-.466 1.973-.466h13.267c.503 0 .84 0 1.091.043.168.042.42.127.672.254.168.084.294.296.378.55.126.38.168.888.168 1.522 0 .635-.042 1.185-.168 1.523-.126.339-.294.466-.378.508-.294.127-.504.212-.714.254-.168 0-.462.042-1.133.042H7.29a.65.65 0 0 0-.63.635v3.426c0 .339.294.635.63.635h6.633c.63 0 .966.042 1.134.042.126 0 .335.085.671.254.168.085.546.508.546 2.115 0 1.27-.294 2.03-.84 2.2-.167.042-.63.127-1.51.127H7.331a.65.65 0 0 0-.63.634v6.43c0 .508 0 .889-.042 1.1 0 .127-.084.339-.252.677-.168.465-.923.677-2.057.677M28.198 25.086c-.588 0-1.344-.042-2.183-.17q-2.268-.317-2.897-1.395c-.588-1.016-.882-2.708-.882-4.992V2.369c0-.508 0-.846.042-1.1.042-.211.084-.423.252-.72.168-.337.924-.549 2.057-.549 1.092 0 1.806.212 2.016.592.125.254.21.508.251.677.042.254.042.635.042 1.1v15.737c0 1.227.168 1.65.294 1.903.252.423.714.635 1.428.635.588 0 .755.042.797.042 0 0 .126.043.336.17.042.042.42.296.42 1.903 0 1.777-.378 2.073-.42 2.115-.126.043-.504.212-1.553.212M40.162 25.38q-2.078 0-4.03-1.015t-3.275-3.046c-.881-1.311-1.343-2.834-1.343-4.526 0-2.538.881-4.611 2.645-6.261 1.763-1.65 3.778-2.496 6.045-2.496s4.24.804 6.004 2.454 2.603 3.68 2.603 6.26c0 1.735-.462 3.3-1.344 4.654-.881 1.354-2.015 2.369-3.274 3.003-1.302.635-2.687.973-4.03.973m0-12.648c-.965 0-1.847.338-2.645.973-.84.677-1.26 1.692-1.26 3.003s.463 2.285 1.344 3.004c.84.634 1.68.973 2.561.973.882 0 1.763-.339 2.603-.973.924-.677 1.344-1.692 1.344-3.004 0-1.311-.42-2.326-1.302-2.96-.84-.72-1.721-1.016-2.645-1.016"/><path fill="#F73866" d="M68.334 25.296c-.63 0-1.176-.423-1.638-.888-.462-.508-.714-1.058-.714-1.692 0-1.1.378-2.073 1.134-2.961a11.1 11.1 0 0 1 2.897-2.496c1.175-.72 2.393-1.439 3.568-2.158 1.218-.761 2.31-1.607 3.191-2.538.966-1.015 1.427-2.157 1.427-3.3 0-.296-.084-.634-.293-1.1-.168-.422-.378-.803-.63-1.057-.252-.296-.63-.592-1.092-.846-.504-.254-1.133-.38-1.973-.38-.882 0-1.68.338-2.309.972-.63.635-1.008 1.27-1.091 1.946l-.127.762v.338c0 .465 0 .804-.041 1.015 0 .127-.084.296-.252.635-.084.127-.462.508-2.1.508-1.259 0-2.015-.297-2.183-.847-.042-.169-.126-.634-.126-1.522 0-2.2.756-4.146 2.352-5.923 1.553-1.734 3.568-2.58 6.087-2.58 2.56 0 4.534.846 6.13 2.622 1.553 1.777 2.35 3.808 2.35 6.05 0 1.184-.251 2.326-.797 3.384-.504 1.058-1.134 1.946-1.89 2.58q-2.392 2.158-4.282 2.92l-.84.338c-.251.084-.377.338-.377.592v.17c0 .338.294.634.63.634h6.171c1.05 0 1.511.17 1.68.254q.377.19.503.634c.126.38.168.889.168 1.565 0 .635-.042 1.143-.168 1.523-.126.339-.294.466-.378.508-.42.254-1.05.338-1.805.338z"/><path fill="#26AD4F" d="M93.943 25.382a7.65 7.65 0 0 1-3.443-.804c-1.05-.55-1.89-1.269-2.519-2.115-1.343-1.777-1.973-3.765-1.973-5.965v-6.134c0-.38 0-.634.042-.888s.126-.508.252-.72v-.08399999999999999c.084-.084.252-.38.671-.55h.042c.294-.084.714-.169 1.26-.169.63 0 1.007.042 1.301.17.336.126.588.338.672.592.252.55.294 1.1.294 1.607v6.092c0 .973.252 1.903.714 2.75.252.465.587.803 1.007 1.057.504.296 1.05.423 1.68.423q1.7 0 2.519-1.269c.545-.846.84-1.82.84-3.003V10.11q0-1.016.251-1.396a1.27 1.27 0 0 1 .798-.593c.336-.084.713-.169 1.217-.169q.756 0 1.134.127h.042c.336.127.546.212.714.338.125.127.251.339.293.508.084.339.168.762.168 1.354v6.176q0 3.3-2.015 5.965c-.672.846-1.511 1.523-2.519 2.073-1.007.592-2.14.888-3.442.888M134.414 25.382a7.65 7.65 0 0 1-3.442-.804c-1.05-.55-1.89-1.269-2.519-2.115-1.344-1.777-1.974-3.765-1.974-5.965v-6.134c0-.38 0-.634.042-.888s.126-.508.252-.72v-.08399999999999999c.084-.084.252-.38.672-.55h.042c.294-.084.714-.169 1.26-.169.629 0 1.007.042 1.301.17.336.126.588.338.672.592.252.55.294 1.1.294 1.607v6.092c0 .973.252 1.903.713 2.75.252.465.588.803 1.008 1.057.504.296 1.05.423 1.679.423q1.7 0 2.519-1.269c.546-.846.84-1.82.84-3.003V10.11q0-1.016.252-1.396a1.27 1.27 0 0 1 .797-.593c.336-.084.714-.169 1.218-.169q.756 0 1.134.127h.042c.335.127.545.212.713.338.126.127.252.339.294.508.084.339.168.762.168 1.354v6.176q0 3.3-2.015 5.965c-.672.846-1.512 1.523-2.519 2.073-1.008.592-2.183.888-3.443.888M63.84 8.12s-4.197-.338-6.548 2.031c-.882.889-1.428 2.073-1.68 3.173l-.042-2.073c0-.508-.126-2.411-.252-2.707-.084-.17-.503-.508-2.015-.508-1.133 0-1.889.212-2.057.55-.126.254-.21.465-.21.677-.042.254-.042.93-.042 1.438v13.241c.042.465.168.846.378 1.015.252.212.756.423 1.931.423 1.134 0 1.89-.211 2.057-.55.168-.338.252-.55.252-.676.042-.254.042-.593.042-1.1v-4.442c0-1.015.714-1.861 1.721-1.988 1.386-.17 3.191-.677 4.45-1.946 2.352-2.327 2.016-6.557 2.016-6.557M123.708 8.12s-4.198-.338-6.549 2.031c-.882.889-1.428 2.073-1.68 3.173l-.042-2.073c0-.508-.125-2.411-.251-2.707-.084-.17-.504-.508-2.016-.508-1.133 0-1.889.212-2.057.55-.126.254-.21.465-.21.677-.042.254-.042.93-.042 1.438v13.241c.042.465.168.846.378 1.015.252.212.756.423 1.931.423 1.134 0 1.89-.211 2.058-.55.167-.338.251-.55.251-.676.042-.254.042-.593.042-1.1v-4.442c0-1.015.714-1.861 1.722-1.988 1.385-.17 3.19-.677 4.45-1.946 2.351-2.327 2.015-6.557 2.015-6.557M106.119 25.383a2.107 2.107 0 0 0 2.099-2.116c0-1.168-.94-2.115-2.099-2.115s-2.099.947-2.099 2.115.939 2.116 2.099 2.116"/></svg>