<svg xmlns="http://www.w3.org/2000/svg" width="117" height="27" fill="none"><path fill="#E14459" d="M16.085 4.098H4.943A4.22 4.22 0 0 0 .725 8.316v11.142a4.22 4.22 0 0 0 4.218 4.218h11.142a4.22 4.22 0 0 0 4.218-4.218V8.316a4.217 4.217 0 0 0-4.218-4.218"/><path fill="#C73148" d="M5.5 5.376a.555.555 0 1 0 0 1.11.555.555 0 1 0-.002-1.11zm9.961 0a.555.555 0 1 0 .002 1.11.555.555 0 1 0-.002-1.11"/><path fill="#fff" d="M5.476 5.857c-.194.01-.184.292-.184.292 1.04 2.027 2.956 3.02 5.165 3.02 2.205-.003 4.14-1.008 5.18-3.03 0 0 .04-.381-.365-.249-1.065 1.766-2.855 2.81-4.814 2.814-1.962 0-3.745-1.034-4.813-2.802a.4.4 0 0 0-.17-.043zm7.04 7.874-.59 1.762-.577-1.762h-.563l.908 2.562h.437l.593-1.683.592 1.683h.442l.906-2.562h-.548l-.578 1.762-.59-1.762zm-3.142 0-1.148 2.562h.54l.222-.495.016-.039h1.193l.233.534h.555l-1.138-2.547-.01-.015h-.463m8.315 0v2.56h.522v-2.56zm-14.962 0v2.563h.528v-1.041H4.45v1.04h.53v-2.564h-.528v1.034H3.257v-1.034h-.53zm4.701 0v1.467c0 .417-.21.64-.593.64-.382 0-.596-.23-.596-.658v-1.447h-.53v1.465c0 .72.408 1.134 1.118 1.134s1.128-.42 1.128-1.155V13.73h-.529zm7.665 0v2.56h1.969v-.467h-1.447v-.634h.962v-.467h-.962V14.2h1.396v-.467h-1.918zm-5.494.646.377.857.027.06h-.8l.025-.06.373-.857z"/><path fill="#1F2226" d="M30.769 5.343c.136 0 .259-.02.36-.068a.7.7 0 0 0 .402-.415.86.86 0 0 0-.04-.66.8.8 0 0 0-.245-.266 1.2 1.2 0 0 0-.375-.143 2.5 2.5 0 0 0-.47-.048c-.204 0-.395.034-.551.089-.164.06-.3.136-.402.238a.84.84 0 0 0-.238.34.96.96 0 0 0-.075.416h-.613q.002-.315.075-.559.07-.244.204-.429c.089-.122.19-.224.313-.313a2 2 0 0 1 .395-.204q.206-.084.443-.116.234-.032.47-.034.396 0 .721.082c.218.061.395.143.552.252q.236.174.368.422c.081.17.13.36.13.586 0 .251-.055.463-.15.64-.096.177-.266.306-.511.395v.013c.129.041.245.089.347.157s.197.15.272.252a1.2 1.2 0 0 1 .184.36q.061.205.061.47 0 .369-.163.654-.162.286-.436.47a1.9 1.9 0 0 1-.633.286c-.238.068-.49.095-.756.095q-.42-.002-.776-.074a2 2 0 0 1-.64-.26 1.4 1.4 0 0 1-.436-.476 1.55 1.55 0 0 1-.19-.722h.64c.006.136.04.273.101.388a.7.7 0 0 0 .239.3q.164.135.408.198c.164.054.368.074.6.074.204 0 .401-.013.572-.054.17-.034.32-.089.442-.17a.84.84 0 0 0 .28-.3 1 1 0 0 0 .095-.443 1 1 0 0 0-.062-.354.8.8 0 0 0-.19-.272.8.8 0 0 0-.314-.184q-.194-.06-.449-.061h-.844v-.552zm2.41.348q.01-.327.123-.552a.94.94 0 0 1 .307-.36q.192-.144.456-.205t.579-.061c.17 0 .34.013.504.054q.244.05.429.17a.9.9 0 0 1 .306.307c.082.122.116.279.116.456v2.07c0 .054.013.109.047.15.028.04.082.061.15.061q.044-.002.096-.014a.5.5 0 0 0 .102-.013v.422a1 1 0 0 1-.15.034.7.7 0 0 1-.177.02c-.11 0-.198-.013-.273-.027a.5.5 0 0 1-.197-.088.5.5 0 0 1-.123-.164 1 1 0 0 1-.054-.238 3 3 0 0 1-.238.225 1 1 0 0 1-.286.184 1.6 1.6 0 0 1-.348.129q-.192.04-.436.04-.202.002-.394-.067a1.1 1.1 0 0 1-.355-.191 1 1 0 0 1-.245-.327.9.9 0 0 1-.095-.442c0-.184.027-.34.095-.477a1 1 0 0 1 .239-.334 1.1 1.1 0 0 1 .347-.21c.13-.049.259-.076.388-.096l1.001-.123a.32.32 0 0 0 .225-.109c.054-.068.082-.163.082-.306 0-.218-.069-.368-.212-.463s-.34-.143-.606-.143c-.272 0-.47.061-.606.17-.129.116-.21.286-.224.518zm2.207.68a1 1 0 0 1-.177.089q-.114.031-.239.055-.133.03-.279.04l-.293.041c-.108.02-.21.034-.306.068a1 1 0 0 0-.238.11.55.55 0 0 0-.164.17.5.5 0 0 0-.054.231c0 .102.014.19.047.272a.5.5 0 0 0 .137.191.5.5 0 0 0 .197.123.84.84 0 0 0 .47.013c.082-.013.157-.027.238-.061.089-.027.164-.068.245-.109.075-.048.15-.102.212-.163a.693.693 0 0 0 .204-.497zm3.865-1.218h-1.6v3.03h-.613V4.62h2.213zm1.18-.041h.014a1.03 1.03 0 0 1 .375-.43 1.299 1.299 0 0 1 .674-.17q.285-.001.551.11c.178.074.327.183.464.326q.206.225.32.552c.081.225.122.477.122.77 0 .367-.034.674-.109.932a1.6 1.6 0 0 1-.32.627q-.205.243-.49.354a1.8 1.8 0 0 1-.647.109q-.174.002-.327-.048a.8.8 0 0 1-.272-.122.888.888 0 0 1-.34-.34h-.014v1.804h-.613V4.62h.613zm-.013 1.307c0 .198.02.368.054.531.041.164.096.307.178.43a.84.84 0 0 0 .3.279.8.8 0 0 0 .415.102c.17 0 .313-.034.442-.102a.9.9 0 0 0 .3-.28c.081-.122.136-.265.177-.429a2.757 2.757 0 0 0 0-1.083 1.3 1.3 0 0 0-.177-.435.86.86 0 0 0-.3-.286.9.9 0 0 0-.442-.102.8.8 0 0 0-.416.102.8.8 0 0 0-.3.286 1.3 1.3 0 0 0-.177.436c-.034.17-.054.347-.054.551m4.533 1.103h.014l.946-2.9h.674l-1.362 3.704a8 8 0 0 1-.19.483 2 2 0 0 1-.17.354c-.055.096-.11.17-.164.232a.653.653 0 0 1-.415.211 1.8 1.8 0 0 1-.49.007.6.6 0 0 1-.137-.027v-.552q.063.02.157.04a1 1 0 0 0 .204.021.43.43 0 0 0 .272-.081.5.5 0 0 0 .164-.232l.197-.504-1.32-3.657h.673zm3.46-1.396q.12-.001.251-.034a.8.8 0 0 0 .245-.095.6.6 0 0 0 .184-.163.44.44 0 0 0 .068-.252.6.6 0 0 0-.04-.205.7.7 0 0 0-.137-.17.6.6 0 0 0-.225-.122 1 1 0 0 0-.306-.041c-.061 0-.136.013-.218.027a.6.6 0 0 0-.245.095.6.6 0 0 0-.218.205.7.7 0 0 0-.123.34h-.572q.023-.237.096-.422c.047-.116.109-.225.184-.313q.112-.135.245-.218.142-.093.286-.143c.102-.041.197-.062.3-.082q.153-.02.285-.02.236 0 .47.06.237.063.422.185a1 1 0 0 1 .293.313c.075.13.116.272.116.443 0 .115-.02.204-.048.286a.752.752 0 0 1-.293.381c-.06.04-.122.075-.176.109v.013c.06.014.129.034.204.069a.8.8 0 0 1 .21.143q.093.102.164.245c.041.102.062.218.062.36 0 .205-.048.375-.13.518-.081.15-.197.266-.333.368q-.206.144-.464.218a2 2 0 0 1-.524.068q-.337.002-.613-.089a1.4 1.4 0 0 1-.476-.245 1.1 1.1 0 0 1-.314-.381 1.2 1.2 0 0 1-.143-.49h.613c.02.129.055.238.116.326.061.082.13.157.218.205a1.195 1.195 0 0 0 .592.143q.419.001.634-.17a.55.55 0 0 0 .21-.457.7.7 0 0 0-.033-.218.43.43 0 0 0-.13-.163.7.7 0 0 0-.238-.11 2 2 0 0 0-.368-.026h-.095c-.04 0-.075 0-.116.006h-.109l-.095.014v-.51zm2.852 1.226h.014l1.75-2.73h.701v3.56h-.62v-2.73h-.013l-1.743 2.73h-.701v-3.56h.612zm3.146-2.73h3.065v.53h-1.226v3.03h-.613v-3.03H54.41zm6.783 2.424q-.032.232-.157.456-.122.224-.327.395-.196.184-.463.286a1.6 1.6 0 0 1-.606.109q-.355-.002-.66-.116a1.34 1.34 0 0 1-.525-.36 1.6 1.6 0 0 1-.347-.593 2.4 2.4 0 0 1-.13-.845c0-.218.021-.415.076-.592q.069-.266.19-.47c.082-.136.177-.259.28-.36.108-.103.217-.185.34-.253a2 2 0 0 1 .36-.143 1.4 1.4 0 0 1 .362-.047c.245 0 .463.034.667.108.204.075.374.184.524.334.143.15.252.34.34.559q.115.347.117.796v.307H58.63q.002.255.075.47c.041.143.11.258.198.36.081.103.19.177.313.232q.183.082.415.082c.157 0 .293-.02.402-.068a.74.74 0 0 0 .272-.17 1 1 0 0 0 .178-.225 3 3 0 0 0 .115-.252zm-.572-.92a2 2 0 0 0-.075-.463 1.2 1.2 0 0 0-.205-.34 1 1 0 0 0-.306-.211 1.1 1.1 0 0 0-.402-.068.943.943 0 0 0-.695.306 1.2 1.2 0 0 0-.21.34 1.3 1.3 0 0 0-.096.436zm4.875-1.505c.436 0 .756.082.974.246s.32.395.32.701a.68.68 0 0 1-.116.415 1.2 1.2 0 0 1-.313.3c.184.068.334.177.443.306.115.137.17.307.17.518a1.2 1.2 0 0 1-.082.45q-.09.196-.252.34a1.4 1.4 0 0 1-.429.211 2.4 2.4 0 0 1-.62.075h-1.613V4.62zm.02 1.505q.309 0 .484-.122.184-.124.184-.382a.484.484 0 0 0-.184-.402.6.6 0 0 0-.19-.088 1 1 0 0 0-.212-.02H64.59v1.014zm0 1.567q.245 0 .41-.041a.56.56 0 0 0 .258-.11.4.4 0 0 0 .136-.176.6.6 0 0 0 .041-.232.6.6 0 0 0-.04-.231.4.4 0 0 0-.137-.177.65.65 0 0 0-.259-.11 1.7 1.7 0 0 0-.408-.04h-.927v1.117zM35.675 18.86l-2.164-5.845-2.154 5.845h4.318m-7.541 4.337 4.485-11.751h1.797l4.485 11.75h-1.657l-1.071-3.016H30.88l-1.072 3.017zm13.813-1.32v4.673h-1.448V14.383h1.448v1.33q.458-.786 1.153-1.16.704-.388 1.667-.387 1.607 0 2.61 1.28 1.01 1.27 1.01 3.355c0 1.39-.336 2.499-1.01 3.356q-1.003 1.27-2.61 1.27-.96.001-1.667-.376-.694-.391-1.153-1.172zm4.93-3.078q0-1.596-.664-2.509-.644-.913-1.797-.913-1.152 0-1.817.913-.656.911-.656 2.51.001 1.597.656 2.508.665.904 1.817.905 1.153-.001 1.797-.905.664-.911.664-2.509m5.31 3.078v4.673H50.73V14.383h1.458v1.33q.457-.786 1.143-1.16.704-.388 1.675-.387 1.598 0 2.601 1.28 1.012 1.27 1.011 3.355c0 1.39-.336 2.499-1.011 3.356q-1.003 1.27-2.601 1.27-.971.001-1.675-.376-.688-.391-1.143-1.172zm4.923-3.078q0-1.596-.665-2.509-.644-.913-1.796-.913t-1.818.913q-.645.911-.645 2.51 0 1.597.645 2.508.665.904 1.818.905 1.152-.001 1.796-.905.665-.911.665-2.509m11.929 2.72v-3.154h-2.59v-1.31h4.167v5.051a7 7 0 0 1-2.035.99c-.735.22-1.52.326-2.36.326q-2.76 0-4.317-1.608-1.548-1.607-1.548-4.486.001-2.878 1.548-4.485 1.56-1.618 4.316-1.619a8 8 0 0 1 2.173.288 6.8 6.8 0 0 1 1.916.834v1.696a6.4 6.4 0 0 0-1.874-1.132 5.8 5.8 0 0 0-2.083-.376q-2.152 0-3.244 1.2-1.072 1.21-1.072 3.59-.002 2.38 1.072 3.581 1.093 1.2 3.244 1.2c.562 0 1.066-.049 1.508-.139q.655-.141 1.179-.449zm9.814-2.761h-1.437c-1.172 0-1.983.133-2.432.407q-.674.398-.674 1.37-.002.777.507 1.23.505.449 1.381.448 1.21-.001 1.935-.853t.725-2.274v-.326h-.005zm1.448-.596v5.033h-1.448v-1.341q-.496.804-1.23 1.193-.744.376-1.818.375-1.35 0-2.154-.756c-.53-.51-.791-1.193-.791-2.045q0-1.477.99-2.244 1.001-.755 2.977-.756h2.026v-.138q0-1.003-.656-1.548-.654-.544-1.844-.543c-.504 0-.99.06-1.469.178a5.8 5.8 0 0 0-1.38.543V14.77a9.6 9.6 0 0 1 1.547-.457 7 7 0 0 1 1.448-.159q1.916 0 2.858.99c.629.669.94 1.67.94 3.013zm2.986 5.033V10.95h1.447v12.245zm4.476 0V10.95h1.448v12.245zm11.975-4.774v.715H93.08c.06.99.355 1.752.894 2.28.541.519 1.294.774 2.255.774.553 0 1.092-.067 1.608-.199a7 7 0 0 0 1.559-.614v1.37a9 9 0 0 1-1.599.508 8.3 8.3 0 0 1-1.656.168c-1.404 0-2.516-.41-3.347-1.231q-1.23-1.22-1.23-3.315c0-1.398.39-2.593 1.172-3.433.779-.852 1.834-1.28 3.154-1.28 1.187 0 2.12.382 2.808 1.153q1.037 1.138 1.038 3.104zm-6.618-.416h5.17q-.019-1.187-.674-1.905c-.43-.47-1-.706-1.718-.706q-1.208 0-1.944.685c-.485.458-.759 1.1-.834 1.924zm14.041-3.762.01 1.487a2 2 0 0 0-.536-.209 2.6 2.6 0 0 0-.625-.07q-1.23.001-1.895.802-.656.794-.656 2.291v4.647h-1.448v-8.812h1.448v1.37q.457-.805 1.193-1.193.735-.397 1.778-.397.15 0 .336.03c.117.006.253.023.397.05zm9.071.138-3.869 9.626q-.616 1.578-1.199 2.062-.587.479-1.559.477h-1.161v-1.21h.852q.595-.002.934-.288.327-.276.725-1.341l.269-.656-3.574-8.674h1.537l2.758 6.885 2.747-6.885h1.538z"/></svg>