<svg xmlns="http://www.w3.org/2000/svg" width="30" height="30" fill="none"><path fill="#E14459" d="M23.415.214H6.585a6.37 6.37 0 0 0-6.37 6.37v16.831a6.37 6.37 0 0 0 6.37 6.37h16.83a6.37 6.37 0 0 0 6.37-6.37V6.585a6.37 6.37 0 0 0-6.37-6.37"/><path fill="#C73148" d="M7.425 2.145a.838.838 0 1 0 0 1.675.838.838 0 1 0-.002-1.675zm15.047 0a.839.839 0 1 0 .003 1.675.838.838 0 1 0-.003-1.675"/><path fill="#fff" d="M7.39 2.871c-.293.015-.278.44-.278.44 1.57 3.062 4.465 4.562 7.801 4.562 3.332-.005 6.253-1.523 7.824-4.577 0 0 .063-.575-.55-.375-1.609 2.666-4.312 4.245-7.271 4.25-2.964 0-5.658-1.561-7.271-4.232a.55.55 0 0 0-.255-.065zm10.635 11.893-.893 2.661-.87-2.66h-.851l1.37 3.869h.661l.895-2.542.896 2.542h.668l1.368-3.87h-.828l-.873 2.661-.893-2.66zm-4.747 0-1.734 3.87h.816l.335-.748.025-.058h1.8l.353.806h.838l-1.718-3.847-.015-.023h-.7m12.56 0v3.867h.788v-3.867zm-22.6 0v3.872h.798v-1.573h1.803v1.57h.8v-3.871h-.797v1.56H4.038v-1.56h-.8zm7.1 0v2.216c0 .63-.317.966-.895.966s-.9-.346-.9-.993v-2.186h-.8v2.213c0 1.088.615 1.713 1.688 1.713s1.703-.635 1.703-1.745v-2.184h-.798zm11.579 0v3.867h2.973v-.705h-2.186v-.958h1.454v-.706h-1.454v-.79h2.109v-.705h-2.896zm-8.3.976.57 1.295.041.09H13.02l.037-.09.563-1.295z"/></svg>