<svg xmlns="http://www.w3.org/2000/svg" width="24" height="30" fill="none"><path fill="#fff" d="M19.906 15.925a6.64 6.64 0 0 1 .858-3.182 6.6 6.6 0 0 1 2.28-2.372 6.75 6.75 0 0 0-2.318-2.074 6.7 6.7 0 0 0-2.996-.812c-2.235-.235-4.402 1.344-5.542 1.344-1.16 0-2.915-1.32-4.803-1.281a7.05 7.05 0 0 0-3.456 1.036 7.1 7.1 0 0 0-2.499 2.613c-2.574 4.478-.654 11.06 1.812 14.68 1.234 1.773 2.676 3.754 4.563 3.683 1.847-.077 2.536-1.183 4.765-1.183 2.208 0 2.855 1.183 4.78 1.139 1.982-.033 3.23-1.78 4.42-3.57a14.7 14.7 0 0 0 2.022-4.137 6.37 6.37 0 0 1-2.824-2.354 6.4 6.4 0 0 1-1.062-3.53M16.27 5.107a6.54 6.54 0 0 0 1.483-4.67 6.6 6.6 0 0 0-4.27 2.22 6.2 6.2 0 0 0-1.523 4.497 5.44 5.44 0 0 0 4.31-2.047"/></svg>