<svg xmlns="http://www.w3.org/2000/svg" width="27" height="30" fill="none"><path fill="url(#a)" d="M.644.951A2.26 2.26 0 0 0 .101 2.55v25.238c-.04.582.156 1.157.543 1.598l.08.09L15.049 15.34v-.342L.724.872z"/><path fill="url(#b)" d="m19.787 20.051-4.74-4.712v-.342l4.74-4.713.104.069 5.676 3.172c1.618.901 1.618 2.384 0 3.297l-5.653 3.172z"/><path fill="url(#c)" d="M19.925 10.353 3.035.883A1.88 1.88 0 0 0 .644.95l14.404 14.217z"/><path fill="#000" d="M19.786 19.877 3.036 29.29a1.935 1.935 0 0 1-2.312 0l-.08.08.08.091a1.94 1.94 0 0 0 2.312 0l16.889-9.481z" opacity=".2"/><path fill="url(#d)" d="m19.925 19.982-4.878-4.814L.643 29.383a1.886 1.886 0 0 0 2.393.08z"/><path fill="#000" d="M.643 29.225a2.26 2.26 0 0 1-.509-1.609v.171c-.04.583.156 1.157.543 1.598l.081-.08zM25.567 16.65l-5.78 3.23.104.102 5.676-3.171c.335-.14.626-.367.841-.656.216-.289.349-.63.384-.988-.072.325-.22.629-.433.886a2.15 2.15 0 0 1-.792.598" opacity=".12"/><path fill="#fff" d="m3.037 1.043 22.53 12.642c.308.135.579.34.791.598s.362.56.434.885a2 2 0 0 0-.384-.987 2 2 0 0 0-.841-.656L3.037.883C1.43-.029.1.723.1 2.55v.171C.135.895 1.43.142 3.037 1.043" opacity=".25"/><defs><linearGradient id="a" x1="13.776" x2="-5.368" y1="2.286" y2="21.682" gradientUnits="userSpaceOnUse"><stop stop-color="#00A0FF"/><stop offset=".01" stop-color="#00A1FF"/><stop offset=".26" stop-color="#00BEFF"/><stop offset=".51" stop-color="#00D2FF"/><stop offset=".76" stop-color="#00DFFF"/><stop offset="1" stop-color="#00E3FF"/></linearGradient><linearGradient id="b" x1="27.682" x2="-.281" y1="15.168" y2="15.168" gradientUnits="userSpaceOnUse"><stop stop-color="#FFE000"/><stop offset=".41" stop-color="#FFBD00"/><stop offset=".78" stop-color="orange"/><stop offset="1" stop-color="#FF9C00"/></linearGradient><linearGradient id="c" x1="-2.987" x2="8.605" y1="-7.447" y2="4.297" gradientUnits="userSpaceOnUse"><stop stop-color="#32A071"/><stop offset=".07" stop-color="#2DA771"/><stop offset=".48" stop-color="#15CF74"/><stop offset=".8" stop-color="#06E775"/><stop offset="1" stop-color="#00F076"/></linearGradient><linearGradient id="d" x1="17.278" x2="-8.689" y1="17.792" y2="44.088" gradientUnits="userSpaceOnUse"><stop stop-color="#FF3A44"/><stop offset="1" stop-color="#C31162"/></linearGradient></defs></svg>