<svg xmlns="http://www.w3.org/2000/svg" width="99" height="25" fill="none"><path fill="#1F2226" stroke="#1F2226" stroke-miterlimit="10" stroke-width=".17" d="M50.092 14.226a3.6 3.6 0 0 0-1.99.606 3.57 3.57 0 0 0-1.316 1.603 3.55 3.55 0 0 0 .786 3.884 3.6 3.6 0 0 0 3.907.764 3.6 3.6 0 0 0 1.605-1.318c.393-.587.601-1.277.6-1.982a3.5 3.5 0 0 0-1.038-2.536 3.53 3.53 0 0 0-2.554-1.02Zm0 5.716a2.2 2.2 0 0 1-1.245-.288 2.15 2.15 0 0 1-.496-3.336 2.17 2.17 0 0 1 2.38-.54c.406.158.755.434 1 .792.246.357.378.78.38 1.213a2.05 2.05 0 0 1-.552 1.503 2.07 2.07 0 0 1-1.467.656Zm-7.84-5.716a3.6 3.6 0 0 0-1.99.606 3.57 3.57 0 0 0-1.316 1.603 3.55 3.55 0 0 0 .786 3.884 3.6 3.6 0 0 0 3.907.764 3.6 3.6 0 0 0 1.605-1.318c.393-.587.601-1.277.6-1.982a3.5 3.5 0 0 0-1.038-2.536 3.53 3.53 0 0 0-2.554-1.02Zm0 5.716a2.2 2.2 0 0 1-1.245-.288 2.15 2.15 0 0 1-.496-3.336 2.17 2.17 0 0 1 2.38-.54c.406.158.755.434 1 .792.246.357.378.78.38 1.213a2.05 2.05 0 0 1-.552 1.503 2.07 2.07 0 0 1-1.467.656Zm-9.32-4.62v1.507h3.633a3.15 3.15 0 0 1-.841 1.9 3.72 3.72 0 0 1-2.81 1.105 4.05 4.05 0 0 1-2.855-1.177 4.007 4.007 0 0 1 0-5.681 4.05 4.05 0 0 1 2.855-1.177 3.91 3.91 0 0 1 2.76 1.08l1.068-1.063a5.3 5.3 0 0 0-3.81-1.523 5.59 5.59 0 0 0-4.072 1.54 5.53 5.53 0 0 0-1.706 3.988 5.5 5.5 0 0 0 1.706 3.987 5.56 5.56 0 0 0 4.071 1.54A5.13 5.13 0 0 0 36.81 19.8a5 5 0 0 0 1.312-3.54 5 5 0 0 0-.075-.937zm38.114 1.172a3.35 3.35 0 0 0-1.177-1.607 3.38 3.38 0 0 0-1.885-.66 3.38 3.38 0 0 0-2.457 1.053 3.34 3.34 0 0 0-.908 2.503c-.007.764.234 1.51.688 2.126a3.575 3.575 0 0 0 4.075 1.238 3.56 3.56 0 0 0 1.765-1.38l-1.22-.837a2.02 2.02 0 0 1-1.758.979 1.815 1.815 0 0 1-1.733-1.08l4.786-1.966zm-4.88 1.189a1.95 1.95 0 0 1 .499-1.434 1.97 1.97 0 0 1 1.378-.65 1.39 1.39 0 0 1 1.32.761zm-3.885 3.448h1.573V10.67H62.28zm-2.575-6.11h-.058a2.47 2.47 0 0 0-1.885-.836 3.6 3.6 0 0 0-2.42 1.101 3.556 3.556 0 0 0 0 4.919 3.6 3.6 0 0 0 2.42 1.102 2.43 2.43 0 0 0 1.885-.837h.058v.51c0 1.364-.731 2.093-1.909 2.093a1.99 1.99 0 0 1-1.809-1.264l-1.362.56c.252.63.69 1.169 1.256 1.545a3.38 3.38 0 0 0 1.915.564c1.842 0 3.365-1.08 3.365-3.707v-6.335h-1.456zm-1.808 4.921a2.17 2.17 0 0 1-1.447-.676 2.154 2.154 0 0 1 0-2.957c.379-.4.896-.642 1.447-.677a2.02 2.02 0 0 1 1.417.671 2 2 0 0 1 .5 1.48 1.98 1.98 0 0 1-.494 1.488 2 2 0 0 1-1.423.671Zm20.517-9.272h-3.769v10.46h1.573v-3.966h2.196a3.29 3.29 0 0 0 2.464-.864 3.25 3.25 0 0 0 1.043-2.383 3.24 3.24 0 0 0-1.043-2.383 3.28 3.28 0 0 0-2.464-.864Zm0 5.021h-2.196v-3.565h2.23a1.8 1.8 0 0 1 1.272.524 1.8 1.8 0 0 1 .528 1.267 1.78 1.78 0 0 1-.528 1.266 1.8 1.8 0 0 1-1.273.525zm9.707-1.498a2.95 2.95 0 0 0-1.641.382 2.93 2.93 0 0 0-1.16 1.216l1.388.578a1.49 1.49 0 0 1 1.438-.762 1.52 1.52 0 0 1 1.508.78c.096.176.155.369.175.568v.1a3.5 3.5 0 0 0-1.64-.402c-1.498 0-3.029.837-3.029 2.36a2.4 2.4 0 0 0 .818 1.702 2.43 2.43 0 0 0 1.798.6 2.24 2.24 0 0 0 2.002-1.021h.05v.837h1.515v-4.026c0-1.832-1.396-2.895-3.188-2.895zm-.193 5.733c-.513 0-1.228-.26-1.228-.887 0-.837.891-1.122 1.682-1.122.5-.012.994.11 1.43.352-.053.454-.27.874-.61 1.182s-.78.482-1.24.491zm8.933-5.49-1.8 4.536h-.05l-1.868-4.536h-1.682l2.801 6.343-1.598 3.524h1.64l4.307-9.867zM82.73 21.13h1.565V10.67H82.73z"/><path fill="url(#a)" d="M1.127 2.306A1.66 1.66 0 0 0 .73 3.478v18.508a1.6 1.6 0 0 0 .398 1.171l.06.067L11.69 12.857v-.25L1.186 2.246z"/><path fill="url(#b)" d="m15.165 16.313-3.475-3.456v-.251l3.475-3.456.076.05 4.163 2.327c1.186.66 1.186 1.748 0 2.418l-4.146 2.326z"/><path fill="url(#c)" d="M15.266 9.2 2.881 2.256a1.38 1.38 0 0 0-1.755.05L11.69 12.73z"/><path fill="#000" d="M15.165 16.185 2.88 23.088a1.42 1.42 0 0 1-1.695 0l-.06.059.06.067a1.42 1.42 0 0 0 1.695 0l12.385-6.954z" opacity=".2"/><path fill="url(#d)" d="m15.266 16.262-3.577-3.53L1.126 23.156a1.38 1.38 0 0 0 1.755.058z"/><path fill="#000" d="M1.126 23.04a1.66 1.66 0 0 1-.373-1.18v.126a1.6 1.6 0 0 0 .398 1.171l.06-.058zM19.404 13.82l-4.239 2.367.077.075 4.162-2.326a1.5 1.5 0 0 0 .617-.48c.158-.213.255-.463.281-.725-.052.238-.162.46-.318.65-.156.189-.355.339-.58.438" opacity=".12"/><path fill="#fff" d="m2.882 2.373 16.522 9.271c.225.1.424.25.58.438.156.19.265.412.318.65a1.45 1.45 0 0 0-.281-.724 1.5 1.5 0 0 0-.617-.48L2.882 2.255C1.703 1.586.728 2.14.728 3.478v.125c.026-1.338.975-1.89 2.154-1.23" opacity=".25"/><path fill="#1F2226" d="M27.278 7.054V5.435h.442q.07-.16.13-.322.06-.166.11-.373.052-.21.096-.479.046-.27.086-.638.047-.39.073-.765.027-.378.04-.708.017-.33.02-.595l.01-.436h3.072v4.316h.552v1.62h-.612V6.006H27.89v1.047zm1.619-5.363q0 .476-.04.948-.036.473-.09.95-.037.38-.076.646a7 7 0 0 1-.08.469q-.04.202-.093.375a7 7 0 0 1-.117.356h2.285V1.691zm6.036 2.53q0-.295-.066-.541a1.3 1.3 0 0 0-.2-.43.938.938 0 0 0-.778-.382.94.94 0 0 0-.775.383q-.133.18-.199.429a2 2 0 0 0-.066.542q0 .3.066.552.065.25.2.428.133.18.325.283.194.1.45.1.255 0 .448-.1a1 1 0 0 0 .33-.283q.132-.18.199-.428.066-.253.066-.552m.612 0q0 .44-.113.792a1.7 1.7 0 0 1-.326.595q-.213.245-.522.38-.306.129-.695.129t-.695-.13a1.4 1.4 0 0 1-.518-.379 1.7 1.7 0 0 1-.326-.595 2.6 2.6 0 0 1-.113-.791q0-.433.113-.782t.326-.595.518-.376q.306-.133.695-.133.39 0 .695.133.309.13.522.376t.326.595.113.782m3.56.533a1.9 1.9 0 0 1-.164.588q-.072.15-.19.29a1.2 1.2 0 0 1-.278.249 1.4 1.4 0 0 1-.386.17 1.8 1.8 0 0 1-.509.066 1.5 1.5 0 0 1-.668-.166 1.6 1.6 0 0 1-.313-.23 1.5 1.5 0 0 1-.259-.352 2 2 0 0 1-.176-.486 2.8 2.8 0 0 1-.067-.638q0-.442.127-.795.126-.356.335-.602.213-.246.492-.379.283-.133.592-.133.28 0 .492.06.217.06.376.16.16.1.27.233.109.13.176.275.069.144.103.293.036.15.046.286h-.572q-.046-.363-.252-.569-.203-.206-.572-.206a.9.9 0 0 0-.442.103.9.9 0 0 0-.313.29q-.123.183-.186.445-.06.26-.06.572 0 .352.066.609.067.252.19.419a.8.8 0 0 0 .3.242q.178.077.405.077a.8.8 0 0 0 .303-.057.8.8 0 0 0 .256-.17 1 1 0 0 0 .192-.275q.08-.163.113-.37zm1.62-1.776h-1.227v-.532h3.066v.532h-1.227v3.03h-.612zm2.153-.532h.672l.947 2.9h.014l.947-2.9h.672L44.77 6.15q-.103.279-.19.486a3 3 0 0 1-.17.349 1.2 1.2 0 0 1-.169.236.6.6 0 0 1-.186.14.7.7 0 0 1-.226.07 1.8 1.8 0 0 1-.495.006 1 1 0 0 1-.13-.027v-.552q.06.02.156.04a1 1 0 0 0 .203.02.42.42 0 0 0 .273-.083.5.5 0 0 0 .163-.23l.199-.502zm6.12.532h-1.663v3.03h-.612V2.445h2.89v3.561h-.615zm1.584-.532h.612v1.436h1.662V2.446h.615v3.561h-.615V4.414h-1.662v1.593h-.612zm6.346 1.776q0-.296-.067-.542a1.3 1.3 0 0 0-.2-.43.938.938 0 0 0-.778-.382.94.94 0 0 0-.774.383q-.134.18-.2.429a2 2 0 0 0-.066.542q0 .3.066.552.066.25.2.428.133.18.325.283.194.1.45.1t.448-.1a1 1 0 0 0 .33-.283q.133-.18.199-.428.066-.253.067-.552m.611 0q0 .439-.113.79a1.7 1.7 0 0 1-.326.596q-.213.245-.522.38-.306.129-.695.129t-.695-.13a1.4 1.4 0 0 1-.518-.379 1.7 1.7 0 0 1-.326-.595 2.6 2.6 0 0 1-.113-.791q0-.433.113-.782t.326-.595.518-.376q.306-.133.695-.133.39 0 .695.133.309.13.522.376.212.246.326.595t.113.782m2.723-1.776h1.516q.652 0 .975.243.325.243.325.705 0 .246-.12.415a1.2 1.2 0 0 1-.315.3q.282.105.449.305.165.2.166.516 0 .25-.083.449a.86.86 0 0 1-.253.339 1.2 1.2 0 0 1-.432.216 2.3 2.3 0 0 1-.615.073h-1.613zm.612 3.072h.931q.243 0 .402-.036a.7.7 0 0 0 .26-.113.4.4 0 0 0 .136-.177.6.6 0 0 0 .04-.232.6.6 0 0 0-.04-.233.4.4 0 0 0-.136-.176.7.7 0 0 0-.26-.11 1.7 1.7 0 0 0-.402-.04h-.93zm0-1.566h.924q.31 0 .49-.123.179-.123.179-.382a.5.5 0 0 0-.05-.243.4.4 0 0 0-.133-.16.5.5 0 0 0-.19-.083.9.9 0 0 0-.212-.026h-1.008z"/><defs><linearGradient id="a" x1="10.757" x2="-3.282" y1="3.285" y2="17.509" gradientUnits="userSpaceOnUse"><stop stop-color="#00A0FF"/><stop offset=".01" stop-color="#00A1FF"/><stop offset=".26" stop-color="#00BEFF"/><stop offset=".51" stop-color="#00D2FF"/><stop offset=".76" stop-color="#00DFFF"/><stop offset="1" stop-color="#00E3FF"/></linearGradient><linearGradient id="b" x1="20.955" x2=".449" y1="12.732" y2="12.732" gradientUnits="userSpaceOnUse"><stop stop-color="#FFE000"/><stop offset=".41" stop-color="#FFBD00"/><stop offset=".78" stop-color="orange"/><stop offset="1" stop-color="#FF9C00"/></linearGradient><linearGradient id="c" x1="-1.535" x2="6.965" y1="-3.852" y2="4.76" gradientUnits="userSpaceOnUse"><stop stop-color="#32A071"/><stop offset=".07" stop-color="#2DA771"/><stop offset=".48" stop-color="#15CF74"/><stop offset=".8" stop-color="#06E775"/><stop offset="1" stop-color="#00F076"/></linearGradient><linearGradient id="d" x1="13.325" x2="-5.717" y1="14.656" y2="33.94" gradientUnits="userSpaceOnUse"><stop stop-color="#FF3A44"/><stop offset="1" stop-color="#C31162"/></linearGradient></defs></svg>