<svg width="24" height="30" viewBox="0 0 24 30" fill="none" xmlns="http://www.w3.org/2000/svg">
<path d="M19.9061 15.9251C19.9204 14.8087 20.2156 13.714 20.7641 12.743C21.3126 11.772 22.0966 10.9562 23.0432 10.3714C22.4419 9.5085 21.6485 8.79833 20.7262 8.29735C19.8039 7.79636 18.778 7.51836 17.7301 7.48541C15.4946 7.24965 13.3275 8.82943 12.1883 8.82943C11.0271 8.82943 9.27323 7.50882 7.38458 7.54786C6.16295 7.58752 4.97237 7.94445 3.92885 8.58388C2.88533 9.22331 2.02446 10.1234 1.43011 11.1965C-1.14448 15.6753 0.77593 22.2574 3.24217 25.8777C4.47609 27.6504 5.91818 29.6306 7.80513 29.5604C9.65162 29.4834 10.3413 28.3774 12.5701 28.3774C14.7783 28.3774 15.4253 29.5604 17.3506 29.5157C19.3319 29.4834 20.5803 27.7351 21.7709 25.9456C22.6575 24.6825 23.3397 23.2864 23.7923 21.8092C22.6412 21.32 21.6588 20.5012 20.9677 19.4548C20.2767 18.4085 19.9074 17.1809 19.9061 15.9251V15.9251Z" fill="white"/>
<path d="M16.2692 5.10683C17.3495 3.80377 17.8817 2.12891 17.7528 0.437927C16.1024 0.612105 14.5778 1.40469 13.4828 2.65775C12.9475 3.26991 12.5375 3.98207 12.2762 4.75353C12.015 5.525 11.9076 6.34063 11.9603 7.15381C12.7858 7.16235 13.6026 6.98256 14.3489 6.62799C15.0953 6.27342 15.7519 5.75331 16.2692 5.10683Z" fill="white"/>
</svg>
