<svg width="99" height="25" viewBox="0 0 99 25" fill="none" xmlns="http://www.w3.org/2000/svg">
<path d="M50.0916 14.2264C49.3828 14.2281 48.6905 14.4388 48.1021 14.8319C47.5137 15.2251 47.0558 15.7829 46.7861 16.435C46.5164 17.0871 46.4471 17.8041 46.587 18.4954C46.7269 19.1866 47.0697 19.8211 47.572 20.3185C48.0744 20.8159 48.7137 21.154 49.4092 21.2899C50.1046 21.4259 50.825 21.3536 51.4791 21.0822C52.1333 20.8108 52.6919 20.3526 53.0843 19.7654C53.4766 19.1782 53.6852 18.4884 53.6835 17.7833C53.6904 17.3129 53.602 16.8459 53.4237 16.4102C53.2454 15.9745 52.9808 15.5789 52.6457 15.247C52.3105 14.9152 51.9117 14.6538 51.4729 14.4784C51.0341 14.3031 50.5644 14.2174 50.0916 14.2264ZM50.0916 19.9425C49.6572 19.9727 49.2237 19.8722 48.8474 19.6541C48.4712 19.4359 48.1696 19.1102 47.9819 18.7193C47.7942 18.3284 47.729 17.8903 47.7948 17.462C47.8607 17.0337 48.0545 16.6351 48.3511 16.3179C48.6477 16.0007 49.0334 15.7796 49.458 15.6833C49.8826 15.587 50.3264 15.6201 50.7319 15.7781C51.1374 15.9362 51.4857 16.2119 51.7315 16.5695C51.9774 16.9271 52.1094 17.35 52.1105 17.7833C52.124 18.0578 52.0822 18.3322 51.9874 18.5904C51.8927 18.8486 51.7469 19.0852 51.5588 19.2865C51.3706 19.4877 51.1438 19.6494 50.8919 19.7621C50.6399 19.8748 50.3678 19.9361 50.0916 19.9425ZM42.2516 14.2264C41.5429 14.2281 40.8505 14.4388 40.2621 14.8319C39.6738 15.2251 39.2158 15.7829 38.9461 16.435C38.6764 17.0871 38.6071 17.8041 38.747 18.4954C38.8869 19.1866 39.2297 19.8211 39.7321 20.3185C40.2344 20.8159 40.8737 21.154 41.5692 21.2899C42.2646 21.4259 42.985 21.3536 43.6391 21.0822C44.2933 20.8108 44.8519 20.3526 45.2443 19.7654C45.6367 19.1782 45.8452 18.4884 45.8435 17.7833C45.8504 17.3129 45.762 16.8459 45.5837 16.4102C45.4054 15.9745 45.1408 15.5789 44.8057 15.247C44.4706 14.9152 44.0717 14.6538 43.6329 14.4784C43.1941 14.3031 42.7244 14.2174 42.2516 14.2264ZM42.2516 19.9425C41.8172 19.9727 41.3837 19.8722 41.0074 19.6541C40.6312 19.4359 40.3296 19.1102 40.1419 18.7193C39.9542 18.3284 39.889 17.8903 39.9549 17.462C40.0207 17.0337 40.2145 16.6351 40.5111 16.3179C40.8077 16.0007 41.1934 15.7796 41.618 15.6833C42.0426 15.587 42.4865 15.6201 42.8919 15.7781C43.2974 15.9362 43.6457 16.2119 43.8915 16.5695C44.1374 16.9271 44.2694 17.35 44.2705 17.7833C44.284 18.0578 44.2422 18.3322 44.1474 18.5904C44.0527 18.8486 43.9069 19.0852 43.7188 19.2865C43.5306 19.4877 43.3039 19.6494 43.0519 19.7621C42.7999 19.8748 42.5278 19.9361 42.2516 19.9425ZM32.9311 15.3228V16.8292H36.5651C36.5081 17.5387 36.2117 18.2082 35.7239 18.729C35.3594 19.0985 34.9209 19.3877 34.4369 19.578C33.953 19.7683 33.4342 19.8554 32.9143 19.8337C31.8434 19.8337 30.8164 19.4104 30.0592 18.6571C29.3019 17.9037 28.8765 16.882 28.8765 15.8165C28.8765 14.7511 29.3019 13.7294 30.0592 12.976C30.8164 12.2227 31.8434 11.7994 32.9143 11.7994C33.9409 11.7842 34.9322 12.1721 35.6734 12.879L36.7417 11.8162C36.2404 11.3228 35.6451 10.934 34.9907 10.6724C34.3364 10.4109 33.6362 10.2819 32.9311 10.293C32.1833 10.264 31.4373 10.3856 30.7378 10.6503C30.0383 10.9151 29.3997 11.3176 28.8603 11.8337C28.3209 12.3499 27.8918 12.9691 27.5987 13.6542C27.3056 14.3392 27.1545 15.0762 27.1545 15.8207C27.1545 16.5653 27.3056 17.3022 27.5987 17.9873C27.8918 18.6724 28.3209 19.2916 28.8603 19.8077C29.3997 20.3239 30.0383 20.7264 30.7378 20.9911C31.4373 21.2559 32.1833 21.3774 32.9311 21.3485C33.6507 21.377 34.3682 21.2539 35.0366 20.987C35.7049 20.7202 36.3089 20.3157 36.809 19.8002C37.6924 18.8347 38.1631 17.565 38.1213 16.2601C38.1243 15.946 38.099 15.6323 38.0456 15.3228H32.9311ZM71.0459 16.4944C70.8265 15.8523 70.4163 15.2916 69.8695 14.8866C69.3227 14.4816 68.6651 14.2514 67.9839 14.2264C67.5238 14.2255 67.0683 14.3185 66.6458 14.4997C66.2232 14.6809 65.8425 14.9463 65.5271 15.2797C65.2117 15.6131 64.9684 16.0072 64.8123 16.4378C64.6561 16.8685 64.5904 17.3264 64.6191 17.7833C64.6119 18.5472 64.8533 19.293 65.3073 19.9092C65.7613 20.5254 66.4035 20.979 67.1379 21.2021C67.8723 21.4253 68.6596 21.4061 69.3822 21.1474C70.1047 20.8886 70.7238 20.4043 71.1468 19.7667L69.9271 18.9298C69.7453 19.2313 69.4874 19.4803 69.179 19.6521C68.8706 19.8238 68.5224 19.9124 68.169 19.909C67.8044 19.924 67.4438 19.8289 67.1345 19.6362C66.8252 19.4435 66.5818 19.1623 66.4361 18.8294L71.2225 16.8627L71.0459 16.4944ZM66.1669 17.6828C66.1499 17.4229 66.1851 17.1621 66.2706 16.9159C66.3561 16.6697 66.4901 16.4429 66.6648 16.2488C66.8395 16.0548 67.0514 15.8973 67.288 15.7857C67.5246 15.6741 67.7812 15.6106 68.0428 15.5989C68.3138 15.5825 68.5837 15.646 68.8187 15.7814C69.0536 15.9169 69.2431 16.1184 69.3635 16.3605L66.1669 17.6828ZM62.2806 21.1309H63.8536V10.6696H62.2806V21.1309ZM59.7065 15.0215H59.6476C59.4126 14.7552 59.1226 14.5426 58.7974 14.3982C58.4722 14.2537 58.1195 14.1809 57.7633 14.1846C56.8441 14.2289 55.9772 14.6235 55.3423 15.2864C54.7075 15.9494 54.3534 16.8299 54.3534 17.7456C54.3534 18.6613 54.7075 19.5418 55.3423 20.2048C55.9772 20.8677 56.8441 21.2623 57.7633 21.3066C58.12 21.3137 58.4738 21.2424 58.7995 21.0977C59.1252 20.9531 59.4148 20.7386 59.6476 20.4697H59.7065V20.9802C59.7065 22.3444 58.9747 23.0725 57.797 23.0725C57.4036 23.0639 57.0216 22.9391 56.6996 22.7141C56.3776 22.4891 56.13 22.174 55.9884 21.8087L54.6257 22.3695C54.8776 22.999 55.3157 23.5377 55.8819 23.9143C56.4482 24.2908 57.1159 24.4876 57.797 24.4785C59.6392 24.4785 61.1618 23.3989 61.1618 20.771V14.4357H59.7065V15.0215ZM57.8979 19.9425C57.3468 19.9083 56.8295 19.6664 56.4513 19.266C56.0732 18.8656 55.8627 18.3368 55.8627 17.7874C55.8627 17.238 56.0732 16.7093 56.4513 16.3089C56.8295 15.9085 57.3468 15.6666 57.8979 15.6324C58.1673 15.644 58.4316 15.7093 58.6751 15.8246C58.9186 15.9399 59.1362 16.1027 59.3152 16.3033C59.4941 16.504 59.6307 16.7384 59.7167 16.9927C59.8027 17.2469 59.8364 17.5158 59.8159 17.7833C59.8388 18.0516 59.8068 18.3219 59.7218 18.5776C59.6368 18.8333 59.5005 19.0693 59.3212 19.2711C59.1419 19.4729 58.9234 19.6365 58.6787 19.7519C58.4341 19.8673 58.1685 19.9321 57.8979 19.9425ZM78.4148 10.6696H74.6462V21.1309H76.2193V17.164H78.4148C78.8631 17.196 79.3133 17.1358 79.7372 16.9871C80.1611 16.8385 80.5497 16.6045 80.8787 16.2998C81.2077 15.9952 81.4701 15.6264 81.6495 15.2163C81.829 14.8063 81.9216 14.364 81.9216 13.9168C81.9216 13.4696 81.829 13.0272 81.6495 12.6172C81.4701 12.2072 81.2077 11.8384 80.8787 11.5337C80.5497 11.2291 80.1611 10.9951 79.7372 10.8464C79.3133 10.6978 78.8631 10.6376 78.4148 10.6696ZM78.4148 15.691H76.2193V12.1258H78.4484C78.6849 12.1258 78.9189 12.1721 79.1373 12.2621C79.3558 12.3521 79.5542 12.4841 79.7214 12.6504C79.8885 12.8167 80.0211 13.0141 80.1116 13.2314C80.2021 13.4487 80.2486 13.6816 80.2486 13.9168C80.2486 14.152 80.2021 14.3849 80.1116 14.6022C80.0211 14.8194 79.8885 15.0169 79.7214 15.1832C79.5542 15.3495 79.3558 15.4814 79.1373 15.5714C78.9189 15.6614 78.6849 15.7077 78.4484 15.7077L78.4148 15.691ZM88.1222 14.193C87.5494 14.1578 86.9788 14.2905 86.4809 14.5746C85.983 14.8587 85.5798 15.2817 85.3211 15.7914L86.709 16.3689C86.8493 16.1173 87.0598 15.9115 87.315 15.7764C87.5703 15.6413 87.8594 15.5825 88.1475 15.6073C88.3472 15.5841 88.5495 15.6007 88.7427 15.6561C88.9359 15.7116 89.116 15.8047 89.2726 15.9301C89.4292 16.0555 89.5592 16.2107 89.6548 16.3867C89.7505 16.5626 89.81 16.7557 89.8299 16.9547V17.0552C89.324 16.7906 88.761 16.6527 88.1895 16.6534C86.6922 16.6534 85.1612 17.4903 85.1612 19.0135C85.176 19.3373 85.2561 19.6547 85.3966 19.9471C85.5372 20.2395 85.7354 20.5008 85.9794 20.7154C86.2234 20.9301 86.5083 21.0938 86.8172 21.1968C87.1261 21.2998 87.4526 21.34 87.7774 21.315C88.1721 21.3367 88.5655 21.2536 88.9174 21.0742C89.2692 20.8948 89.5667 20.6255 89.7794 20.294H89.8299V21.1309H91.344V17.1054C91.344 15.2726 89.9477 14.2097 88.1559 14.2097L88.1222 14.193ZM87.9288 19.9257C87.4156 19.9257 86.7006 19.6663 86.7006 19.0386C86.7006 18.2017 87.5923 17.9172 88.383 17.9172C88.8827 17.9049 89.3766 18.0263 89.8131 18.2687C89.7603 18.7232 89.5436 19.1432 89.2034 19.451C88.8631 19.7587 88.4222 19.9333 87.9624 19.9425L87.9288 19.9257ZM96.8623 14.4357L95.0622 18.9717H95.0117L93.1442 14.4357H91.4618L94.263 20.7794L92.6647 24.3027H94.3051L98.612 14.4357H96.8623ZM82.7302 21.1309H84.2948V10.6696H82.7302V21.1309Z" fill="#1F2226" stroke="#1F2226" stroke-width="0.170238" stroke-miterlimit="10"/>
<path d="M1.12705 2.30625C0.847701 2.63225 0.705164 3.05132 0.728621 3.47766V21.9859C0.699777 22.4129 0.842974 22.8339 1.12705 23.1573L1.18639 23.2242L11.6896 12.8573V12.6062L1.18639 2.24768L1.12705 2.30625Z" fill="url(#paint0_linear_574_29724)"/>
<path d="M15.1651 16.3127L11.6895 12.8571V12.606L15.1651 9.15039L15.2414 9.20059L19.4037 11.5267C20.5905 12.1877 20.5905 13.2754 19.4037 13.9448L15.2583 16.2709L15.1651 16.3127Z" fill="url(#paint1_linear_574_29724)"/>
<path d="M15.2664 9.20036L2.88124 2.2556C2.62949 2.0589 2.31554 1.95611 1.99459 1.96529C1.67364 1.97447 1.36625 2.09504 1.12646 2.30581L11.689 12.7313L15.2664 9.20036Z" fill="url(#paint2_linear_574_29724)"/>
<path opacity="0.2" d="M15.1647 16.1851L2.88124 23.088C2.63705 23.2699 2.33946 23.3683 2.03352 23.3683C1.72759 23.3683 1.43 23.2699 1.1858 23.088L1.12646 23.1466L1.1858 23.2135C1.43 23.3954 1.72759 23.4938 2.03352 23.4938C2.33946 23.4938 2.63705 23.3954 2.88124 23.2135L15.2664 16.2604L15.1647 16.1851Z" fill="black"/>
<path d="M15.2664 16.2623L11.689 12.7313L1.12646 23.1568C1.36601 23.3673 1.67262 23.4884 1.99313 23.4991C2.31364 23.5098 2.62784 23.4094 2.88124 23.2154L15.2664 16.2623Z" fill="url(#paint3_linear_574_29724)"/>
<path opacity="0.12" d="M1.12603 23.0402C0.853737 22.7084 0.720295 22.2863 0.753032 21.8605V21.986C0.724188 22.413 0.867383 22.834 1.15146 23.1574L1.2108 23.0988L1.12603 23.0402Z" fill="black"/>
<path opacity="0.12" d="M19.4039 13.8191L15.1653 16.187L15.2416 16.2623L19.4039 13.9362C19.6496 13.8337 19.8627 13.6676 20.0208 13.4556C20.179 13.2435 20.2763 12.9933 20.3025 12.7313C20.2495 12.9694 20.1405 13.1919 19.9844 13.3808C19.8284 13.5698 19.6295 13.7199 19.4039 13.8191Z" fill="black"/>
<path opacity="0.25" d="M2.8816 2.37346L19.4036 11.6443C19.6293 11.7435 19.8281 11.8936 19.9842 12.0825C20.1403 12.2714 20.2492 12.4939 20.3022 12.732C20.276 12.47 20.1787 12.2198 20.0206 12.0078C19.8625 11.7957 19.6493 11.6297 19.4036 11.5272L2.8816 2.25632C1.70327 1.58694 0.728394 2.13918 0.728394 3.47793V3.60343C0.753825 2.26469 1.70327 1.71245 2.8816 2.37346Z" fill="white"/>
<path d="M27.2776 7.05444V5.43519H27.7198C27.7663 5.32879 27.8096 5.22128 27.8495 5.11267C27.8894 5.00183 27.9259 4.8777 27.9592 4.74027C27.9946 4.60062 28.0268 4.44102 28.0556 4.26147C28.0866 4.08193 28.1155 3.86913 28.1421 3.62308C28.1731 3.36373 28.1975 3.10882 28.2152 2.85834C28.2329 2.60564 28.2462 2.36957 28.2551 2.15012C28.2662 1.93068 28.2728 1.73229 28.2751 1.55496C28.2795 1.37762 28.2828 1.23243 28.285 1.11938H31.3573V5.43519H31.9092V7.05444H31.2974V6.00708H27.8894V7.05444H27.2776ZM28.8968 1.69128C28.8968 2.00826 28.8835 2.32413 28.8569 2.63889C28.8325 2.95366 28.8026 3.27064 28.7671 3.58983C28.7428 3.84253 28.7173 4.05754 28.6907 4.23487C28.6663 4.40999 28.6397 4.56626 28.6109 4.70369C28.5843 4.83891 28.5532 4.96415 28.5178 5.07942C28.4845 5.19246 28.4457 5.31105 28.4014 5.43519H30.6857V1.69128H28.8968ZM34.9332 4.22158C34.9332 4.02429 34.9111 3.84364 34.8667 3.67961C34.8224 3.51336 34.7559 3.37038 34.6672 3.25069C34.5786 3.13099 34.4688 3.03789 34.3381 2.97139C34.2095 2.90267 34.0599 2.86832 33.8892 2.86832C33.7185 2.86832 33.5689 2.90267 33.4403 2.97139C33.3118 3.03789 33.2031 3.13099 33.1145 3.25069C33.0258 3.37038 32.9593 3.51336 32.915 3.67961C32.8706 3.84364 32.8485 4.02429 32.8485 4.22158C32.8485 4.42107 32.8706 4.60505 32.915 4.77352C32.9593 4.93977 33.0258 5.08274 33.1145 5.20244C33.2031 5.32214 33.3118 5.41635 33.4403 5.48506C33.5689 5.55156 33.7185 5.58481 33.8892 5.58481C34.0599 5.58481 34.2095 5.55156 34.3381 5.48506C34.4688 5.41635 34.5786 5.32214 34.6672 5.20244C34.7559 5.08274 34.8224 4.93977 34.8667 4.77352C34.9111 4.60505 34.9332 4.42107 34.9332 4.22158ZM35.545 4.22158C35.545 4.51417 35.5073 4.77795 35.432 5.01292C35.3566 5.24566 35.248 5.44405 35.1061 5.60808C34.9643 5.77212 34.7903 5.89846 34.5841 5.98713C34.3802 6.07358 34.1485 6.1168 33.8892 6.1168C33.6298 6.1168 33.3982 6.07358 33.1943 5.98713C32.9903 5.89846 32.8174 5.77212 32.6756 5.60808C32.5337 5.44405 32.4251 5.24566 32.3497 5.01292C32.2744 4.77795 32.2367 4.51417 32.2367 4.22158C32.2367 3.93341 32.2744 3.67296 32.3497 3.44021C32.4251 3.20746 32.5337 3.00907 32.6756 2.84504C32.8174 2.68101 32.9903 2.55577 33.1943 2.46932C33.3982 2.38065 33.6298 2.33632 33.8892 2.33632C34.1485 2.33632 34.3802 2.38065 34.5841 2.46932C34.7903 2.55577 34.9643 2.68101 35.1061 2.84504C35.248 3.00907 35.3566 3.20746 35.432 3.44021C35.5073 3.67296 35.545 3.93341 35.545 4.22158ZM39.1043 4.75357C39.0955 4.84002 39.0777 4.93423 39.0511 5.03619C39.0267 5.13816 38.9902 5.24012 38.9414 5.34209C38.8926 5.44184 38.8295 5.53826 38.7519 5.63136C38.6765 5.72446 38.5834 5.80758 38.4726 5.88073C38.364 5.95166 38.2354 6.00819 38.0869 6.0503C37.9384 6.09464 37.7688 6.1168 37.5782 6.1168C37.474 6.1168 37.3643 6.1035 37.249 6.0769C37.1337 6.05252 37.0207 6.01041 36.9098 5.95056C36.8012 5.89071 36.6971 5.81423 36.5973 5.72113C36.4998 5.62582 36.4133 5.50834 36.338 5.36869C36.2648 5.22904 36.2061 5.06722 36.1617 4.88324C36.1174 4.69704 36.0952 4.48425 36.0952 4.24485C36.0952 3.95004 36.1373 3.68515 36.2216 3.45018C36.3058 3.213 36.4178 3.0124 36.5574 2.84837C36.6993 2.68433 36.8633 2.55799 37.0495 2.46932C37.2379 2.38065 37.4352 2.33632 37.6413 2.33632C37.8275 2.33632 37.9916 2.35627 38.1334 2.39617C38.2775 2.43607 38.4028 2.48927 38.5092 2.55577C38.6156 2.62227 38.7053 2.69985 38.7785 2.78852C38.8516 2.87497 38.9104 2.96696 38.9547 3.06449C39.0013 3.1598 39.0356 3.25734 39.0578 3.35708C39.0822 3.45683 39.0977 3.55215 39.1043 3.64303H38.5324C38.5014 3.40142 38.4172 3.21189 38.2797 3.07446C38.1445 2.93703 37.9539 2.86832 37.7078 2.86832C37.5394 2.86832 37.392 2.90267 37.2656 2.97139C37.1415 3.04011 37.0373 3.13653 36.9531 3.26066C36.8711 3.38258 36.809 3.53109 36.7669 3.70621C36.727 3.8791 36.707 4.06974 36.707 4.2781C36.707 4.51306 36.7292 4.71589 36.7735 4.88657C36.8179 5.05503 36.881 5.19468 36.963 5.30551C37.0451 5.41413 37.1448 5.49504 37.2623 5.54824C37.382 5.59922 37.5172 5.62471 37.6679 5.62471C37.7743 5.62471 37.8752 5.60587 37.9705 5.56819C38.0658 5.52829 38.1512 5.47176 38.2265 5.39861C38.3019 5.32325 38.3662 5.23126 38.4194 5.12264C38.4726 5.01402 38.5103 4.891 38.5324 4.75357H39.1043ZM40.7252 2.97804H39.4983V2.44605H42.5639V2.97804H41.337V6.00708H40.7252V2.97804ZM42.878 2.44605H43.5497L44.4973 5.34541H44.5106L45.4582 2.44605H46.1298L44.7699 6.15005C44.7012 6.33625 44.638 6.49807 44.5804 6.6355C44.5228 6.77293 44.4662 6.8893 44.4108 6.98462C44.3554 7.08215 44.2989 7.16084 44.2413 7.22069C44.1858 7.28054 44.1238 7.32709 44.0551 7.36034C43.9886 7.39581 43.9132 7.41908 43.829 7.43016C43.7469 7.44346 43.6516 7.45011 43.543 7.45011C43.4543 7.45011 43.3845 7.44568 43.3335 7.43681C43.2848 7.43016 43.2416 7.4213 43.2039 7.41021V6.85827C43.2438 6.87157 43.2959 6.88487 43.3601 6.89817C43.4244 6.91147 43.492 6.91812 43.563 6.91812C43.676 6.91812 43.7669 6.89041 43.8356 6.835C43.9065 6.7818 43.9609 6.70532 43.9985 6.60557L44.198 6.1035L42.878 2.44605ZM48.9975 2.97804H47.3351V6.00708H46.7233V2.44605H49.6127V6.00708H48.9975V2.97804ZM50.5818 2.44605H51.1936V3.88243H52.8561V2.44605H53.4712V6.00708H52.8561V4.41442H51.1936V6.00708H50.5818V2.44605ZM56.9275 4.22158C56.9275 4.02429 56.9053 3.84364 56.861 3.67961C56.8166 3.51336 56.7501 3.37038 56.6615 3.25069C56.5728 3.13099 56.4631 3.03789 56.3323 2.97139C56.2037 2.90267 56.0541 2.86832 55.8834 2.86832C55.7127 2.86832 55.5631 2.90267 55.4345 2.97139C55.306 3.03789 55.1974 3.13099 55.1087 3.25069C55.02 3.37038 54.9535 3.51336 54.9092 3.67961C54.8649 3.84364 54.8427 4.02429 54.8427 4.22158C54.8427 4.42107 54.8649 4.60505 54.9092 4.77352C54.9535 4.93977 55.02 5.08274 55.1087 5.20244C55.1974 5.32214 55.306 5.41635 55.4345 5.48506C55.5631 5.55156 55.7127 5.58481 55.8834 5.58481C56.0541 5.58481 56.2037 5.55156 56.3323 5.48506C56.4631 5.41635 56.5728 5.32214 56.6615 5.20244C56.7501 5.08274 56.8166 4.93977 56.861 4.77352C56.9053 4.60505 56.9275 4.42107 56.9275 4.22158ZM57.5392 4.22158C57.5392 4.51417 57.5016 4.77795 57.4262 5.01292C57.3508 5.24566 57.2422 5.44405 57.1004 5.60808C56.9585 5.77212 56.7845 5.89846 56.5783 5.98713C56.3744 6.07358 56.1428 6.1168 55.8834 6.1168C55.6241 6.1168 55.3924 6.07358 55.1885 5.98713C54.9846 5.89846 54.8117 5.77212 54.6698 5.60808C54.5279 5.44405 54.4193 5.24566 54.344 5.01292C54.2686 4.77795 54.2309 4.51417 54.2309 4.22158C54.2309 3.93341 54.2686 3.67296 54.344 3.44021C54.4193 3.20746 54.5279 3.00907 54.6698 2.84504C54.8117 2.68101 54.9846 2.55577 55.1885 2.46932C55.3924 2.38065 55.6241 2.33632 55.8834 2.33632C56.1428 2.33632 56.3744 2.38065 56.5783 2.46932C56.7845 2.55577 56.9585 2.68101 57.1004 2.84504C57.2422 3.00907 57.3508 3.20746 57.4262 3.44021C57.5016 3.67296 57.5392 3.93341 57.5392 4.22158ZM60.2623 2.44605H61.7784C62.2129 2.44605 62.5376 2.52695 62.7527 2.68877C62.9699 2.85058 63.0785 3.08555 63.0785 3.39366C63.0785 3.55769 63.0386 3.69623 62.9588 3.80928C62.879 3.92233 62.7737 4.02208 62.6429 4.10853C62.8313 4.17946 62.981 4.28142 63.0918 4.41442C63.2026 4.54742 63.2581 4.71921 63.2581 4.92979C63.2581 5.09604 63.2303 5.24566 63.1749 5.37866C63.1195 5.51166 63.0353 5.62471 62.9222 5.71781C62.8092 5.81091 62.6651 5.88295 62.49 5.93393C62.3171 5.9827 62.112 6.00708 61.8749 6.00708H60.2623V2.44605ZM60.8741 5.51831H61.805C61.9669 5.51831 62.101 5.50612 62.2074 5.48174C62.316 5.45514 62.4024 5.41745 62.4667 5.36869C62.531 5.31992 62.5764 5.26118 62.603 5.19246C62.6296 5.12375 62.6429 5.04617 62.6429 4.95972C62.6429 4.87327 62.6296 4.79569 62.603 4.72697C62.5764 4.65604 62.531 4.5973 62.4667 4.55075C62.4024 4.50198 62.316 4.46541 62.2074 4.44102C62.101 4.41442 61.9669 4.40112 61.805 4.40112H60.8741V5.51831ZM60.8741 3.95225H61.7984C62.0045 3.95225 62.1675 3.91125 62.2872 3.82923C62.4069 3.74721 62.4667 3.61976 62.4667 3.44686C62.4667 3.34933 62.4501 3.26842 62.4168 3.20414C62.3836 3.13764 62.3393 3.08444 62.2838 3.04454C62.2284 3.00464 62.1652 2.97693 62.0943 2.96141C62.0256 2.94368 61.9547 2.93481 61.8815 2.93481H60.8741V3.95225Z" fill="#1F2226"/>
<defs>
<linearGradient id="paint0_linear_574_29724" x1="10.7571" y1="3.28521" x2="-3.28179" y2="17.5087" gradientUnits="userSpaceOnUse">
<stop stop-color="#00A0FF"/>
<stop offset="0.01" stop-color="#00A1FF"/>
<stop offset="0.26" stop-color="#00BEFF"/>
<stop offset="0.51" stop-color="#00D2FF"/>
<stop offset="0.76" stop-color="#00DFFF"/>
<stop offset="1" stop-color="#00E3FF"/>
</linearGradient>
<linearGradient id="paint1_linear_574_29724" x1="20.955" y1="12.7315" x2="0.448705" y2="12.7315" gradientUnits="userSpaceOnUse">
<stop stop-color="#FFE000"/>
<stop offset="0.41" stop-color="#FFBD00"/>
<stop offset="0.78" stop-color="#FFA500"/>
<stop offset="1" stop-color="#FF9C00"/>
</linearGradient>
<linearGradient id="paint2_linear_574_29724" x1="-1.53537" y1="-3.85244" x2="6.96496" y2="4.75965" gradientUnits="userSpaceOnUse">
<stop stop-color="#32A071"/>
<stop offset="0.07" stop-color="#2DA771"/>
<stop offset="0.48" stop-color="#15CF74"/>
<stop offset="0.8" stop-color="#06E775"/>
<stop offset="1" stop-color="#00F076"/>
</linearGradient>
<linearGradient id="paint3_linear_574_29724" x1="13.3251" y1="14.6558" x2="-5.71704" y2="33.9398" gradientUnits="userSpaceOnUse">
<stop stop-color="#FF3A44"/>
<stop offset="1" stop-color="#C31162"/>
</linearGradient>
</defs>
</svg>
