<svg width="117" height="27" viewBox="0 0 117 27" fill="none" xmlns="http://www.w3.org/2000/svg">
<path d="M16.0852 4.09839H4.94285C2.61358 4.09839 0.725342 5.98663 0.725342 8.31589V19.4583C0.725342 21.7875 2.61358 23.6758 4.94285 23.6758H16.0852C18.4145 23.6758 20.3027 21.7875 20.3027 19.4583V8.31589C20.3027 5.98663 18.4145 4.09839 16.0852 4.09839Z" fill="#E14459"/>
<path d="M5.49924 5.37634C5.19125 5.37634 4.94287 5.62473 4.94287 5.93107C4.94287 6.2374 5.19291 6.48578 5.49924 6.48578C5.80724 6.48578 6.05562 6.2374 6.05562 5.93107C6.05562 5.62307 5.80558 5.37634 5.49759 5.37634H5.49924ZM15.461 5.37634C15.153 5.37634 14.9046 5.62473 14.9046 5.93107C14.9046 6.2374 15.1546 6.48578 15.4626 6.48578C15.7706 6.48578 16.019 6.2374 16.019 5.93107C16.019 5.62307 15.769 5.37634 15.461 5.37634Z" fill="#C73148"/>
<path d="M5.4758 5.8573C5.28206 5.86724 5.292 6.14874 5.292 6.14874C6.33189 8.17552 8.24773 9.16905 10.4567 9.16905C12.6623 9.16573 14.5963 8.16062 15.6362 6.1388C15.6362 6.1388 15.6776 5.75795 15.2719 5.89042C14.2072 7.65558 12.4172 8.70043 10.4583 8.70375C8.49611 8.70375 6.71274 7.67048 5.6447 5.90201C5.57515 5.86889 5.52051 5.8573 5.4758 5.85896V5.8573ZM12.5166 13.731L11.9254 15.4928L11.3492 13.731H10.7862L11.6936 16.2926H12.1307L12.7236 14.6102L13.3164 16.2926H13.7585L14.6642 13.731H14.1161L13.5382 15.4928L12.9471 13.731H12.5166ZM9.37372 13.731L8.2262 16.2926H8.76602L8.98791 15.7975L9.00446 15.7594H10.1967L10.4302 16.2926H10.9849L9.8473 13.7459L9.83737 13.731H9.37538H9.37372ZM17.6895 13.731V16.291H18.2111V13.731H17.6895ZM2.72705 13.731V16.2943H3.25527V15.2527H4.44916V16.2926H4.97904V13.7293H4.45081V14.7626H3.25693V13.7293H2.72705V13.731ZM7.42807 13.731V15.1981C7.42807 15.6154 7.21778 15.8372 6.83527 15.8372C6.45276 15.8372 6.23916 15.6087 6.23916 15.1799V13.7326H5.70928V15.1981C5.70928 15.9184 6.11662 16.3324 6.82699 16.3324C7.53736 16.3324 7.95464 15.9118 7.95464 15.1766V13.731H7.42642H7.42807ZM15.0931 13.731V16.291H17.0619V15.824H15.6147V15.1898H16.5768V14.7228H15.6147V14.1996H17.0106V13.7326H15.0931V13.731ZM9.59892 14.3768L9.97646 15.2345L10.003 15.2941H9.20317L9.22801 15.2345L9.60058 14.3768H9.59892Z" fill="white"/>
<path d="M30.769 5.34329C30.9051 5.34329 31.0277 5.32286 31.1299 5.27519C31.232 5.23434 31.3137 5.17986 31.3818 5.10496C31.4499 5.03686 31.4976 4.94834 31.5316 4.85981C31.5589 4.77129 31.5793 4.68277 31.5793 4.58743C31.5793 4.43762 31.5452 4.30824 31.4908 4.19929C31.4295 4.09034 31.3478 4.00862 31.2456 3.93372C31.1367 3.87243 31.0141 3.81796 30.8711 3.79072C30.7281 3.76348 30.5715 3.74305 30.4012 3.74305C30.197 3.74305 30.0063 3.7771 29.8497 3.83158C29.6862 3.89286 29.55 3.96777 29.4479 4.06991C29.339 4.16524 29.2572 4.281 29.2096 4.41039C29.1551 4.53977 29.1279 4.68277 29.1347 4.82577H28.5218C28.5218 4.61467 28.549 4.43081 28.5967 4.26738C28.6444 4.10396 28.7125 3.96096 28.801 3.83839C28.8895 3.71581 28.9917 3.61367 29.1142 3.52515C29.2368 3.44343 29.3662 3.37534 29.5092 3.32086C29.6454 3.26638 29.7952 3.22553 29.9518 3.2051C30.1084 3.18467 30.265 3.17105 30.4217 3.17105C30.6872 3.17105 30.9256 3.19829 31.1435 3.25277C31.3614 3.31405 31.5384 3.39577 31.695 3.50472C31.8517 3.62048 31.9742 3.76348 32.0628 3.92691C32.1445 4.09715 32.1921 4.28781 32.1921 4.51253C32.1921 4.76448 32.1377 4.97558 32.0423 5.15262C31.947 5.32967 31.7768 5.45905 31.5316 5.54758V5.56119C31.661 5.60205 31.7768 5.64972 31.8789 5.71781C31.981 5.78591 32.0764 5.86762 32.1513 5.96977C32.233 6.07191 32.2875 6.19448 32.3351 6.33067C32.376 6.46686 32.3964 6.62348 32.3964 6.80053C32.3964 7.04567 32.342 7.26358 32.233 7.45424C32.124 7.64491 31.981 7.80153 31.7972 7.9241C31.6133 8.05348 31.4022 8.14881 31.1639 8.2101C30.9256 8.27819 30.6736 8.30543 30.408 8.30543C30.1289 8.30543 29.8701 8.27819 29.6318 8.23053C29.3866 8.17605 29.1755 8.08753 28.9917 7.97177C28.8146 7.84919 28.6648 7.69258 28.5559 7.4951C28.4401 7.29762 28.3788 7.05929 28.3652 6.77329H29.0053C29.0121 6.90948 29.0461 7.04567 29.1074 7.16143C29.1551 7.27719 29.2368 7.37934 29.3458 7.46105C29.4547 7.54958 29.5909 7.61767 29.7543 7.65853C29.9178 7.713 30.122 7.73343 30.3536 7.73343C30.5579 7.73343 30.7553 7.71981 30.9256 7.67896C31.0958 7.64491 31.2456 7.59043 31.3682 7.50872C31.484 7.43381 31.5793 7.33167 31.6474 7.2091C31.7087 7.08653 31.7427 6.93672 31.7427 6.76648C31.7427 6.6371 31.7223 6.52134 31.6814 6.41239C31.6406 6.31024 31.5725 6.21491 31.4908 6.14C31.409 6.05829 31.3001 5.997 31.1775 5.95615C31.0481 5.91529 30.8983 5.89486 30.7281 5.89486H29.8837V5.34329H30.769ZM33.1796 5.69058C33.1864 5.47267 33.2273 5.28881 33.3022 5.139C33.3771 4.98919 33.4792 4.86662 33.6086 4.7781C33.738 4.68277 33.8878 4.61467 34.0649 4.57381C34.2419 4.53296 34.4326 4.51253 34.6437 4.51253C34.8139 4.51253 34.9842 4.52615 35.1476 4.567C35.311 4.60105 35.454 4.65553 35.5766 4.73724C35.706 4.81215 35.8081 4.9211 35.883 5.04367C35.9647 5.16624 35.9988 5.32286 35.9988 5.49991V7.57C35.9988 7.62448 36.0124 7.67896 36.0464 7.71981C36.0737 7.76067 36.1282 7.7811 36.1962 7.7811C36.2235 7.7811 36.2575 7.77429 36.2916 7.76748C36.3256 7.76748 36.3597 7.76067 36.3937 7.75386V8.17605C36.3461 8.18967 36.2916 8.20329 36.2439 8.2101C36.1962 8.22372 36.135 8.23053 36.0669 8.23053C35.9579 8.23053 35.8694 8.21691 35.7945 8.20329C35.7128 8.18286 35.6515 8.15562 35.597 8.11477C35.5493 8.07391 35.5085 8.01943 35.4744 7.95134C35.4472 7.89005 35.4336 7.80834 35.42 7.713C35.3451 7.79472 35.2633 7.86962 35.1816 7.93772C35.0999 8.01262 35.0046 8.07391 34.8956 8.12158C34.7935 8.17605 34.6777 8.21691 34.5483 8.25096C34.419 8.27819 34.276 8.29181 34.1125 8.29181C33.9763 8.29181 33.847 8.27139 33.7176 8.22372C33.5882 8.18286 33.4656 8.11477 33.3635 8.03305C33.2613 7.94453 33.1796 7.83558 33.1183 7.70619C33.0502 7.58362 33.023 7.43381 33.023 7.26358C33.023 7.07972 33.0502 6.9231 33.1183 6.78691C33.1796 6.65072 33.2613 6.54177 33.3567 6.45324C33.4588 6.35791 33.5746 6.29662 33.704 6.24215C33.8333 6.19448 33.9627 6.16724 34.0921 6.14681L35.0931 6.02424C35.1884 6.01743 35.2633 5.97658 35.3178 5.91529C35.3723 5.84719 35.3995 5.75186 35.3995 5.60886C35.3995 5.39096 35.3314 5.24115 35.1884 5.14581C35.0454 5.05048 34.848 5.00281 34.5824 5.00281C34.31 5.00281 34.1125 5.0641 33.9763 5.17305C33.847 5.28881 33.7652 5.45905 33.7516 5.69058H33.1796ZM35.3859 6.37153C35.3382 6.40558 35.277 6.43281 35.2089 6.46005C35.134 6.48048 35.0522 6.50091 34.9705 6.51453C34.882 6.53496 34.7867 6.54858 34.6913 6.55539L34.3985 6.59624C34.2896 6.61667 34.1874 6.63029 34.0921 6.66434C34.0036 6.69158 33.9219 6.73243 33.8538 6.77329C33.7789 6.82096 33.7312 6.88224 33.6903 6.94353C33.6563 7.01162 33.6359 7.08653 33.6359 7.17505C33.6359 7.27719 33.6495 7.36572 33.6835 7.44743C33.7176 7.52234 33.7584 7.59043 33.8197 7.6381C33.8742 7.69258 33.9423 7.73343 34.0172 7.76067C34.0989 7.78791 34.1874 7.80153 34.2828 7.80153C34.3441 7.80153 34.4122 7.79472 34.4871 7.77429C34.5688 7.76067 34.6437 7.74705 34.7254 7.713C34.8139 7.68577 34.8888 7.64491 34.9705 7.60405C35.0454 7.55639 35.1203 7.50191 35.1816 7.44062C35.2429 7.37253 35.2906 7.30443 35.3314 7.21591C35.3655 7.13419 35.3859 7.04567 35.3859 6.94353V6.37153ZM39.2514 5.15262H37.6512V8.18286H37.0383V4.62148H39.2514V5.15262ZM40.4317 5.11177H40.4453C40.4861 5.03005 40.5338 4.94834 40.5951 4.88024C40.6564 4.80534 40.7313 4.74405 40.8198 4.68277C40.9015 4.6351 40.9969 4.58743 41.1126 4.56019C41.2216 4.52615 41.351 4.51253 41.494 4.51253C41.6846 4.51253 41.8685 4.54658 42.0455 4.62148C42.2226 4.69639 42.3724 4.80534 42.5086 4.94834C42.6448 5.09815 42.7537 5.282 42.8286 5.49991C42.9103 5.72462 42.9512 5.97658 42.9512 6.26939C42.9512 6.6371 42.9171 6.94353 42.8422 7.20229C42.7673 7.46105 42.6652 7.66534 42.5222 7.82877C42.386 7.99219 42.2226 8.10796 42.0319 8.18286C41.8344 8.25777 41.6233 8.29181 41.385 8.29181C41.2692 8.29181 41.1603 8.27819 41.0581 8.24415C40.956 8.21691 40.8607 8.17605 40.7858 8.12158C40.6972 8.07391 40.6291 8.01943 40.5747 7.95815C40.5202 7.89686 40.4725 7.83558 40.4453 7.7811H40.4317V9.58562H39.8188V4.62148H40.4317V5.11177ZM40.418 6.41919C40.418 6.61667 40.4385 6.78691 40.4725 6.95034C40.5134 7.11377 40.5679 7.25677 40.6496 7.37934C40.7245 7.4951 40.8266 7.59043 40.9492 7.65853C41.065 7.72662 41.2011 7.76067 41.3646 7.76067C41.5348 7.76067 41.6778 7.72662 41.8072 7.65853C41.9298 7.59043 42.0251 7.4951 42.1068 7.37934C42.1885 7.25677 42.243 7.11377 42.2839 6.95034C42.3179 6.78691 42.3383 6.61667 42.3383 6.41919C42.3383 6.21491 42.3179 6.03786 42.2839 5.86762C42.243 5.69739 42.1885 5.55439 42.1068 5.43181C42.0251 5.30924 41.9298 5.21391 41.8072 5.14581C41.6778 5.07772 41.5348 5.04367 41.3646 5.04367C41.2011 5.04367 41.065 5.07772 40.9492 5.14581C40.8266 5.21391 40.7245 5.30924 40.6496 5.43181C40.5679 5.55439 40.5134 5.69739 40.4725 5.86762C40.4385 6.03786 40.418 6.21491 40.418 6.41919ZM44.9509 7.52234H44.9645L45.911 4.62148H46.5852L45.2233 8.32586C45.1552 8.50972 45.0939 8.67315 45.0326 8.80934C44.9781 8.94553 44.9237 9.0681 44.8624 9.16343C44.8079 9.25877 44.7534 9.33367 44.699 9.39496C44.6445 9.45624 44.5764 9.50391 44.5151 9.53796C44.4402 9.572 44.3721 9.59924 44.2836 9.60605C44.2019 9.61967 44.1065 9.62648 43.9976 9.62648C43.909 9.62648 43.841 9.61967 43.7933 9.61286C43.7388 9.60605 43.6911 9.59924 43.6571 9.58562V9.03405C43.698 9.04767 43.7524 9.06129 43.8137 9.07491C43.875 9.08853 43.9499 9.09534 44.018 9.09534C44.127 9.09534 44.2223 9.0681 44.2904 9.01362C44.3653 8.95915 44.413 8.88424 44.4538 8.7821L44.6513 8.27819L43.3302 4.62148H44.0044L44.9509 7.52234ZM48.4101 6.12639C48.4919 6.12639 48.5736 6.11277 48.6621 6.09234C48.7506 6.07191 48.8323 6.04467 48.9072 5.997C48.9821 5.95615 49.0366 5.90167 49.0911 5.83358C49.1388 5.76548 49.1592 5.67696 49.1592 5.58162C49.1592 5.51353 49.1456 5.44543 49.1183 5.37734C49.0843 5.31605 49.0366 5.25477 48.9821 5.2071C48.9209 5.15262 48.8528 5.11858 48.7574 5.08453C48.6689 5.05729 48.5668 5.04367 48.451 5.04367C48.3897 5.04367 48.3148 5.05729 48.2331 5.07091C48.1446 5.08453 48.0629 5.11858 47.9879 5.16624C47.8994 5.21391 47.8313 5.282 47.77 5.37053C47.7088 5.45905 47.6611 5.57481 47.6475 5.711H47.0755C47.0891 5.55439 47.1231 5.41139 47.1708 5.28881C47.2185 5.17305 47.2798 5.0641 47.3547 4.97558C47.4296 4.88705 47.5113 4.81215 47.5998 4.75767C47.6951 4.69639 47.7905 4.64872 47.8858 4.61467C47.9879 4.57381 48.0833 4.55338 48.1854 4.53296C48.2876 4.51934 48.3829 4.51253 48.4714 4.51253C48.628 4.51253 48.7847 4.53296 48.9413 4.57381C49.0979 4.61467 49.2409 4.67596 49.3635 4.75767C49.486 4.83939 49.5814 4.94834 49.6563 5.07091C49.7312 5.20029 49.772 5.34329 49.772 5.51353C49.772 5.62929 49.7516 5.71781 49.7244 5.79953C49.6971 5.88805 49.6563 5.95615 49.6018 6.02424C49.5541 6.08553 49.4997 6.13319 49.4316 6.18086C49.3703 6.22172 49.309 6.25577 49.2545 6.28981V6.30343C49.3158 6.31705 49.3839 6.33748 49.4588 6.37153C49.5337 6.40558 49.6018 6.45324 49.6699 6.51453C49.7312 6.58262 49.7857 6.66434 49.8333 6.75967C49.8742 6.86181 49.8946 6.97758 49.8946 7.12058C49.8946 7.32486 49.8469 7.4951 49.7652 7.6381C49.6835 7.78791 49.5678 7.90367 49.4316 8.00581C49.2954 8.10115 49.1388 8.17605 48.9685 8.22372C48.7915 8.27139 48.6212 8.29181 48.4442 8.29181C48.2195 8.29181 48.0152 8.26458 47.8313 8.20329C47.6475 8.14881 47.4909 8.0671 47.3547 7.95815C47.2253 7.856 47.1163 7.72662 47.0414 7.57681C46.9597 7.427 46.912 7.26358 46.8984 7.08653H47.5113C47.5317 7.21591 47.5658 7.32486 47.627 7.41339C47.6883 7.4951 47.7564 7.57 47.8449 7.61767C47.9267 7.66534 48.022 7.70619 48.1241 7.72662C48.2263 7.75386 48.3284 7.76067 48.4374 7.76067C48.7166 7.76067 48.9277 7.70619 49.0707 7.59043C49.2137 7.47467 49.2818 7.32486 49.2818 7.13419C49.2818 7.05248 49.2681 6.97758 49.2477 6.91629C49.2205 6.855 49.1728 6.79372 49.1183 6.75286C49.057 6.70519 48.9753 6.67115 48.88 6.64391C48.7779 6.62348 48.6553 6.61667 48.5123 6.61667H48.4169C48.3761 6.61667 48.342 6.61667 48.3012 6.62348H48.1922L48.0969 6.6371V6.12639H48.4101ZM51.2633 7.3521H51.2769L53.027 4.62148H53.7284V8.18286H53.1087V5.45224H53.0951L51.3519 8.18286H50.6505V4.62148H51.2633V7.3521ZM54.4094 4.62148H57.4737V5.15262H56.248V8.18286H55.6351V5.15262H54.4094V4.62148ZM61.1917 7.04567C61.1712 7.20229 61.1168 7.3521 61.0351 7.50191C60.9533 7.65172 60.8444 7.7811 60.7082 7.89686C60.5788 8.01943 60.4222 8.11477 60.2451 8.18286C60.0613 8.25777 59.857 8.29181 59.6391 8.29181C59.4008 8.29181 59.1829 8.25096 58.9786 8.17605C58.7743 8.09434 58.5972 7.97858 58.4542 7.81515C58.3044 7.65853 58.1887 7.46105 58.107 7.22272C58.0184 6.98439 57.9776 6.69839 57.9776 6.37834C57.9776 6.16043 57.998 5.96296 58.0525 5.78591C58.1001 5.60886 58.1614 5.45224 58.2431 5.31605C58.3249 5.17986 58.4202 5.05729 58.5223 4.95515C58.6313 4.853 58.7402 4.77129 58.8628 4.70319C58.9786 4.64191 59.1011 4.59424 59.2237 4.56019C59.3463 4.52615 59.4689 4.51253 59.5846 4.51253C59.8298 4.51253 60.0477 4.54658 60.252 4.62148C60.4562 4.69639 60.6265 4.80534 60.7763 4.95515C60.9193 5.10496 61.0282 5.29562 61.1168 5.51353C61.1917 5.74505 61.2325 6.01062 61.2325 6.31024V6.61667H58.6313C58.6313 6.78691 58.6585 6.94353 58.7062 7.08653C58.7471 7.22953 58.8151 7.34529 58.9037 7.44743C58.9854 7.54958 59.0943 7.62448 59.2169 7.67896C59.3395 7.73343 59.4757 7.76067 59.6323 7.76067C59.7889 7.76067 59.9251 7.74024 60.0341 7.69258C60.143 7.65172 60.2315 7.59724 60.3064 7.52234C60.3813 7.45424 60.4358 7.37934 60.4835 7.29762C60.5311 7.2091 60.5652 7.12739 60.5992 7.04567H61.1917ZM60.6197 6.12639C60.6129 5.95615 60.5856 5.79953 60.5448 5.66334C60.4903 5.52715 60.4222 5.41819 60.3405 5.32286C60.2588 5.23434 60.1498 5.16624 60.0341 5.11177C59.9115 5.0641 59.7821 5.04367 59.6323 5.04367C59.4961 5.04367 59.3667 5.07091 59.251 5.12539C59.1284 5.17986 59.0262 5.25477 58.9377 5.3501C58.8492 5.44543 58.7811 5.56119 58.7266 5.69058C58.6721 5.82677 58.6381 5.96977 58.6313 6.12639H60.6197ZM65.4952 4.62148C65.931 4.62148 66.251 4.70319 66.4689 4.86662C66.6868 5.03005 66.789 5.26158 66.789 5.568C66.789 5.73143 66.7549 5.87443 66.6732 5.98339C66.5915 6.09915 66.4894 6.19448 66.36 6.283C66.5438 6.3511 66.6937 6.46005 66.8026 6.58943C66.9184 6.72562 66.9728 6.89586 66.9728 7.10696C66.9728 7.27039 66.9456 7.42019 66.8911 7.55639C66.8298 7.68577 66.7481 7.80153 66.6392 7.89686C66.5234 7.98539 66.3804 8.05348 66.2102 8.10796C66.0331 8.15562 65.822 8.18286 65.5905 8.18286H63.9767V4.62148H65.4952ZM65.5156 6.12639C65.7199 6.12639 65.8833 6.08553 65.9991 6.00381C66.1217 5.9221 66.1829 5.79272 66.1829 5.62248C66.1829 5.52715 66.1625 5.44543 66.1285 5.37734C66.0944 5.31605 66.0536 5.26158 65.9991 5.22072C65.9378 5.17986 65.8833 5.15262 65.8084 5.13219C65.7403 5.11858 65.6654 5.11177 65.5973 5.11177H64.5895V6.12639H65.5156ZM65.5156 7.69258C65.679 7.69258 65.8152 7.67896 65.9242 7.65172C66.0331 7.63129 66.1148 7.59724 66.1829 7.54277C66.2442 7.4951 66.2919 7.44062 66.3191 7.36572C66.3464 7.29762 66.36 7.22272 66.36 7.13419C66.36 7.04567 66.3464 6.97077 66.3191 6.90267C66.2919 6.82777 66.2442 6.77329 66.1829 6.72562C66.1148 6.67796 66.0331 6.6371 65.9242 6.61667C65.8152 6.58943 65.679 6.57581 65.5156 6.57581H64.5895V7.69258H65.5156Z" fill="#1F2226"/>
<path d="M35.6754 18.8598L33.5111 13.0145L31.3572 18.8598H35.6733H35.6754ZM28.1337 23.1969L32.619 11.4456H34.4157L38.901 23.1969H37.2443L36.1726 20.1802H30.8809L29.8091 23.1969H28.1337ZM41.9469 21.8765V26.5499H40.4992V14.3829H41.9469V15.7136C42.252 15.1893 42.6363 14.8028 43.1001 14.5521C43.5702 14.293 44.1238 14.1656 44.7673 14.1656C45.839 14.1656 46.708 14.5918 47.3766 15.4462C48.0514 16.2923 48.3877 17.4121 48.3877 18.8014C48.3877 20.1906 48.0514 21.2999 47.3766 22.1565C46.708 23.0026 45.839 23.4267 44.7673 23.4267C44.1259 23.4267 43.5723 23.3034 43.1001 23.0506C42.6363 22.7916 42.254 22.3988 41.9469 21.8786V21.8765ZM46.8773 18.7993C46.8773 17.7338 46.6558 16.8982 46.2129 16.2902C45.7826 15.6823 45.1851 15.3773 44.4163 15.3773C43.6475 15.3773 43.0416 15.6823 42.5987 16.2902C42.1621 16.8982 41.9428 17.7338 41.9428 18.7993C41.9428 19.8647 42.1621 20.7004 42.5987 21.3083C43.0416 21.91 43.6475 22.2129 44.4163 22.2129C45.1851 22.2129 45.7826 21.91 46.2129 21.3083C46.6558 20.7004 46.8773 19.8647 46.8773 18.7993ZM52.1878 21.8765V26.5499H50.7296V14.3829H52.1878V15.7136C52.4928 15.1893 52.873 14.8028 53.3306 14.5521C53.8006 14.293 54.3584 14.1656 55.006 14.1656C56.0715 14.1656 56.9385 14.5918 57.607 15.4462C58.2818 16.2923 58.6181 17.4121 58.6181 18.8014C58.6181 20.1906 58.2818 21.2999 57.607 22.1565C56.9385 23.0026 56.0715 23.4267 55.006 23.4267C54.3584 23.4267 53.8006 23.3034 53.3306 23.0506C52.873 22.7916 52.4907 22.3988 52.1878 21.8786V21.8765ZM57.1098 18.7993C57.1098 17.7338 56.8883 16.8982 56.4454 16.2902C56.0151 15.6823 55.4176 15.3773 54.6488 15.3773C53.88 15.3773 53.2742 15.6823 52.8313 16.2902C52.4009 16.8982 52.1857 17.7338 52.1857 18.7993C52.1857 19.8647 52.4009 20.7004 52.8313 21.3083C53.2742 21.91 53.88 22.2129 54.6488 22.2129C55.4176 22.2129 56.0151 21.91 56.4454 21.3083C56.8883 20.7004 57.1098 19.8647 57.1098 18.7993ZM69.0387 21.5193V18.3647H66.4482V17.0549H70.616V22.1063C70.0018 22.543 69.3228 22.8731 68.5812 23.0966C67.8458 23.3159 67.0603 23.4225 66.2205 23.4225C64.3799 23.4225 62.9426 22.8856 61.9043 21.8139C60.8723 20.7421 60.3563 19.2484 60.3563 17.3285C60.3563 15.4086 60.8744 13.9149 61.9043 12.8432C62.9426 11.7652 64.3841 11.2241 66.2205 11.2241C66.9872 11.2241 67.7121 11.3223 68.3931 11.5124C69.0888 11.6963 69.726 11.9762 70.3089 12.346V14.0423C69.7218 13.5389 69.0972 13.1628 68.4349 12.91C67.7727 12.6573 67.077 12.534 66.3521 12.534C64.9168 12.534 63.8368 12.933 63.1077 13.7331C62.3932 14.5396 62.0359 15.7387 62.0359 17.3243C62.0359 18.91 62.3911 20.105 63.1077 20.9051C63.8368 21.7052 64.9189 22.1043 66.3521 22.1043C66.914 22.1043 67.4175 22.0562 67.8604 21.9664C68.297 21.8724 68.6898 21.7219 69.0387 21.5172V21.5193ZM78.8534 18.7575H77.4161C76.2441 18.7575 75.4335 18.8912 74.9843 19.1649C74.5352 19.4302 74.3095 19.8877 74.3095 20.5353C74.3095 21.0534 74.4767 21.4629 74.8172 21.7658C75.1535 22.0646 75.6131 22.2129 76.1981 22.2129C77.0045 22.2129 77.65 21.9267 78.1326 21.3605C78.6173 20.7923 78.8575 20.0339 78.8575 19.0855V18.7596H78.8534V18.7575ZM80.3011 18.1621V23.1948H78.8534V21.8536C78.5233 22.3905 78.1117 22.7874 77.6229 23.0465C77.1257 23.2992 76.5219 23.4225 75.8053 23.4225C74.9049 23.4225 74.1863 23.1697 73.6515 22.6662C73.1208 22.1565 72.8597 21.4733 72.8597 20.621C72.8597 19.637 73.1898 18.887 73.8499 18.3773C74.5184 17.8738 75.5087 17.621 76.8269 17.621H78.8534V17.4831C78.8534 16.8146 78.634 16.2965 78.1974 15.9351C77.7608 15.5716 77.1466 15.3919 76.3527 15.3919C75.8492 15.3919 75.3624 15.4525 74.884 15.5695C74.4077 15.6865 73.946 15.8724 73.5031 16.1127V14.7714C74.0338 14.5667 74.5477 14.4163 75.0512 14.3139C75.5484 14.2074 76.0289 14.1552 76.4989 14.1552C77.7754 14.1552 78.7301 14.4852 79.3568 15.1454C79.9857 15.8139 80.297 16.8146 80.297 18.1579L80.3011 18.1621ZM83.2865 23.1948V10.9504H84.7342V23.1948H83.2865ZM87.7635 23.1948V10.9504H89.2112V23.1948H87.7635ZM99.7383 18.4211V19.1356H93.0803C93.1409 20.1259 93.4354 20.8884 93.9744 21.4169C94.5155 21.935 95.2676 22.1899 96.2286 22.1899C96.7822 22.1899 97.3212 22.1231 97.8372 21.9914C98.3679 21.8536 98.886 21.6488 99.3957 21.3772V22.7477C98.8776 22.9671 98.347 23.1342 97.7975 23.2554C97.2564 23.3661 96.7028 23.4225 96.1409 23.4225C94.737 23.4225 93.6255 23.013 92.7941 22.192C91.9751 21.3793 91.5636 20.2742 91.5636 18.8766C91.5636 17.4789 91.9543 16.284 92.7356 15.4441C93.5148 14.5918 94.5698 14.1635 95.8902 14.1635C97.0768 14.1635 98.0106 14.5458 98.6979 15.3167C99.3894 16.0751 99.7362 17.1113 99.7362 18.4211H99.7383ZM93.12 18.0054H98.2906C98.278 17.2136 98.0524 16.5785 97.6158 16.1001C97.1854 15.6301 96.6151 15.394 95.8985 15.394C95.0921 15.394 94.4445 15.6217 93.9535 16.0792C93.4689 16.5367 93.1952 17.1781 93.12 18.0033V18.0054ZM107.161 14.2429L107.171 15.7303C107.006 15.6363 106.829 15.5695 106.635 15.5214C106.44 15.4734 106.235 15.4504 106.01 15.4504C105.191 15.4504 104.558 15.7199 104.115 16.2526C103.678 16.7833 103.459 17.5458 103.459 18.5444V23.1906H102.011V14.3787H103.459V15.7492C103.764 15.2123 104.161 14.8153 104.652 14.5563C105.143 14.2909 105.734 14.1593 106.43 14.1593C106.53 14.1593 106.641 14.1698 106.766 14.1886C106.883 14.1948 107.019 14.2116 107.163 14.2387L107.161 14.2429ZM116.232 14.3808L112.363 24.0074C111.953 25.0583 111.552 25.7477 111.164 26.0694C110.773 26.389 110.253 26.5457 109.605 26.5457H108.444V25.3361H109.296C109.693 25.3361 110.004 25.2379 110.23 25.0478C110.449 24.864 110.689 24.4169 110.955 23.7066L111.224 23.0506L107.65 14.3766H109.187L111.945 21.2623L114.692 14.3766H116.23L116.232 14.3808Z" fill="#1F2226"/>
</svg>
