<svg width="102" height="27" viewBox="0 0 102 27" fill="none" xmlns="http://www.w3.org/2000/svg">
<path d="M15.1708 13.913C15.1813 13.0943 15.3978 12.2915 15.8 11.5795C16.2022 10.8674 16.7772 10.2691 17.4714 9.84031C17.0304 9.20748 16.4486 8.6867 15.7723 8.31931C15.0959 7.95192 14.3436 7.74805 13.5751 7.72389C11.9358 7.551 10.3465 8.7095 9.51114 8.7095C8.6596 8.7095 7.37341 7.74105 5.9884 7.76969C5.09253 7.79877 4.21944 8.06052 3.4542 8.52943C2.68895 8.99835 2.05764 9.65844 1.62179 10.4454C-0.26625 13.7298 1.14205 18.5567 2.95063 21.2116C3.8555 22.5116 4.91304 23.9637 6.2968 23.9122C7.65089 23.8558 8.15662 23.0446 9.79113 23.0446C11.4105 23.0446 11.8849 23.9122 13.2968 23.8795C14.7498 23.8558 15.6653 22.5737 16.5384 21.2614C17.1885 20.3351 17.6888 19.3113 18.0207 18.228C17.1766 17.8693 16.4562 17.2688 15.9494 16.5015C15.4426 15.7341 15.1718 14.8339 15.1708 13.913Z" fill="#1F2226"/>
<path d="M12.5037 5.97953C13.296 5.02395 13.6863 3.79572 13.5918 2.55566C12.3814 2.68339 11.2634 3.26462 10.4604 4.18354C10.0678 4.63245 9.76717 5.1547 9.57559 5.72044C9.38401 6.28618 9.30528 6.88431 9.34391 7.48064C9.94931 7.48691 10.5482 7.35506 11.0956 7.09505C11.6429 6.83503 12.1244 6.45361 12.5037 5.97953Z" fill="#1F2226"/>
<path d="M35.8214 20.6209H31.2005L30.0908 23.9132H28.1335L32.5104 11.7327H34.5439L38.9207 23.9132H36.9301L35.8214 20.6209ZM31.6791 19.1017H35.3419L33.5362 13.7586H33.4857L31.6791 19.1017Z" fill="#1F2226"/>
<path d="M48.373 19.4722C48.373 22.2319 46.903 24.0049 44.6845 24.0049C44.1225 24.0345 43.5636 23.9044 43.0718 23.6296C42.58 23.3548 42.1751 22.9465 41.9036 22.4512H41.8616V26.8498H40.0474V15.0314H41.8035V16.5085H41.8368C42.1209 16.0157 42.5326 15.6094 43.0281 15.3329C43.5237 15.0565 44.0846 14.9202 44.6511 14.9385C46.8943 14.9385 48.373 16.7202 48.373 19.4722ZM46.5083 19.4722C46.5083 17.6743 45.5835 16.4922 44.1725 16.4922C42.7864 16.4922 41.854 17.6992 41.854 19.4722C41.854 21.2615 42.7864 22.4599 44.1725 22.4599C45.5835 22.4599 46.5083 21.2865 46.5083 19.4722Z" fill="#1F2226"/>
<path d="M58.1013 19.4722C58.1013 22.2319 56.6312 24.0049 54.4128 24.0049C53.8508 24.0345 53.2919 23.9044 52.8001 23.6296C52.3083 23.3548 51.9034 22.9464 51.6318 22.4512H51.5899V26.8498H49.7756V15.0314H51.5317V16.5085H51.5651C51.8491 16.0156 52.2608 15.6094 52.7564 15.3329C53.252 15.0565 53.8128 14.9202 54.3794 14.9385C56.6226 14.9385 58.1013 16.7202 58.1013 19.4722ZM56.2365 19.4722C56.2365 17.6743 55.3118 16.4922 53.9008 16.4922C52.5146 16.4922 51.5823 17.6992 51.5823 19.4722C51.5823 21.2615 52.5146 22.4599 53.9008 22.4599C55.3118 22.4599 56.2365 21.2864 56.2365 19.4722H56.2365Z" fill="#1F2226"/>
<path d="M64.5303 20.5198C64.6647 21.7277 65.8326 22.5208 67.4285 22.5208C68.9576 22.5208 70.0578 21.7277 70.0578 20.6386C70.0578 19.6931 69.3943 19.1271 67.8231 18.7391L66.252 18.3588C64.0259 17.8186 62.9925 16.7725 62.9925 15.0752C62.9925 12.9736 64.8153 11.53 67.4037 11.53C69.9653 11.53 71.7214 12.9736 71.7805 15.0752H69.9491C69.8395 13.8596 68.8394 13.1259 67.3779 13.1259C65.9164 13.1259 64.9163 13.8682 64.9163 14.9487C64.9163 15.8099 65.5551 16.3166 67.1176 16.7045L68.4533 17.034C70.9406 17.625 71.974 18.6289 71.974 20.4106C71.974 22.6894 70.1674 24.1166 67.294 24.1166C64.6055 24.1166 62.7904 22.7229 62.6731 20.5198L64.5303 20.5198Z" fill="#1F2226"/>
<path d="M75.89 12.9333V15.035H77.5708V16.4785H75.89V21.3742C75.89 22.1348 76.2266 22.4892 76.9654 22.4892C77.1649 22.4857 77.3642 22.4717 77.5622 22.4471V23.882C77.23 23.9443 76.8924 23.9726 76.5545 23.9663C74.7651 23.9663 74.0672 23.2909 74.0672 21.5687V16.4785H72.7821V15.035H74.0672V12.9333H75.89Z" fill="#1F2226"/>
<path d="M78.5443 19.4754C78.5443 16.6812 80.1822 14.9254 82.7362 14.9254C85.2988 14.9254 86.9291 16.6812 86.9291 19.4754C86.9291 22.2772 85.3074 24.0253 82.7362 24.0253C80.1659 24.0253 78.5443 22.2772 78.5443 19.4754ZM85.0805 19.4754C85.0805 17.5586 84.2063 16.4274 82.7362 16.4274C81.2661 16.4274 80.3929 17.5673 80.3929 19.4754C80.3929 21.3998 81.2661 22.5224 82.7362 22.5224C84.2063 22.5224 85.0805 21.3998 85.0805 19.4754H85.0805Z" fill="#1F2226"/>
<path d="M88.4248 15.0314H90.1552V16.5429H90.1971C90.3142 16.0708 90.5895 15.6536 90.9766 15.3614C91.3638 15.0692 91.8392 14.9199 92.3231 14.9384C92.5322 14.9377 92.7407 14.9605 92.9447 15.0064V16.7115C92.6808 16.6304 92.4054 16.5932 92.1295 16.6013C91.866 16.5906 91.6032 16.6373 91.3593 16.7382C91.1154 16.8391 90.8961 16.9919 90.7165 17.186C90.5369 17.3801 90.4013 17.6109 90.3188 17.8627C90.2364 18.1145 90.2092 18.3812 90.239 18.6445V23.9119H88.4248L88.4248 15.0314Z" fill="#1F2226"/>
<path d="M101.309 21.3069C101.065 22.919 99.5026 24.0253 97.5034 24.0253C94.9322 24.0253 93.3363 22.2944 93.3363 19.5175C93.3363 16.732 94.9408 14.9254 97.4271 14.9254C99.8725 14.9254 101.41 16.6132 101.41 19.3058V19.9304H95.1677V20.0405C95.1389 20.3674 95.1796 20.6966 95.2872 21.0064C95.3947 21.3162 95.5667 21.5995 95.7915 21.8374C96.0164 22.0753 96.2891 22.2624 96.5915 22.3863C96.8939 22.5102 97.219 22.568 97.5454 22.5559C97.9741 22.5963 98.4043 22.4965 98.7721 22.2715C99.1398 22.0464 99.4255 21.7081 99.5865 21.3068L101.309 21.3069ZM95.1763 18.6564H99.5951C99.6114 18.3625 99.567 18.0684 99.4648 17.7926C99.3626 17.5168 99.2048 17.2651 99.0012 17.0535C98.7977 16.8419 98.5528 16.6748 98.2819 16.5628C98.011 16.4507 97.72 16.3962 97.4271 16.4025C97.1317 16.4007 96.8388 16.4577 96.5655 16.5703C96.2921 16.6828 96.0436 16.8487 95.8343 17.0582C95.625 17.2678 95.4592 17.5169 95.3462 17.7912C95.2333 18.0655 95.1755 18.3595 95.1763 18.6564V18.6564Z" fill="#1F2226"/>
<path d="M29.8858 4.03377H30.7669C30.9066 4.03377 31.0274 4.01271 31.1293 3.9706C31.2313 3.92627 31.3155 3.86863 31.382 3.7977C31.4485 3.72455 31.4973 3.64364 31.5283 3.55498C31.5616 3.4641 31.5782 3.37211 31.5782 3.27901C31.5782 3.12606 31.5483 2.99638 31.4884 2.88999C31.4286 2.78359 31.3466 2.69714 31.2424 2.63064C31.1382 2.56192 31.0141 2.51205 30.87 2.48102C30.7281 2.44998 30.573 2.43447 30.4045 2.43447C30.1939 2.43447 30.0077 2.46439 29.8459 2.52424C29.6863 2.58187 29.5522 2.66056 29.4436 2.76031C29.3372 2.85784 29.2574 2.972 29.2042 3.10278C29.1532 3.23357 29.1299 3.371 29.1344 3.51508H28.5192C28.5192 3.30671 28.5436 3.12052 28.5924 2.95648C28.6434 2.79245 28.7132 2.64948 28.8019 2.52756C28.8905 2.40565 28.9947 2.30258 29.1144 2.21834C29.2341 2.13411 29.3638 2.06539 29.5034 2.0122C29.6453 1.959 29.7938 1.92131 29.949 1.89915C30.1064 1.87476 30.2648 1.86257 30.4244 1.86257C30.686 1.86257 30.9243 1.89139 31.1393 1.94902C31.3565 2.00444 31.5427 2.08867 31.6979 2.20172C31.8531 2.31255 31.9739 2.4522 32.0603 2.62066C32.1468 2.78691 32.19 2.98087 32.19 3.20253C32.19 3.45523 32.1401 3.66914 32.0404 3.84425C31.9428 4.01715 31.7733 4.14793 31.5317 4.2366V4.25322C31.658 4.28869 31.7733 4.34078 31.8775 4.40949C31.9839 4.47599 32.0747 4.56023 32.1501 4.66219C32.2277 4.76194 32.2875 4.88053 32.3296 5.01796C32.374 5.15539 32.3961 5.31278 32.3961 5.49011C32.3961 5.73837 32.3418 5.95671 32.2332 6.14512C32.1246 6.33354 31.9794 6.49092 31.7977 6.61727C31.6159 6.74362 31.4042 6.83782 31.1626 6.89989C30.9232 6.96417 30.6727 6.99631 30.4111 6.99631C30.1318 6.99631 29.8714 6.96971 29.6298 6.91652C29.3882 6.86553 29.1754 6.78019 28.9914 6.66049C28.8096 6.54079 28.6633 6.38341 28.5525 6.18835C28.4417 5.99107 28.3785 5.74945 28.363 5.46351H29.0047C29.0158 5.60316 29.0479 5.73172 29.1011 5.8492C29.1565 5.96668 29.2374 6.06865 29.3438 6.1551C29.4524 6.23933 29.5888 6.30583 29.7528 6.3546C29.919 6.40115 30.1185 6.42442 30.3513 6.42442C30.5619 6.42442 30.7525 6.40669 30.9232 6.37122C31.0961 6.33576 31.2424 6.27923 31.3621 6.20165C31.484 6.12407 31.5771 6.02432 31.6414 5.9024C31.7079 5.77827 31.7411 5.62975 31.7411 5.45686C31.7411 5.32829 31.7201 5.21081 31.678 5.10441C31.6381 4.99801 31.576 4.90602 31.4918 4.82844C31.4075 4.75086 31.3022 4.69101 31.1759 4.64889C31.0495 4.60456 30.8999 4.58239 30.727 4.58239H29.8858V4.03377ZM33.1791 4.37957C33.1858 4.16234 33.2268 3.97947 33.3021 3.83095C33.3775 3.68022 33.4795 3.5583 33.608 3.4652C33.7366 3.37211 33.8884 3.30561 34.0635 3.26571C34.2409 3.22359 34.4337 3.20253 34.6421 3.20253C34.815 3.20253 34.9823 3.22027 35.1442 3.25573C35.3082 3.2912 35.4534 3.34883 35.5797 3.42863C35.7061 3.50621 35.8069 3.60818 35.8823 3.73453C35.9599 3.85866 35.9987 4.0105 35.9987 4.19005V6.2615C35.9987 6.31913 36.0142 6.36901 36.0452 6.41112C36.0763 6.45102 36.1261 6.47097 36.1949 6.47097C36.2259 6.47097 36.258 6.46875 36.2913 6.46432C36.3245 6.45767 36.3589 6.45102 36.3943 6.44437V6.86664C36.3434 6.87994 36.2924 6.89213 36.2414 6.90322C36.1926 6.9143 36.1339 6.91984 36.0652 6.91984C35.9588 6.91984 35.8668 6.91097 35.7892 6.89324C35.7138 6.87551 35.6496 6.84669 35.5964 6.80679C35.5454 6.76468 35.5055 6.71148 35.4767 6.64719C35.4478 6.58069 35.429 6.49979 35.4201 6.40447C35.3448 6.48649 35.265 6.56296 35.1807 6.63389C35.0965 6.70261 35.0023 6.76357 34.8981 6.81677C34.7939 6.86775 34.6776 6.90765 34.549 6.93647C34.4204 6.9675 34.2752 6.98301 34.1134 6.98301C33.976 6.98301 33.8419 6.96085 33.7111 6.91652C33.5825 6.87218 33.4662 6.80679 33.362 6.72034C33.26 6.63389 33.178 6.52749 33.1159 6.40115C33.0539 6.27258 33.0228 6.12407 33.0228 5.9556C33.0228 5.77162 33.0539 5.61313 33.1159 5.48013C33.178 5.34492 33.2589 5.23298 33.3587 5.14431C33.4584 5.05343 33.5726 4.9836 33.7011 4.93484C33.8297 4.88607 33.9605 4.85393 34.0935 4.83841L35.0943 4.71539C35.1896 4.70431 35.2639 4.66773 35.3171 4.60567C35.3725 4.54138 35.4002 4.43942 35.4002 4.29977C35.4002 4.08476 35.3293 3.9307 35.1874 3.8376C35.0477 3.74228 34.846 3.69463 34.5822 3.69463C34.3118 3.69463 34.1101 3.75226 33.9771 3.86752C33.8441 3.98057 33.7687 4.15125 33.751 4.37957H33.1791ZM35.3869 5.06119C35.3381 5.09665 35.2772 5.12658 35.204 5.15096C35.1331 5.17313 35.0544 5.19197 34.9679 5.20748C34.8815 5.223 34.7895 5.23741 34.692 5.25071C34.5944 5.26179 34.4969 5.27398 34.3994 5.28728C34.2885 5.3028 34.1866 5.32497 34.0935 5.35378C34.0004 5.3826 33.9195 5.42028 33.8508 5.46683C33.782 5.51338 33.7288 5.56991 33.6912 5.6364C33.6535 5.70069 33.6346 5.77716 33.6346 5.86583C33.6346 5.96779 33.6501 6.05757 33.6812 6.13515C33.7144 6.21273 33.7588 6.27812 33.8142 6.33132C33.8718 6.38452 33.9405 6.42442 34.0203 6.45102C34.1001 6.47762 34.1877 6.49092 34.283 6.49092C34.3428 6.49092 34.4116 6.48427 34.4891 6.47097C34.5667 6.45545 34.6465 6.43329 34.7285 6.40447C34.8106 6.37565 34.8904 6.33908 34.9679 6.29475C35.0477 6.2482 35.1187 6.19278 35.1807 6.1285C35.2428 6.06422 35.2927 5.99107 35.3304 5.90905C35.368 5.82704 35.3869 5.73505 35.3869 5.63308V5.06119ZM37.0443 3.31226H39.2554V3.84425H37.6561V6.87329H37.0443V3.31226ZM39.8256 3.31226H40.4374V3.80103H40.4507C40.4906 3.71901 40.5404 3.64143 40.6003 3.56828C40.6624 3.49513 40.7355 3.43195 40.8197 3.37876C40.9062 3.32334 41.0048 3.28011 41.1157 3.24908C41.2287 3.21805 41.3573 3.20253 41.5014 3.20253C41.692 3.20253 41.8749 3.23911 42.05 3.31226C42.2251 3.38541 42.3803 3.49513 42.5155 3.64143C42.6507 3.78773 42.7582 3.97171 42.838 4.19337C42.9178 4.41282 42.9577 4.66884 42.9577 4.96144C42.9577 5.32718 42.92 5.63862 42.8446 5.89575C42.7715 6.15067 42.6662 6.35903 42.5288 6.52084C42.3936 6.68266 42.2295 6.80014 42.0367 6.87329C41.8438 6.94644 41.6288 6.98301 41.3916 6.98301C41.2742 6.98301 41.1644 6.9675 41.0625 6.93647C40.9605 6.90543 40.8685 6.86553 40.7865 6.81677C40.7067 6.76578 40.638 6.71037 40.5803 6.65052C40.5227 6.58845 40.4795 6.5286 40.4507 6.47097H40.4374V8.27643H39.8256V3.31226ZM40.4241 5.11106C40.4241 5.30391 40.4429 5.48235 40.4806 5.64638C40.5183 5.80819 40.5759 5.94895 40.6535 6.06865C40.7333 6.18835 40.8319 6.28256 40.9494 6.35127C41.0691 6.41777 41.2099 6.45102 41.3717 6.45102C41.5401 6.45102 41.6853 6.41777 41.8073 6.35127C41.9314 6.28256 42.0334 6.18835 42.1132 6.06865C42.1929 5.94895 42.2517 5.80819 42.2894 5.64638C42.3271 5.48235 42.3459 5.30391 42.3459 5.11106C42.3459 4.90935 42.3271 4.72426 42.2894 4.55579C42.2517 4.38733 42.1929 4.24214 42.1132 4.12022C42.0334 3.99831 41.9314 3.9041 41.8073 3.8376C41.6853 3.76888 41.5401 3.73453 41.3717 3.73453C41.2099 3.73453 41.0691 3.76888 40.9494 3.8376C40.8319 3.9041 40.7333 3.99831 40.6535 4.12022C40.5759 4.24214 40.5183 4.38733 40.4806 4.55579C40.4429 4.72426 40.4241 4.90935 40.4241 5.11106ZM43.345 3.31226H44.0166L44.9642 6.21162H44.9775L45.9252 3.31226H46.5968L45.2369 7.01626C45.1682 7.20246 45.105 7.36428 45.0474 7.50171C44.9897 7.63914 44.9332 7.75551 44.8778 7.85083C44.8224 7.94836 44.7658 8.02705 44.7082 8.0869C44.6528 8.14675 44.5907 8.1933 44.522 8.22655C44.4555 8.26202 44.3802 8.28529 44.2959 8.29638C44.2139 8.30967 44.1186 8.31632 44.01 8.31632C43.9213 8.31632 43.8515 8.31189 43.8005 8.30302C43.7517 8.29638 43.7085 8.28751 43.6708 8.27643V7.72448C43.7107 7.73778 43.7628 7.75108 43.8271 7.76438C43.8914 7.77768 43.959 7.78433 44.0299 7.78433C44.143 7.78433 44.2339 7.75662 44.3026 7.70121C44.3735 7.64801 44.4278 7.57153 44.4655 7.47178L44.665 6.96971L43.345 3.31226ZM48.1113 4.81514H48.4205C48.5025 4.81514 48.5878 4.80516 48.6765 4.78521C48.7652 4.76526 48.8461 4.73423 48.9192 4.69212C48.9924 4.64778 49.0522 4.59126 49.0988 4.52254C49.1475 4.45383 49.1719 4.3707 49.1719 4.27317C49.1719 4.20224 49.1564 4.13463 49.1254 4.07035C49.0965 4.00385 49.0522 3.94622 48.9924 3.89745C48.9347 3.84647 48.8616 3.80657 48.7729 3.77775C48.6843 3.74893 48.5812 3.73453 48.4637 3.73453C48.4016 3.73453 48.3285 3.74339 48.2442 3.76113C48.16 3.77886 48.0769 3.81211 47.9949 3.86087C47.9151 3.90742 47.843 3.97503 47.7788 4.0637C47.7167 4.15015 47.6768 4.2632 47.6591 4.40284H47.0872C47.1027 4.24325 47.1348 4.1036 47.1836 3.9839C47.2324 3.86198 47.2933 3.75669 47.3665 3.66803C47.4396 3.57936 47.5216 3.5051 47.6125 3.44525C47.7056 3.38541 47.8009 3.33775 47.8985 3.30228C47.9982 3.26681 48.098 3.24132 48.1977 3.22581C48.2974 3.21029 48.3928 3.20253 48.4836 3.20253C48.6432 3.20253 48.8006 3.22359 48.9558 3.26571C49.111 3.30561 49.2495 3.36767 49.3714 3.4519C49.4955 3.53392 49.5953 3.6381 49.6707 3.76445C49.746 3.8908 49.7837 4.03821 49.7837 4.20667C49.7837 4.31529 49.7682 4.41171 49.7372 4.49594C49.7061 4.57796 49.6651 4.65 49.6141 4.71207C49.5654 4.77413 49.51 4.82733 49.4479 4.87166C49.3858 4.91378 49.3249 4.94925 49.265 4.97806V4.99469C49.3271 5.00577 49.3958 5.02905 49.4712 5.06451C49.5465 5.09776 49.6163 5.14653 49.6806 5.21081C49.7449 5.27288 49.7981 5.35378 49.8402 5.45353C49.8846 5.55106 49.9067 5.67076 49.9067 5.81263C49.9067 6.01213 49.8635 6.18502 49.7771 6.33132C49.6928 6.47762 49.582 6.59954 49.4446 6.69707C49.3071 6.79238 49.152 6.86332 48.9791 6.90987C48.8062 6.95863 48.6322 6.98301 48.457 6.98301C48.2309 6.98301 48.0259 6.9542 47.8419 6.89657C47.6602 6.83893 47.5028 6.75692 47.3698 6.65052C47.2368 6.54412 47.1304 6.41666 47.0506 6.26815C46.973 6.11963 46.9265 5.9556 46.9109 5.77605H47.5261C47.5416 5.90684 47.5793 6.01545 47.6391 6.1019C47.699 6.18835 47.771 6.25706 47.8552 6.30805C47.9395 6.35903 48.0326 6.3956 48.1345 6.41777C48.2387 6.43994 48.344 6.45102 48.4504 6.45102C48.7319 6.45102 48.9425 6.3945 49.0821 6.28145C49.224 6.1684 49.2949 6.01656 49.2949 5.82593C49.2949 5.74391 49.2816 5.67076 49.255 5.60648C49.2307 5.5422 49.1885 5.48789 49.1287 5.44356C49.0688 5.39701 48.989 5.36265 48.8893 5.34048C48.7918 5.3161 48.6698 5.30391 48.5235 5.30391C48.4947 5.30391 48.4615 5.30502 48.4238 5.30723C48.3883 5.30723 48.3518 5.30834 48.3141 5.31056C48.2786 5.31278 48.2431 5.3161 48.2077 5.32053C48.1722 5.32275 48.1401 5.32497 48.1113 5.32718V4.81514ZM50.6631 3.31226H51.2749V6.04205H51.2882L53.0371 3.31226H53.7387V6.87329H53.1236V4.1435H53.1103L51.3647 6.87329H50.6631V3.31226ZM55.6555 3.84425H54.4285V3.31226H57.4942V3.84425H56.2672V6.87329H55.6555V3.84425ZM61.2131 5.73615C61.1887 5.89132 61.1355 6.04316 61.0535 6.19167C60.9715 6.34019 60.8639 6.47319 60.7309 6.59067C60.5979 6.70815 60.4406 6.80236 60.2588 6.87329C60.0793 6.94644 59.8798 6.98301 59.6603 6.98301C59.4209 6.98301 59.1992 6.94422 58.9953 6.86664C58.7936 6.78684 58.6185 6.66825 58.47 6.51087C58.3237 6.35127 58.2084 6.15177 58.1242 5.91238C58.0399 5.67298 57.9978 5.39147 57.9978 5.06784C57.9978 4.85061 58.0211 4.65443 58.0676 4.47932C58.1164 4.30199 58.1807 4.1446 58.2605 4.00717C58.3425 3.86752 58.4367 3.74783 58.5431 3.64808C58.6495 3.54611 58.7615 3.46299 58.8789 3.39871C58.9986 3.33221 59.1206 3.28344 59.2447 3.25241C59.3688 3.21916 59.4885 3.20253 59.6038 3.20253C59.8476 3.20253 60.0704 3.23911 60.2721 3.31226C60.4738 3.38541 60.6467 3.49735 60.7908 3.64808C60.9371 3.79659 61.0501 3.9839 61.1299 4.21C61.212 4.43388 61.253 4.69766 61.253 5.00134V5.30723H58.6495C58.6517 5.48013 58.6761 5.63751 58.7227 5.77938C58.7692 5.91903 58.8357 6.03873 58.9222 6.13847C59.0086 6.23822 59.1128 6.31581 59.2347 6.37122C59.3588 6.42442 59.4985 6.45102 59.6537 6.45102C59.811 6.45102 59.944 6.42885 60.0527 6.38452C60.1613 6.34019 60.2522 6.28366 60.3253 6.21495C60.3984 6.14623 60.4572 6.06976 60.5015 5.98553C60.5481 5.90129 60.5869 5.81817 60.6179 5.73615H61.2131ZM60.6378 4.81846C60.6334 4.64557 60.6068 4.49151 60.558 4.35629C60.5115 4.22108 60.445 4.10803 60.3585 4.01715C60.2743 3.92405 60.1724 3.85422 60.0527 3.80768C59.933 3.75891 59.8 3.73453 59.6537 3.73453C59.514 3.73453 59.3854 3.76223 59.268 3.81765C59.1505 3.87085 59.0474 3.94622 58.9587 4.04375C58.8701 4.13906 58.7991 4.25322 58.7459 4.38622C58.6927 4.517 58.6606 4.66108 58.6495 4.81846H60.6378ZM64.0026 3.31226H65.5188C65.9532 3.31226 66.278 3.39316 66.493 3.55498C66.7102 3.71679 66.8188 3.95176 66.8188 4.25987C66.8188 4.4239 66.7789 4.56244 66.6991 4.67549C66.6193 4.78854 66.514 4.88829 66.3833 4.97474C66.5717 5.04567 66.7213 5.14764 66.8321 5.28063C66.943 5.41363 66.9984 5.58542 66.9984 5.796C66.9984 5.96225 66.9707 6.11187 66.9152 6.24487C66.8598 6.37787 66.7756 6.49092 66.6625 6.58402C66.5495 6.67712 66.4054 6.74916 66.2303 6.80014C66.0574 6.84891 65.8524 6.87329 65.6152 6.87329H64.0026V3.31226ZM64.6144 6.38452H65.5454C65.7072 6.38452 65.8413 6.37233 65.9477 6.34795C66.0563 6.32135 66.1427 6.28366 66.207 6.2349C66.2713 6.18613 66.3168 6.12739 66.3434 6.05868C66.37 5.98996 66.3833 5.91238 66.3833 5.82593C66.3833 5.73948 66.37 5.6619 66.3434 5.59318C66.3168 5.52225 66.2713 5.46351 66.207 5.41696C66.1427 5.36819 66.0563 5.33162 65.9477 5.30723C65.8413 5.28063 65.7072 5.26733 65.5454 5.26733H64.6144V6.38452ZM64.6144 4.81846H65.5387C65.7449 4.81846 65.9078 4.77746 66.0275 4.69544C66.1472 4.61342 66.207 4.48597 66.207 4.31307C66.207 4.21554 66.1904 4.13463 66.1572 4.07035C66.1239 4.00385 66.0796 3.95065 66.0242 3.91075C65.9687 3.87085 65.9056 3.84314 65.8346 3.82763C65.7659 3.80989 65.695 3.80103 65.6218 3.80103H64.6144V4.81846Z" fill="#1F2226"/>
</svg>
