<svg width="27" height="30" viewBox="0 0 27 30" fill="none" xmlns="http://www.w3.org/2000/svg">
<path d="M0.643987 0.951391C0.263056 1.39594 0.0686874 1.96739 0.100674 2.54876V27.7872C0.061341 28.3695 0.25661 28.9436 0.643987 29.3846L0.724905 29.4759L15.0475 15.3391V14.9968L0.724905 0.871521L0.643987 0.951391Z" fill="url(#paint0_linear_160624_40647)"/>
<path d="M19.7869 20.0512L15.0474 15.339V14.9967L19.7869 10.2844L19.8909 10.3529L25.5668 13.5248C27.1852 14.4262 27.1852 15.9095 25.5668 16.8222L19.914 19.9942L19.7869 20.0512Z" fill="url(#paint1_linear_160624_40647)"/>
<path d="M19.9248 10.3526L3.03595 0.882433C2.69265 0.614206 2.26453 0.474029 1.82687 0.486551C1.38922 0.499072 0.970047 0.66349 0.643066 0.950894L15.0466 15.1675L19.9248 10.3526Z" fill="url(#paint2_linear_160624_40647)"/>
<path opacity="0.2" d="M19.7861 19.8771L3.03595 29.2902C2.70296 29.5383 2.29714 29.6724 1.87997 29.6724C1.46279 29.6724 1.05697 29.5383 0.723985 29.2902V29.2902L0.643066 29.3701L0.723985 29.4614C1.05697 29.7094 1.46279 29.8436 1.87997 29.8436C2.29714 29.8436 2.70296 29.7094 3.03595 29.4614L19.9248 19.9798L19.7861 19.8771Z" fill="black"/>
<path d="M19.9248 19.9824L15.0466 15.1675L0.643066 29.3841C0.969717 29.6711 1.38782 29.8362 1.82489 29.8508C2.26195 29.8653 2.6904 29.7285 3.03595 29.4639L19.9248 19.9824" fill="url(#paint3_linear_160624_40647)"/>
<path opacity="0.12" d="M0.642705 29.2251C0.271397 28.7725 0.0894316 28.1969 0.134073 27.6163V27.7874C0.0947399 28.3698 0.290007 28.9438 0.677383 29.3848L0.758303 29.3049L0.642705 29.2251Z" fill="black"/>
<path opacity="0.12" d="M25.567 16.6508L19.7871 19.8797L19.8911 19.9824L25.567 16.8105C25.902 16.6707 26.1927 16.4443 26.4083 16.1551C26.624 15.866 26.7566 15.5248 26.7924 15.1675C26.7201 15.4922 26.5715 15.7956 26.3587 16.0532C26.1459 16.3108 25.8747 16.5155 25.567 16.6508Z" fill="black"/>
<path opacity="0.25" d="M3.03677 1.04304L25.5668 13.6851C25.8745 13.8203 26.1457 14.025 26.3585 14.2826C26.5713 14.5403 26.7199 14.8437 26.7921 15.1684C26.7564 14.8111 26.6238 14.4699 26.4081 14.1807C26.1925 13.8916 25.9018 13.6652 25.5668 13.5254L3.03677 0.883304C1.42996 -0.0294793 0.100586 0.723568 0.100586 2.54913V2.72028C0.135265 0.894714 1.42996 0.141669 3.03677 1.04304Z" fill="white"/>
<defs>
<linearGradient id="paint0_linear_160624_40647" x1="13.7759" y1="2.28633" x2="-5.36807" y2="21.682" gradientUnits="userSpaceOnUse">
<stop stop-color="#00A0FF"/>
<stop offset="0.01" stop-color="#00A1FF"/>
<stop offset="0.26" stop-color="#00BEFF"/>
<stop offset="0.51" stop-color="#00D2FF"/>
<stop offset="0.76" stop-color="#00DFFF"/>
<stop offset="1" stop-color="#00E3FF"/>
</linearGradient>
<linearGradient id="paint1_linear_160624_40647" x1="27.6822" y1="15.1678" x2="-0.280929" y2="15.1678" gradientUnits="userSpaceOnUse">
<stop stop-color="#FFE000"/>
<stop offset="0.41" stop-color="#FFBD00"/>
<stop offset="0.78" stop-color="#FFA500"/>
<stop offset="1" stop-color="#FF9C00"/>
</linearGradient>
<linearGradient id="paint2_linear_160624_40647" x1="-2.98671" y1="-7.44671" x2="8.60464" y2="4.29705" gradientUnits="userSpaceOnUse">
<stop stop-color="#32A071"/>
<stop offset="0.07" stop-color="#2DA771"/>
<stop offset="0.48" stop-color="#15CF74"/>
<stop offset="0.8" stop-color="#06E775"/>
<stop offset="1" stop-color="#00F076"/>
</linearGradient>
<linearGradient id="paint3_linear_160624_40647" x1="17.2776" y1="17.7917" x2="-8.68899" y2="44.0882" gradientUnits="userSpaceOnUse">
<stop stop-color="#FF3A44"/>
<stop offset="1" stop-color="#C31162"/>
</linearGradient>
</defs>
</svg>
