<svg width="30" height="30" viewBox="0 0 30 30" fill="none" xmlns="http://www.w3.org/2000/svg">
<path d="M23.4153 0.214294H6.58485C3.06652 0.214294 0.214355 3.06646 0.214355 6.58478V23.4152C0.214355 26.9335 3.06652 29.7857 6.58485 29.7857H23.4153C26.9336 29.7857 29.7857 26.9335 29.7857 23.4152V6.58478C29.7857 3.06646 26.9336 0.214294 23.4153 0.214294Z" fill="#E14459"/>
<path d="M7.42536 2.14465C6.96014 2.14465 6.58496 2.51984 6.58496 2.98256C6.58496 3.44527 6.96264 3.82044 7.42536 3.82044C7.89058 3.82044 8.26575 3.44527 8.26575 2.98256C8.26575 2.51734 7.88808 2.14465 7.42286 2.14465H7.42536ZM22.4724 2.14465C22.0072 2.14465 21.632 2.51984 21.632 2.98256C21.632 3.44527 22.0097 3.82044 22.4749 3.82044C22.9402 3.82044 23.3153 3.44527 23.3153 2.98256C23.3153 2.51734 22.9377 2.14465 22.4724 2.14465Z" fill="#C73148"/>
<path d="M7.38975 2.87103C7.09711 2.88604 7.11212 3.31124 7.11212 3.31124C8.68285 6.37268 11.5767 7.87339 14.9133 7.87339C18.2448 7.86838 21.1662 6.35017 22.737 3.29624C22.737 3.29624 22.7995 2.72097 22.1867 2.92106C20.5784 5.58731 17.8747 7.16555 14.9158 7.17056C11.9519 7.17056 9.25813 5.60983 7.64487 2.93857C7.53982 2.88855 7.45728 2.87104 7.38975 2.87354V2.87103ZM18.0247 14.7641L17.1318 17.4254L16.2614 14.7641H15.411L16.7817 18.6335H17.442L18.3374 16.0922L19.2328 18.6335H19.9006L21.2688 14.7641H20.4409L19.568 17.4254L18.675 14.7641H18.0247ZM13.2775 14.7641L11.5442 18.6335H12.3596L12.6947 17.8856L12.7198 17.8281H14.5206L14.8733 18.6335H15.7112L13.9928 14.7866L13.9778 14.7641H13.28H13.2775ZM25.8384 14.7641V18.6309H26.6263V14.7641H25.8384ZM3.23779 14.7641V18.636H4.03567V17.0627H5.83902V18.6335H6.63939V14.7616H5.84152V16.3224H4.03817V14.7616H3.23779V14.7641ZM10.3386 14.7641V16.9802C10.3386 17.6105 10.021 17.9456 9.44321 17.9456C8.86544 17.9456 8.54279 17.6005 8.54279 16.9527V14.7666H7.74241V16.9802C7.74241 18.0682 8.3577 18.6935 9.43071 18.6935C10.5037 18.6935 11.134 18.0582 11.134 16.9477V14.7641H10.3361H10.3386ZM21.9166 14.7641V18.6309H24.8905V17.9256H22.7044V16.9677H24.1576V16.2623H22.7044V15.472H24.8129V14.7666H21.9166V14.7641ZM13.6177 15.7396L14.1879 17.0352L14.228 17.1252H13.0199L13.0574 17.0352L13.6202 15.7396H13.6177Z" fill="white"/>
</svg>
