<svg width="50" height="50" viewBox="0 0 50 50" fill="none" xmlns="http://www.w3.org/2000/svg">
<circle cx="25" cy="25" r="25" fill="#FFC33D"/>
<g clip-path="url(#clip0_393_28219)">
<path d="M29.735 21.2122H32.5759L35.4168 25.0532V30.6819H33.4897C33.3772 31.472 32.9833 32.1949 32.3805 32.7179C31.7778 33.2409 31.0065 33.5288 30.2085 33.5288C29.4105 33.5288 28.6392 33.2409 28.0365 32.7179C27.4337 32.1949 27.0398 31.472 26.9272 30.6819H22.1261C22.0135 31.472 21.6197 32.1949 21.0169 32.7179C20.4141 33.2409 19.6429 33.5288 18.8449 33.5288C18.0468 33.5288 17.2756 33.2409 16.6728 32.7179C16.07 32.1949 15.6762 31.472 15.5636 30.6819H14.5835V19.3183C14.5835 19.0672 14.6833 18.8263 14.8609 18.6487C15.0384 18.4711 15.2793 18.3713 15.5305 18.3713H28.788C29.0392 18.3713 29.2801 18.4711 29.4577 18.6487C29.6352 18.8263 29.735 19.0672 29.735 19.3183V21.2122ZM29.735 23.1062V25.9471H33.5229V25.6772L31.6214 23.1062H29.735Z" fill="white"/>
</g>
<defs>
<clipPath id="clip0_393_28219">
<rect width="22.7273" height="22.7273" fill="white" transform="translate(13.6367 13.6367)"/>
</clipPath>
</defs>
</svg>
