<svg xmlns="http://www.w3.org/2000/svg" width="50" height="50" fill="none"><circle cx="25" cy="25" r="25" fill="#FFC33D"/><path fill="#fff" d="M25 14.5a5 5 0 0 1 5 5h1.756c.78 0 1.063.081 1.348.234.285.152.51.376.662.661s.233.568.233 1.348v6.25c0 2.019-.22 2.803-.634 3.577a4.3 4.3 0 0 1-1.796 1.795c-.774.414-1.558.635-3.577.635h-5.985c-2.02 0-2.803-.22-3.578-.635a4.3 4.3 0 0 1-1.795-1.795c-.414-.774-.635-1.558-.635-3.578v-6.249c0-.78.082-1.063.234-1.348a1.6 1.6 0 0 1 .662-.661c.285-.153.568-.234 1.348-.234H20a5 5 0 0 1 5-5m4.155 6.75h-.061a.94.94 0 0 0-.46.1.7.7 0 0 0-.284.284.94.94 0 0 0-.1.46v.061c0 .194.034.339.1.461a.7.7 0 0 0 .283.284c.122.065.267.1.46.1h.062a.94.94 0 0 0 .46-.1.7.7 0 0 0 .284-.284.94.94 0 0 0 .1-.46v-.062a.94.94 0 0 0-.1-.46.7.7 0 0 0-.283-.284.94.94 0 0 0-.46-.1m-8.25 0h-.061a.94.94 0 0 0-.46.1.7.7 0 0 0-.284.284.94.94 0 0 0-.1.46v.061c0 .194.034.339.1.461a.7.7 0 0 0 .283.284c.122.065.267.1.46.1h.062a.94.94 0 0 0 .46-.1.7.7 0 0 0 .284-.284.94.94 0 0 0 .1-.46v-.062a.94.94 0 0 0-.1-.46.7.7 0 0 0-.283-.284.94.94 0 0 0-.46-.1m4.095-5a3.25 3.25 0 0 0-3.25 3.25h6.5A3.25 3.25 0 0 0 25 16.25"/></svg>