<svg xmlns="http://www.w3.org/2000/svg" width="50" height="50" fill="none"><circle cx="25" cy="25" r="25" fill="#FFC33D"/><g clip-path="url(#a)"><path fill="#fff" d="M33.334 25c4.677-2.83.731-9.898-4.167-7.227-.164-5.468-8.172-5.465-8.333 0-4.861-2.668-8.866 4.373-4.167 7.174-4.687 2.874-.758 9.67 4.166 7.284.17 5.465 8.165 5.46 8.334 0 4.888 2.384 8.875-4.39 4.166-7.23M25 28.788a3.788 3.788 0 1 1 0-7.575 3.788 3.788 0 0 1 0 7.575M26.894 25a1.894 1.894 0 1 1-3.788 0 1.894 1.894 0 0 1 3.788 0"/></g><defs><clipPath id="a"><path fill="#fff" d="M13.637 13.637h22.727v22.727H13.637z"/></clipPath></defs></svg>