<svg width="50" height="50" viewBox="0 0 50 50" fill="none" xmlns="http://www.w3.org/2000/svg">
<circle cx="25" cy="25" r="25" fill="#FFC33D"/>
<g clip-path="url(#clip0_393_28233)">
<path d="M33.3335 25.0004C38.0106 22.1699 34.0655 15.1017 29.1668 17.7731C29.003 12.3053 20.9954 12.3082 20.8335 17.7731C15.9727 15.1055 11.968 22.1462 16.6668 24.9474C11.9803 27.8214 15.9092 34.6169 20.8335 32.2315C21.0039 37.6955 28.9983 37.6907 29.1668 32.2315C34.0551 34.615 38.0418 27.8413 33.3335 25.0004ZM25.0002 28.7883C23.9955 28.7883 23.0321 28.3892 22.3217 27.6788C21.6114 26.9685 21.2123 26.005 21.2123 25.0004C21.2123 23.9958 21.6114 23.0323 22.3217 22.322C23.0321 21.6116 23.9955 21.2125 25.0002 21.2125C26.0048 21.2125 26.9682 21.6116 27.6786 22.322C28.389 23.0323 28.788 23.9958 28.788 25.0004C28.788 26.005 28.389 26.9685 27.6786 27.6788C26.9682 28.3892 26.0048 28.7883 25.0002 28.7883ZM26.8941 25.0004C26.8941 25.5027 26.6946 25.9844 26.3394 26.3396C25.9842 26.6948 25.5025 26.8943 25.0002 26.8943C24.4979 26.8943 24.0161 26.6948 23.6609 26.3396C23.3058 25.9844 23.1062 25.5027 23.1062 25.0004C23.1062 24.4981 23.3058 24.0164 23.6609 23.6612C24.0161 23.306 24.4979 23.1065 25.0002 23.1065C25.5025 23.1065 25.9842 23.306 26.3394 23.6612C26.6946 24.0164 26.8941 24.4981 26.8941 25.0004Z" fill="white"/>
</g>
<defs>
<clipPath id="clip0_393_28233">
<rect width="22.7273" height="22.7273" fill="white" transform="translate(13.6367 13.6367)"/>
</clipPath>
</defs>
</svg>
