<svg width="50" height="50" viewBox="0 0 50 50" fill="none" xmlns="http://www.w3.org/2000/svg">
<circle cx="25" cy="25" r="25" fill="#FFC33D"/>
<path d="M24.9995 14.4998C27.7609 14.4998 29.9995 16.7384 29.9995 19.4998H31.7561C32.5362 19.4998 32.8191 19.581 33.1043 19.7336C33.3894 19.8861 33.6133 20.1099 33.7658 20.3951C33.9183 20.6803 33.9995 20.9631 33.9995 21.7432V27.9921C33.9995 30.0116 33.7791 30.7958 33.3651 31.5698C32.9511 32.3439 32.3436 32.9514 31.5695 33.3654C30.7954 33.7794 30.0113 33.9998 27.9918 33.9998H22.0072C19.9877 33.9998 19.2036 33.7794 18.4295 33.3654C17.6554 32.9514 17.0479 32.3439 16.634 31.5698C16.22 30.7958 15.9995 30.0116 15.9995 27.9921V21.7432C15.9995 20.9631 16.0807 20.6803 16.2333 20.3951C16.3858 20.1099 16.6096 19.8861 16.8948 19.7336C17.18 19.581 17.4628 19.4998 18.2429 19.4998H19.9995C19.9995 16.7384 22.2381 14.4998 24.9995 14.4998ZM29.1552 21.2498H29.0938C28.9001 21.2498 28.7554 21.2846 28.6332 21.35C28.511 21.4154 28.4151 21.5113 28.3497 21.6335C28.2843 21.7557 28.2495 21.9004 28.2495 22.0941V22.1555C28.2495 22.3493 28.2843 22.4939 28.3497 22.6161C28.4151 22.7384 28.511 22.8343 28.6332 22.8996C28.7554 22.965 28.9001 22.9998 29.0938 22.9998H29.1552C29.3489 22.9998 29.4936 22.965 29.6158 22.8996C29.7381 22.8343 29.834 22.7384 29.8993 22.6161C29.9647 22.4939 29.9995 22.3493 29.9995 22.1555V22.0941C29.9995 21.9004 29.9647 21.7557 29.8993 21.6335C29.834 21.5113 29.7381 21.4154 29.6158 21.35C29.4936 21.2846 29.3489 21.2498 29.1552 21.2498ZM20.9052 21.2498H20.8438C20.6501 21.2498 20.5054 21.2846 20.3832 21.35C20.261 21.4154 20.1651 21.5113 20.0997 21.6335C20.0343 21.7557 19.9995 21.9004 19.9995 22.0941V22.1555C19.9995 22.3493 20.0343 22.4939 20.0997 22.6161C20.1651 22.7384 20.261 22.8343 20.3832 22.8996C20.5054 22.965 20.6501 22.9998 20.8438 22.9998H20.9052C21.0989 22.9998 21.2436 22.965 21.3658 22.8996C21.4881 22.8343 21.584 22.7384 21.6493 22.6161C21.7147 22.4939 21.7495 22.3493 21.7495 22.1555V22.0941C21.7495 21.9004 21.7147 21.7557 21.6493 21.6335C21.584 21.5113 21.4881 21.4154 21.3658 21.35C21.2436 21.2846 21.0989 21.2498 20.9052 21.2498ZM24.9995 16.2498C23.2046 16.2498 21.7495 17.7049 21.7495 19.4998H28.2495C28.2495 17.7049 26.7944 16.2498 24.9995 16.2498Z" fill="white"/>
</svg>
